<?xml version="1.0" standalone="no"?>
<!DOCTYPE svg PUBLIC "-//W3C//DTD SVG 1.1//EN" "http://www.w3.org/Graphics/SVG/1.1/DTD/svg11.dtd" >
<svg>
<metadata>
Created by FontForge 20090914 at Sat Jul 20 13:39:42 2013
 By www-data
&#194;&#169; 2012 Microsoft Corporation. All Rights Reserved.
</metadata>
<defs>
<font id="SegoeUI-Light" horiz-adv-x="0" >
  <font-face 
    font-family="SegoeUI-Light"
    font-weight="300"
    font-stretch="normal"
    units-per-em="2048"
    panose-1="2 11 5 2 4 2 4 2 2 3"
    ascent="1638"
    descent="-410"
    x-height="1024"
    cap-height="1434"
    bbox="-252.002 -481.002 2357 1884"
    underline-thickness="119"
    underline-position="-119"
    unicode-range="U+000D-U+2122"
  />
<missing-glyph horiz-adv-x="1322" 
d="M166 0v1398h990v-1398h-990zM314 148h694v1102h-694v-1102z" />
    <glyph glyph-name=".notdef" horiz-adv-x="1322" 
d="M166 0v1398h990v-1398h-990zM314 148h694v1102h-694v-1102z" />
    <glyph glyph-name="uni000D" unicode="&#xd;" horiz-adv-x="199" 
 />
    <glyph glyph-name="space" unicode=" " horiz-adv-x="561" 
 />
    <glyph glyph-name="exclam" unicode="!" horiz-adv-x="582" 
d="M332 403h-86l-10 1031h106zM291 -18c-22.667 0 -41.667 7.83301 -57 23.5s-23 34.834 -23 57.501c0 23.333 7.66699 42.5 23 57.5s34.333 22.5 57 22.5s42 -7.5 58 -22.5s24 -34.167 24 -57.5c0 -22.667 -8 -41.834 -24 -57.501s-35.333 -23.5 -58 -23.5z" />
    <glyph glyph-name="quotedbl" unicode="&#x22;" horiz-adv-x="686" 
d="M511 985h-86v449h86v-449zM263 985h-86v449h86v-449z" />
    <glyph glyph-name="numbersign" unicode="#" horiz-adv-x="1237" 
d="M1128 946h-272l-76 -346h285l-18 -78h-283l-86 -399h-80l86 399h-268l-86 -399h-80l86 399h-283l19 78h280l76 346h-293l19 78h290l88 410h80l-88 -410h269l88 410h80l-89 -410h275zM508 946l-76 -346h268l76 346h-268z" />
    <glyph glyph-name="dollar" unicode="$" horiz-adv-x="1055" 
d="M567 4l-0.000976562 -212.999h-78v209c-125.333 0 -234.333 26.667 -327 80v102c101.333 -65.333 210.333 -98 327 -98v598c-131.333 75.333 -218.666 140.166 -261.999 194.499s-65 119.166 -65 194.499c0 90.667 29.333 169.667 88 237
s138.334 108.666 239.001 123.999v182h78v-180c101.333 0 188 -14.333 260 -43v-103c-68.667 40 -155.334 60 -260.001 60v-607c122.667 -67.333 207.667 -129.166 255 -185.499s71 -122.833 71 -199.5c0 -93.333 -28.5 -171.666 -85.5 -234.999
s-137.167 -102.333 -240.5 -117zM488.999 1346c-71.333 -11.333 -127.668 -40.668 -169.001 -88.001s-62 -105.666 -62 -174.999c0 -58.667 15.333 -109.5 46 -152.5s92.334 -91.167 185.001 -144.5v560zM566.997 634.999v-549c76 13.333 133.333 42.5 172 87.5
s58 99.833 58 164.5c0 61.333 -16.167 113.333 -48.5 156s-92.833 89.667 -181.5 141z" />
    <glyph glyph-name="percent" unicode="%" horiz-adv-x="1606" 
d="M414 729c-102.667 0 -183.667 33.668 -243 101.001s-89 154.666 -89 261.999c0 116.667 31.5 207.5 94.5 272.5s145.5 97.5 247.5 97.5c100 0 179.333 -32.333 238 -97s88 -155 88 -271c0 -104 -30.5 -190.833 -91.5 -260.5s-142.5 -104.5 -244.5 -104.5zM422 1380
c-76.667 0 -137.166 -25.5 -181.499 -76.5s-66.5 -122.167 -66.5 -213.5c0 -86 21.5 -154.333 64.5 -205s102.167 -76 177.5 -76c76 0 135.5 26 178.5 78s64.5 121.667 64.5 209c0 94 -21.333 164.833 -64 212.5s-100.334 71.5 -173.001 71.5zM416.001 -32.999h-99l863 1465
h96zM1198 -24.999c-102 0 -182.833 33.667 -242.5 101s-89.5 154.666 -89.5 261.999c0 118 32 209.333 96 274s146 97 246 97s179.333 -32.667 238 -98s88 -155.666 88 -270.999c0 -104 -30.5 -190.833 -91.5 -260.5s-142.5 -104.5 -244.5 -104.5zM1206 627.001
c-76 0 -136.333 -26 -181 -78s-67 -123 -67 -213c0 -86 21.5 -154.333 64.5 -205s102.167 -76 177.5 -76c76.667 0 136.5 25.833 179.5 77.5s64.5 121.5 64.5 209.5c0 94 -21.333 165 -64 213s-100.667 72 -174 72z" />
    <glyph glyph-name="ampersand" unicode="&#x26;" horiz-adv-x="1427" 
d="M1260 0l-192.998 187.999c-134 -142 -293.667 -213 -479 -213c-140.667 0 -250.334 36.167 -329.001 108.5s-118 164.5 -118 276.5c0 184 110.667 325.333 332 424c-108 124.667 -162 238.667 -162 342c0 92.667 32.833 171.167 98.5 235.5s150.5 96.5 254.5 96.5
c95.333 0 170.333 -27.167 225 -81.5s82 -123.5 82 -207.5c0 -91.333 -27.667 -169.166 -83 -233.499s-142.333 -123.5 -261 -177.5c100 -106 246.667 -250.667 440 -434c83.333 124 127.666 268.667 132.999 434h96c-4.66699 -178 -60 -344 -166 -498l273 -262z
M563.002 822.999c116 51.333 196.833 102.666 242.5 153.999s68.5 111.333 68.5 180c0 66 -21 118.667 -63 158s-94 59 -156 59c-75.333 0 -135.333 -24.167 -180 -72.5s-67 -107.5 -67 -177.5c0 -85.333 51.667 -185.666 155 -300.999zM1006 249.999
c-221.333 214 -377.668 370.333 -469.001 469c-199.333 -86.667 -299 -204 -299 -352c0 -90 31.833 -163.833 95.5 -221.5s151.167 -86.5 262.5 -86.5c152.667 0 289.334 63.667 410.001 191z" />
    <glyph glyph-name="quotesingle" unicode="'" horiz-adv-x="438" 
d="M263 985h-86v449h86v-449z" />
    <glyph glyph-name="parenleft" unicode="(" horiz-adv-x="578" 
d="M453 -326c-202 236 -303 526.333 -303 871c0 360 102.333 656.333 307 889h98c-208.667 -240 -313 -535.667 -313 -887c0 -331.333 103 -622.333 309 -873h-98z" />
    <glyph glyph-name="parenleft" unicode="&#xfd3e;" horiz-adv-x="578" 
d="M453 -326c-202 236 -303 526.333 -303 871c0 360 102.333 656.333 307 889h98c-208.667 -240 -313 -535.667 -313 -887c0 -331.333 103 -622.333 309 -873h-98z" />
    <glyph glyph-name="parenright" unicode=")" horiz-adv-x="578" 
d="M125 -326h-98c206 250.667 309 541.667 309 873c0 351.333 -104.333 647 -313 887h98c204.667 -234 307 -530.333 307 -889c0 -346 -101 -636.333 -303 -871z" />
    <glyph glyph-name="parenright" unicode="&#xfd3f;" horiz-adv-x="578" 
d="M125 -326h-98c206 250.667 309 541.667 309 873c0 351.333 -104.333 647 -313 887h98c204.667 -234 307 -530.333 307 -889c0 -346 -101 -636.333 -303 -871z" />
    <glyph glyph-name="asterisk" unicode="*" horiz-adv-x="831" 
d="M469 1051l199 -267l-76 -51l-174 277l-178 -277l-74 51l199 267l-295 75l26 86l289 -102l-16 324h94l-14 -324l286 102l27 -86z" />
    <glyph glyph-name="plus" unicode="+" horiz-adv-x="1331" 
d="M709 555v-412h-84v412h-412v84h412v412h84v-412h411v-84h-411z" />
    <glyph glyph-name="comma" unicode="," horiz-adv-x="455" 
d="M125 -248h-78l150 475h102z" />
    <glyph glyph-name="hyphen" unicode="-" horiz-adv-x="815" 
d="M145 555v90h547v-90h-547z" />
    <glyph glyph-name="hyphen" unicode="&#x2010;" horiz-adv-x="815" 
d="M145 555v90h547v-90h-547z" />
    <glyph glyph-name="period" unicode="." horiz-adv-x="455" 
d="M227 -18c-22.667 0 -41.667 7.83301 -57 23.5s-23 34.834 -23 57.501c0 23.333 7.66699 42.5 23 57.5s34.333 22.5 57 22.5s42 -7.5 58 -22.5s24 -34.167 24 -57.5c0 -22.667 -8 -41.834 -24 -57.501s-35.333 -23.5 -58 -23.5z" />
    <glyph glyph-name="slash" unicode="/" horiz-adv-x="750" 
d="M63 -238h-92l693 1672h96z" />
    <glyph glyph-name="zero" unicode="0" horiz-adv-x="1055" 
d="M516 -25c-132 0 -235.332 60.668 -309.999 182.001s-112 297.666 -112 528.999c0 255.333 39.167 447.833 117.5 577.5s190.166 194.5 335.499 194.5c276 0 414 -245 414 -735c0 -244 -39 -429.667 -117 -557s-187.333 -191 -328 -191zM539.001 1374
c-110 0 -195.667 -56.334 -257 -169.001s-92 -281.667 -92 -507c0 -205.333 29.333 -363.166 88 -473.499s142 -165.5 250 -165.5c106 0 188.5 56.167 247.5 168.5s88.5 272.833 88.5 481.5c0 443.333 -108.333 665 -325 665z" />
    <glyph glyph-name="one" unicode="1" horiz-adv-x="730" 
d="M526 1466v-1466h-92v1321c-46 -44 -98.5 -82 -157.5 -114s-123.5 -60.333 -193.5 -85v84c42 14 81 29.833 117 47.5s70.5 37.167 103.5 58.5s65 44.833 96 70.5s62.5 53.5 94.5 83.5h32z" />
    <glyph glyph-name="two" unicode="2" horiz-adv-x="1055" 
d="M96 0l0.00195312 67.001c0 44.667 3.66699 84.834 11 120.501s18.5 68.5 33.5 98.5s33.667 58.167 56 84.5s48.333 52.666 78 78.999s63.334 53.333 101.001 81l123.5 90.5c43.333 31.333 83.833 62.333 121.5 93s70.5 63.667 98.5 99s50.167 74.166 66.5 116.499
s24.5 90.833 24.5 145.5c0 94.667 -26.167 168.167 -78.5 220.5s-125.833 78.5 -220.5 78.5c-64 0 -125.667 -14 -185 -42s-117.333 -67 -174 -117v108c54.667 42 113.667 75 177 99s129.333 36 198 36c57.333 0 109.333 -8.66699 156 -26s86.5 -42 119.5 -74
s58.5 -70.667 76.5 -116s27 -96 27 -152c0 -66 -9.5 -124.5 -28.5 -175.5s-44.833 -97.333 -77.5 -139s-70.834 -80 -114.501 -115s-89.834 -69.833 -138.501 -104.5c-64.667 -46 -119.334 -86.833 -164.001 -122.5s-81 -70.5 -109 -104.5s-48.167 -69 -60.5 -105
s-18.5 -77.667 -18.5 -125v-15h713v-84h-812z" />
    <glyph glyph-name="three" unicode="3" horiz-adv-x="1055" 
d="M115 51l0.00195312 105c109.333 -64.667 212.333 -97 309 -97c115.333 0 205.666 29.5 270.999 88.5s98 136.167 98 231.5c0 106 -37.5 186.333 -112.5 241s-181.833 82 -320.5 82h-110v84h98c128 0 225.5 27.167 292.5 81.5s100.5 131.166 100.5 230.499
c0 86 -24.333 153.5 -73 202.5s-119.667 73.5 -213 73.5c-90 0 -184.333 -31.333 -283 -94v98c108 53.333 207 80 297 80c113.333 0 203.166 -30.667 269.499 -92s99.5 -142.666 99.5 -243.999c0 -194 -93 -317.333 -279 -370v-4c100 -10 180 -47.167 240 -111.5
s90 -145.5 90 -243.5c0 -125.333 -43.333 -226.333 -130 -303s-199 -115 -337 -115c-106.667 0 -209 25.333 -307 76z" />
    <glyph glyph-name="four" unicode="4" horiz-adv-x="1087" 
d="M826 1434v-976.001h224v-83h-224v-375h-92v375h-684v90c64 72.667 129 150.834 195 234.501s129.167 168.167 189.5 253.5s115.833 169.333 166.5 252s93 159 127 229h98zM156 457.999h578v812c-48.667 -84 -99.167 -165.333 -151.5 -244l-155 -222.5l-146.5 -192.5z" />
    <glyph glyph-name="five" unicode="5" horiz-adv-x="1055" 
d="M160 29l0.000976562 106c92 -50.667 183.333 -76 274 -76c117.333 0 209 32.333 275 97s99 150.667 99 258c0 233.333 -133 350 -399 350c-60 0 -128.667 -4 -206 -12l43 682h597v-84h-515l-33 -510c68.667 5.33301 118 8 148 8c151.333 0 266 -37.167 344 -111.5
s117 -177.833 117 -310.5c0 -134 -41.333 -242.667 -124 -326s-200.667 -125 -354 -125c-100.667 0 -189.334 18 -266.001 54z" />
    <glyph glyph-name="six" unicode="6" horiz-adv-x="1055" 
d="M889 1423l-0.00195312 -97.998c-68 32.667 -138.333 49 -211 49c-71.333 0 -135.333 -17.5 -192 -52.5s-105 -84.167 -145 -147.5s-70.667 -138.833 -92 -226.5s-32 -184.5 -32 -290.5h4c70 160 189.667 240 359 240c58.667 0 112 -11.333 160 -34s89.167 -54 123.5 -94
s60.833 -86.833 79.5 -140.5s28 -111.5 28 -173.5c0 -69.333 -10.5 -133.333 -31.5 -192s-50.5 -109.334 -88.5 -152.001s-83.167 -76 -135.5 -100s-109.833 -36 -172.5 -36c-66 0 -125 14.167 -177 42.5s-96 70 -132 125s-63.5 123.333 -82.5 205s-28.5 175.5 -28.5 281.5
c0 125.333 12.333 239 37 341s60.834 189.167 108.501 261.5s106 128.166 175 167.499s147.833 59 236.5 59c78.667 0 148.334 -11.667 209.001 -35zM558.998 813.002c-47.333 0 -91.1709 -9.83398 -131.504 -29.501s-75.166 -45.667 -104.499 -78
s-52.333 -69.166 -69 -110.499s-25 -83.333 -25 -126c0 -54.667 7.66699 -106.834 23 -156.501s37 -93.167 65 -130.5s61.833 -67.166 101.5 -89.499s83.834 -33.5 132.501 -33.5c46 0 88.833 9.5 128.5 28.5s73.834 45.333 102.501 79s51.167 73.5 67.5 119.5
s24.5 96 24.5 150c0 56 -7.16699 107.167 -21.5 153.5s-35.166 86 -62.499 119s-60.5 58.667 -99.5 77s-82.833 27.5 -131.5 27.5z" />
    <glyph glyph-name="seven" unicode="7" horiz-adv-x="1022" 
d="M293 0c20.667 123.333 48.668 242.334 84.001 357.001s76.333 227.167 123 337.5s97.667 219.666 153 327.999l175 327.5h-758v84h882v-34l-189 -356.5c-58.667 -114.333 -111.834 -227.833 -159.501 -340.5s-89.167 -226.5 -124.5 -341.5s-63 -235.5 -83 -361.5h-103z
" />
    <glyph glyph-name="eight" unicode="8" horiz-adv-x="1055" 
d="M107 400c0 38 5.5 75.499 16.5 112.499s27.667 71.833 50 104.5s50.166 62 83.499 88s72.666 47 117.999 63c-33.333 16 -63.666 35.333 -90.999 58s-50.666 47.834 -69.999 75.501s-34.166 57.667 -44.499 90s-15.5 65.833 -15.5 100.5
c0 52.667 9.5 101.334 28.5 146.001s45.167 83.334 78.5 116.001s73 58.167 119 76.5s95.667 27.5 149 27.5c54 0 104 -9.33301 150 -28s85.667 -44.334 119 -77.001s59.333 -71.334 78 -116.001s28 -93 28 -145c0 -35.333 -5.16699 -69 -15.5 -101s-24.833 -62 -43.5 -90
s-41.334 -53.167 -68.001 -75.5s-56.334 -41.5 -89.001 -57.5c44 -16 82.333 -37 115 -63s60 -55.333 82 -88s38.333 -67.5 49 -104.5s16 -74.5 16 -112.5c0 -66.667 -10.333 -126.167 -31 -178.5s-49.5 -96.666 -86.5 -132.999s-81.333 -64 -133 -83
s-108.834 -28.5 -171.501 -28.5c-61.333 0 -117.666 9.5 -168.999 28.5s-95.666 46.5 -132.999 82.5s-66.5 80.167 -87.5 132.5s-31.5 112.166 -31.5 179.499zM202 389.999c0 -50 7.99707 -95.333 23.9971 -136s38.167 -75.5 66.5 -104.5s62.333 -51.333 102 -67
s83.5 -23.5 131.5 -23.5c47.333 0 91 7.83301 131 23.5s74.5 38 103.5 67s51.5 63.833 67.5 104.5s24 86 24 136c0 44.667 -7.66699 87 -23 127s-37.166 75 -65.499 105s-62.666 53.833 -102.999 71.5s-85.166 26.5 -134.499 26.5c-46 0 -88.833 -8.16699 -128.5 -24.5
s-74 -39 -103 -68s-51.667 -63.833 -68 -104.5s-24.5 -85 -24.5 -133zM251.997 1089c0 -40 7.16602 -77.1689 21.499 -111.502s34 -64.166 59 -89.499s54.333 -45.333 88 -60s69.5 -22 107.5 -22s74 7.33301 108 22s63.5 34.834 88.5 60.501s44.833 55.667 59.5 90
s22 71.166 22 110.499c0 40.667 -7.16699 78.334 -21.5 113.001s-34 64.834 -59 90.501s-54.333 45.667 -88 60s-70.167 21.5 -109.5 21.5c-41.333 0 -78.833 -7.5 -112.5 -22.5s-62.667 -35.333 -87 -61s-43.166 -55.834 -56.499 -90.501s-20 -71.667 -20 -111z" />
    <glyph glyph-name="nine" unicode="9" horiz-adv-x="1055" 
d="M178 12l-0.000976562 100.999c76.667 -36 147 -54 211 -54c151.333 0 266.666 60.5 345.999 181.5s119 299.5 119 535.5h-4c-66 -154 -183.333 -231 -352 -231c-59.333 0 -113.166 11 -161.499 33s-90 52.5 -125 91.5s-62 85.333 -81 139s-28.5 112.5 -28.5 176.5
c0 70.667 10.833 135 32.5 193s51.834 107.667 90.501 149s84.5 73.5 137.5 96.5s110.5 34.5 172.5 34.5c63.333 0 120.666 -13.5 171.999 -40.5s95 -67.667 131 -122s63.667 -122 83 -203s29 -175.5 29 -283.5c0 -133.333 -12.167 -251.666 -36.5 -354.999
s-60.166 -190.5 -107.499 -261.5s-106 -125 -176 -162s-151 -55.5 -243 -55.5c-71.333 0 -141 12.333 -209 37zM521.999 1374c-46.667 0 -89.833 -9.33691 -129.5 -28.0039s-73.834 -44.5 -102.501 -77.5s-51 -72.167 -67 -117.5s-24 -94.333 -24 -147
c0 -58 7.83301 -110.167 23.5 -156.5s37.5 -85.666 65.5 -117.999s61.667 -57.166 101 -74.499s83 -26 131 -26c44 0 85.667 8.83301 125 26.5s73.5 41.334 102.5 71.001s52 64.334 69 104.001s25.5 81.5 25.5 125.5c0 60.667 -7.83301 116.667 -23.5 168
s-37.667 95.5 -66 132.5s-62.166 65.833 -101.499 86.5s-82.333 31 -129 31z" />
    <glyph glyph-name="colon" unicode=":" horiz-adv-x="455" 
d="M227 881c-22.667 0 -41.667 8 -57 24s-23 35.333 -23 58s7.66699 41.5 23 56.5s34.333 22.5 57 22.5s42 -7.5 58 -22.5s24 -33.833 24 -56.5s-8 -42 -24 -58s-35.333 -24 -58 -24zM227 -18c-22.667 0 -41.667 7.83301 -57 23.5s-23 34.834 -23 57.501
c0 23.333 7.66699 42.5 23 57.5s34.333 22.5 57 22.5s42 -7.5 58 -22.5s24 -34.167 24 -57.5c0 -22.667 -8 -41.834 -24 -57.501s-35.333 -23.5 -58 -23.5z" />
    <glyph glyph-name="semicolon" unicode=";" horiz-adv-x="455" 
d="M236 881c-23.333 0 -42.5 8 -57.5 24s-22.5 35.333 -22.5 58s7.5 41.5 22.5 56.5s34.167 22.5 57.5 22.5c22.667 0 41.834 -7.5 57.501 -22.5s23.5 -33.833 23.5 -56.5s-7.83301 -42 -23.5 -58s-34.834 -24 -57.501 -24zM125 -248h-78l150 475h102z" />
    <glyph glyph-name="less" unicode="&#x3c;" horiz-adv-x="1331" 
d="M250 580v18l833 467v-94l-677 -379v-4l677 -334v-96z" />
    <glyph glyph-name="equal" unicode="=" horiz-adv-x="1331" 
d="M213 750v84h907v-84h-907zM213 362v84h907v-84h-907z" />
    <glyph glyph-name="greater" unicode="&#x3e;" horiz-adv-x="1331" 
d="M250 158v96l678 334v4l-678 379v94l833 -467v-18z" />
    <glyph glyph-name="question" unicode="?" horiz-adv-x="881" 
d="M377 398c-6.66699 16.667 -12.498 38.5 -17.498 65.5s-7.5 53.833 -7.5 80.5c0 31.333 4.16699 59.833 12.5 85.5s20 49.834 35 72.501s33 44.667 54 66s44.167 43 69.5 65c21.333 19.333 42.333 39.5 63 60.5s39 43.5 55 67.5s28.833 50.167 38.5 78.5
s14.5 59.5 14.5 93.5c0 36.667 -6.16699 69.5 -18.5 98.5s-29.5 53.667 -51.5 74s-48.5 35.833 -79.5 46.5s-65.167 16 -102.5 16c-62.667 0 -120.5 -11 -173.5 -33s-102.833 -52 -149.5 -90v107c47.333 36 97.166 62.667 149.499 80s110.5 26 174.5 26
c49.333 0 95.166 -7 137.499 -21s79 -34.5 110 -61.5s55.333 -60 73 -99s26.5 -83.5 26.5 -133.5c0 -38 -5.33301 -72.667 -16 -104s-24.5 -60.333 -41.5 -87s-36.5 -51.667 -58.5 -75l-67 -68c-35.333 -33.333 -64.166 -61.5 -86.499 -84.5s-39.833 -43.833 -52.5 -62.5
s-21.5 -36.834 -26.5 -54.501s-7.5 -38.5 -7.5 -62.5c0 -30.667 2.66699 -58.5 8 -83.5s10.666 -46.167 15.999 -63.5h-81zM412.002 -18c-22.667 0 -41.5 7.83301 -56.5 23.5s-22.5 34.834 -22.5 57.501c0 23.333 7.5 42.5 22.5 57.5s33.833 22.5 56.5 22.5
c23.333 0 42.833 -7.5 58.5 -22.5s23.5 -34.167 23.5 -57.5c0 -22.667 -7.83301 -41.834 -23.5 -57.501s-35.167 -23.5 -58.5 -23.5z" />
    <glyph glyph-name="at" unicode="@" horiz-adv-x="1933" 
d="M1153 426l-4.00098 -0.00195312c-60 -158.667 -157.667 -238 -293 -238c-93.333 0 -167.166 33.5 -221.499 100.5s-81.5 156.5 -81.5 268.5c0 151.333 38 277.5 114 378.5s176 151.5 300 151.5c52 0 97.667 -13.333 137 -40s65.333 -57.667 78 -93h4
c2.66699 40.667 6 80.334 10 119.001h88l-51 -584c0 -144.667 51 -217 153 -217c82.667 0 150.834 41.667 204.501 125s80.5 190.666 80.5 321.999c0 199.333 -60.333 358.333 -181 477s-289.667 178 -507 178c-212 0 -384.833 -72.667 -518.5 -218
s-200.5 -325.333 -200.5 -540c0 -218 63.667 -392.5 191 -523.5s300.666 -196.5 519.999 -196.5c166 0 308 29.333 426 88v-93c-130.667 -52.667 -276 -79 -436 -79c-240.667 0 -433.667 74.333 -579 223s-218 342.334 -218 581.001c0 239.333 78.5 439.5 235.5 600.5
s353.5 241.5 589.5 241.5c234 0 421.5 -68.667 562.5 -206s211.5 -311.666 211.5 -522.999c0 -158 -35.833 -287.667 -107.5 -389s-161.167 -152 -268.5 -152c-148 0 -227.333 79.333 -238 238zM962.999 1004c-96 0 -172.334 -40 -229.001 -120s-85 -186.333 -85 -319
c0 -90 19.167 -161.333 57.5 -214s91.5 -79 159.5 -79c90.667 0 162.834 46.333 216.501 139s80.5 211 80.5 355c0 78 -17.833 137.167 -53.5 177.5s-84.5 60.5 -146.5 60.5z" />
    <glyph glyph-name="A" unicode="A" horiz-adv-x="1288" 
d="M1118 0l-164 446h-622l-164 -446h-109l541 1434h94l535 -1434h-111zM678 1200c-7.33301 20 -13.333 39.666 -18 58.999c-4.66699 16.667 -9.66699 33.334 -15 50.001h-4c-11.333 -44 -22.333 -79.667 -33 -107l-241 -665h553z" />
    <glyph glyph-name="B" unicode="B" horiz-adv-x="1114" 
d="M184 0l-0.000976562 1434h377c112.667 0 202.334 -30.333 269.001 -91s100 -141 100 -241c0 -83.333 -22.167 -155.5 -66.5 -216.5s-106.166 -104.167 -185.499 -129.5v-4c99.333 -9.33301 177.666 -44.833 234.999 -106.5s86 -140.167 86 -235.5
c0 -120.667 -39 -219.167 -117 -295.5s-182.333 -114.5 -313 -114.5h-385zM282.999 1343v-554.999h200c104 0 187.333 26.667 250 80s94 125.666 94 216.999c0 172 -101.667 258 -305 258h-239zM282.999 698.001l-0.000976562 -608h266c112.667 0 198.834 27 258.501 81
s89.5 130.667 89.5 230c0 198 -134.333 297 -403 297h-211z" />
    <glyph glyph-name="C" unicode="C" horiz-adv-x="1272" 
d="M1137 47c-116 -48 -237 -72 -363 -72c-196 0 -355.833 65.833 -479.5 197.5s-185.5 303.5 -185.5 515.5c0 232.667 67 419.167 201 559.5s304.333 210.5 511 210.5c110 0 215.333 -17.667 316 -53v-105c-100.667 45.333 -206.667 68 -318 68
c-180 0 -326.333 -61 -439 -183s-169 -284.333 -169 -487c0 -195.333 53.833 -349.5 161.5 -462.5s244.167 -169.5 409.5 -169.5c132 0 250.333 25.667 355 77v-96z" />
    <glyph glyph-name="D" unicode="D" horiz-adv-x="1380" 
d="M184 0v1434h359c238 0 419 -59.333 543 -178s186 -291.667 186 -519c0 -218.667 -66.5 -396.167 -199.5 -532.5s-316.5 -204.5 -550.5 -204.5h-338zM283 1343v-1253h225c212.667 0 376 55.167 490 165.5s171 269.5 171 477.5c0 406.667 -213.667 610 -641 610h-245z" />
    <glyph glyph-name="E" unicode="E" horiz-adv-x="1024" 
d="M184 0v1434h670v-91h-571v-575h530v-90h-530v-588h604v-90h-703z" />
    <glyph glyph-name="F" unicode="F" horiz-adv-x="952" 
d="M283 1343v-585h530v-90h-530v-668h-99v1434h670v-91h-571z" />
    <glyph glyph-name="G" unicode="G" horiz-adv-x="1368" 
d="M1221 100c-148 -83.333 -300.331 -125.001 -456.998 -125.001c-195.333 0 -353.333 66.333 -474 199s-181 306.667 -181 522c0 217.333 65 398.666 195 543.999s303.667 218 521 218c126 0 248.333 -25.333 367 -76v-108c-130 62.667 -257 94 -381 94
c-180.667 0 -325.834 -61.667 -435.501 -185s-164.5 -280.666 -164.5 -471.999c0 -201.333 51.5 -359.166 154.5 -473.499s241.833 -171.5 416.5 -171.5c129.333 0 242.666 28 339.999 84v473h-338v90h437v-613z" />
    <glyph glyph-name="H" unicode="H" horiz-adv-x="1386" 
d="M1104 0v688h-821v-688h-99v1434h99v-656h821v656h98v-1434h-98z" />
    <glyph glyph-name="I" unicode="I" horiz-adv-x="467" 
d="M184 0v1434h99v-1434h-99z" />
    <glyph glyph-name="J" unicode="J" horiz-adv-x="664" 
d="M487 494c0 -346 -120.001 -519 -360.001 -519c-37.333 0 -73.666 5 -108.999 15v96c39.333 -13.333 76.333 -20 111 -20c92 0 158.333 34.833 199 104.5s61 178.167 61 325.5v938h98v-940z" />
    <glyph glyph-name="K" unicode="K" horiz-adv-x="1079" 
d="M922 0l-611 686c-11.333 12.667 -19.333 23.667 -24 33h-4v-719h-99v1434h99v-676h4c8 14 16.667 25.667 26 35l580 641h129l-629 -695l668 -739h-139z" />
    <glyph glyph-name="L" unicode="L" horiz-adv-x="938" 
d="M184 0v1434h99v-1344h575v-90h-674z" />
    <glyph glyph-name="M" unicode="M" horiz-adv-x="1706" 
d="M1427 0l0.000976562 1018c0 24.667 3.66699 95 11 211h-4c-20.667 -54 -38 -95.667 -52 -125l-510 -1104h-32l-512 1098c-16.667 35.333 -32.334 80.333 -47.001 135h-5c4.66699 -64 7 -127.667 7 -191v-1042h-99v1434h92l535 -1155c3.33301 -6.66699 7 -15.667 11 -27
s8.33301 -22.666 13 -33.999c6.66699 -17.333 13.667 -36.666 21 -57.999h6l11 32c0.666992 2.66699 12 34.334 34 95.001l527 1147h88v-1434h-95z" />
    <glyph glyph-name="N" unicode="N" horiz-adv-x="1452" 
d="M1198 0l-854.001 1159c-17.333 23.333 -32.666 46.666 -45.999 69.999l-13 20h-4c1.33301 -17.333 2 -38.333 2 -63v-1186h-99v1434h76l848 -1149c18.667 -25.333 39 -56 61 -92h5c-3.33301 46.667 -5 86.667 -5 120v1121h99v-1434h-70z" />
    <glyph glyph-name="O" unicode="O" horiz-adv-x="1559" 
d="M774 -25c-202.667 0 -364.167 67.332 -484.5 201.999s-180.5 309.667 -180.5 525c0 228.667 61.833 411.834 185.5 549.501s292.5 206.5 506.5 206.5c193.333 0 349.833 -66.167 469.5 -198.5s179.5 -305.833 179.5 -520.5c0 -237.333 -61.333 -424 -184 -560
s-286.667 -204 -492 -204zM784 1368c-166.667 0 -303.832 -60.335 -411.499 -181.002s-161.5 -278.667 -161.5 -474c0 -197.333 51 -354.5 153 -471.5s238 -175.5 408 -175.5c177.333 0 317.666 57.833 420.999 173.5s155 276.834 155 483.501
c0 202.667 -50.5 360.834 -151.5 474.501s-238.5 170.5 -412.5 170.5z" />
    <glyph glyph-name="P" unicode="P" horiz-adv-x="1114" 
d="M283 575v-575.001h-99v1434h346c147.333 0 260 -34.167 338 -102.5s117 -168.166 117 -299.499c0 -133.333 -43.5 -242.833 -130.5 -328.5s-208.833 -128.5 -365.5 -128.5h-206zM283 1343l0.000976562 -677.001h204c129.333 0 227.666 30.833 294.999 92.5
s101 148.834 101 261.501c0 215.333 -123.667 323 -371 323h-229z" />
    <glyph glyph-name="Q" unicode="Q" horiz-adv-x="1544" 
d="M774 -25c-202.667 0 -364.167 67.333 -484.5 202s-180.5 309.667 -180.5 525c0 228.667 61.833 411.834 185.5 549.501s292.5 206.5 506.5 206.5c193.333 0 349.833 -66.167 469.5 -198.5s179.5 -305.833 179.5 -520.5c0 -237.333 -61.333 -424 -184 -560
c-38 -42.667 -80.333 -78.334 -127 -107.001l348 -265h-167l-271 218c-81.333 -33.333 -173 -50 -275 -50zM784 1368c-166.667 0 -303.832 -60.335 -411.499 -181.002s-161.5 -278.667 -161.5 -474c0 -197.333 51 -354.5 153 -471.5s238 -175.5 408 -175.5
c177.333 0 317.666 57.833 420.999 173.5s155 276.834 155 483.501c0 202.667 -50.5 360.834 -151.5 474.501s-238.5 170.5 -412.5 170.5z" />
    <glyph glyph-name="R" unicode="R" horiz-adv-x="1137" 
d="M918 0l-191.002 419.998c-39.333 86.667 -78.666 144.834 -117.999 174.501s-88.666 44.5 -147.999 44.5h-178v-639h-99v1434h398c126.667 0 226.167 -34.167 298.5 -102.5s108.5 -158.5 108.5 -270.5c0 -103.333 -29.667 -189.666 -89 -258.999s-142.333 -114 -249 -134
v-4c56.667 -22.667 112 -91.667 166 -207l213 -457h-112zM282.998 1343l0.000976562 -614h247c109.333 0 196.166 28.667 260.499 86s96.5 136 96.5 236c0 91.333 -29 162.833 -87 214.5s-141 77.5 -249 77.5h-268z" />
    <glyph glyph-name="S" unicode="S" horiz-adv-x="1018" 
d="M139 51l-0.000976562 113c102.667 -65.333 206.667 -98 312 -98c112 0 197 23.167 255 69.5s87 111.166 87 194.499c0 73.333 -19.5 131.833 -58.5 175.5s-123.5 103.167 -253.5 178.5c-145.333 84.667 -237.333 155.5 -276 212.5s-58 122.833 -58 197.5
c0 101.333 39.333 187.333 118 258s183.667 106 315 106c85.333 0 170.666 -14.333 255.999 -43v-104c-84 38 -173.667 57 -269 57c-97.333 0 -174.5 -24.667 -231.5 -74s-85.5 -112 -85.5 -188c0 -73.333 19.5 -131.666 58.5 -174.999s123.167 -102.333 252.5 -177
c134 -76 223.167 -143.5 267.5 -202.5s66.5 -126.833 66.5 -203.5c0 -110 -38.167 -199.667 -114.5 -269s-184.166 -104 -323.499 -104c-49.333 0 -106.166 7.66699 -170.499 23s-113.5 33 -147.5 53z" />
    <glyph glyph-name="T" unicode="T" horiz-adv-x="1047" 
d="M573 1343v-1343h-98v1343h-414v91h926v-91h-414z" />
    <glyph glyph-name="U" unicode="U" horiz-adv-x="1327" 
d="M1161 573c0 -398.667 -170 -598 -510 -598c-323.333 0 -485 192 -485 576v883h98v-869c0 -332.667 135.333 -499 406 -499c262 0 393 161.667 393 485v883h98v-861z" />
    <glyph glyph-name="V" unicode="V" horiz-adv-x="1237" 
d="M639 0h-74l-524 1434h111l415 -1155c17.333 -48 29.666 -93.333 36.999 -136h4c6.66699 34 20.334 80 41.001 138l441 1153h106z" />
    <glyph glyph-name="W" unicode="W" horiz-adv-x="1833" 
d="M1362 0l-81.998 -0.00195312l-319 1079c-16 55.333 -25 100.333 -27 135h-4c-2 -29.333 -12.333 -73.666 -31 -132.999l-340 -1081h-82l-426 1434h111l327 -1149c14.667 -52 25 -94.333 31 -127h4c4 24.667 15.667 67 35 127l354 1149h50l325 -1149
c15.333 -53.333 25.666 -95.666 30.999 -126.999h4c3.33301 18.667 8.66602 40 15.999 64l336 1212h107z" />
    <glyph glyph-name="X" unicode="X" horiz-adv-x="1153" 
d="M961 0l-329.999 547c-20.667 34 -38.334 67.333 -53.001 100h-5c-18 -36.667 -37 -70 -57 -100l-336 -547h-119l453 723l-426 711h119l321 -539c16.667 -28 34 -60 52 -96h4l53 96l319 539h115l-430 -709l440 -725h-120z" />
    <glyph glyph-name="Y" unicode="Y" horiz-adv-x="1106" 
d="M598 545l0.000976562 -545.001h-98v543l-439 891h111l334 -691c12 -24 27 -59.333 45 -106h4c9.33301 24.667 25.666 59.334 48.999 104.001l350 693h107z" />
    <glyph glyph-name="Z" unicode="Z" horiz-adv-x="1167" 
d="M215 90h858v-90h-1007v31l868 1312h-799v91h952v-27z" />
    <glyph glyph-name="bracketleft" unicode="[" horiz-adv-x="578" 
d="M209 -326v1760h317v-84h-225v-1592h225v-84h-317z" />
    <glyph glyph-name="backslash" unicode="\" horiz-adv-x="750" 
d="M668 -238l-697 1672h97l692 -1672h-92z" />
    <glyph glyph-name="bracketright" unicode="]" horiz-adv-x="578" 
d="M51 -326v84h225v1592h-225v84h318v-1760h-318z" />
    <glyph glyph-name="asciicircum" unicode="^" horiz-adv-x="1331" 
d="M975 702l-307 613h-4l-308 -613h-96l385 756h41l385 -756h-96z" />
    <glyph glyph-name="underscore" unicode="_" horiz-adv-x="850" 
d="M0 -268v90h850v-90h-850z" />
    <glyph glyph-name="grave" unicode="`" horiz-adv-x="508" 
d="M324 1188l-248 328h104l234 -328h-90z" />
    <glyph glyph-name="a" unicode="a" horiz-adv-x="1012" 
d="M776 0l0.000976562 205h-4c-32.667 -70 -80.167 -125.833 -142.5 -167.5s-131.5 -62.5 -207.5 -62.5c-97.333 0 -174.333 27.333 -231 82s-85 123.667 -85 207c0 178.667 118.333 286.667 355 324l315 47c0 220 -82.667 330 -248 330
c-112.667 0 -222.334 -45.333 -329.001 -136v111c38 30 89.5 55.667 154.5 77s126.167 32 183.5 32c105.333 0 186.833 -32.667 244.5 -98s86.5 -160.333 86.5 -285v-666h-92zM494.001 510c-107.333 -15.333 -182.667 -40.168 -226 -74.501s-65 -90.166 -65 -167.499
c0 -60.667 20.167 -110.667 60.5 -150s96.5 -59 168.5 -59c98.667 0 180.667 36.5 246 109.5s98 167.167 98 282.5v100z" />
    <glyph glyph-name="b" unicode="b" horiz-adv-x="1147" 
d="M260 182h-4.00098v-182h-92v1516h92v-703h4c36.667 75.333 89.167 133.5 157.5 174.5s143.5 61.5 225.5 61.5c130 0 231.5 -44.833 304.5 -134.5s109.5 -211.5 109.5 -365.5c0 -171.333 -42.333 -309.833 -127 -415.5s-194.667 -158.5 -330 -158.5
c-153.333 0 -266.666 69 -339.999 207zM255.999 563l-0.000976562 -128.999c0 -102.667 32.333 -190.834 97 -264.501s149.667 -110.5 255 -110.5c104.667 0 189.667 44.833 255 134.5s98 207.5 98 353.5c0 128 -30 229.667 -90 305s-140 113 -240 113
c-119.333 0 -211.666 -40 -276.999 -120s-98 -174 -98 -282z" />
    <glyph glyph-name="c" unicode="c" horiz-adv-x="909" 
d="M827 45c-76 -46.667 -166.669 -70.002 -272.002 -70.002c-139.333 0 -251.666 47.833 -336.999 143.5s-128 220.834 -128 375.501c0 162.667 48 295.834 144 399.501s219.333 155.5 370 155.5c78 0 153.667 -16 227 -48v-104c-73.333 45.333 -153.666 68 -240.999 68
c-120 0 -217.333 -43.167 -292 -129.5s-112 -198.166 -112 -335.499c0 -132.667 34.167 -239.334 102.5 -320.001s158.5 -121 270.5 -121c102.667 0 192 27.333 268 82v-96z" />
    <glyph glyph-name="d" unicode="d" horiz-adv-x="1147" 
d="M891 0v186.001h-4c-33.333 -64.667 -82.666 -116 -147.999 -154s-139 -57 -221 -57c-126 0 -228.833 46 -308.5 138s-119.5 219 -119.5 381c0 165.333 43.5 299.166 130.5 401.499s199.833 153.5 338.5 153.5c153.333 0 262.666 -63 327.999 -189h4v656h92v-1516h-92z
M891 623.001c0 95.333 -30.167 176.167 -90.5 242.5s-141.5 99.5 -243.5 99.5c-107.333 0 -196 -41.167 -266 -123.5s-105 -195.5 -105 -339.5c0 -141.333 31.5 -250.5 94.5 -327.5s144.167 -115.5 243.5 -115.5c116.667 0 207 36.167 271 108.5s96 160.5 96 264.5v191z" />
    <glyph glyph-name="e" unicode="e" horiz-adv-x="1034" 
d="M186 508c0 -140.667 32.5 -250.667 97.5 -330s154.167 -119 267.5 -119c114.667 0 226.667 42.333 336 127v-98c-106 -75.333 -224.333 -113 -355 -113c-132 0 -238.667 47.333 -320 142s-122 228.334 -122 401.001c0 149.333 42.5 275.166 127.5 377.499
s195.5 153.5 331.5 153.5c127.333 0 225 -44.667 293 -134s102 -211.333 102 -366v-41h-758zM848 592c-4 118 -32.332 209.667 -84.999 275s-125.334 98 -218.001 98c-96 0 -175.5 -32.167 -238.5 -96.5s-101.833 -156.5 -116.5 -276.5h658z" />
    <glyph glyph-name="f" unicode="f" horiz-adv-x="565" 
d="M612 1419c-24.667 19.333 -61.999 29 -111.999 29c-126 0 -189 -84.667 -189 -254v-170h271v-84h-271v-940h-92v940h-184v84h184v178c0 108 27.167 190 81.5 246s122.166 84 203.499 84c43.333 0 79.333 -6.33301 108 -19v-94z" />
    <glyph glyph-name="g" unicode="g" horiz-adv-x="1147" 
d="M983 76c0 -192.667 -41.999 -333.665 -125.999 -422.998s-214.667 -134 -392 -134c-98.667 0 -200.334 26 -305.001 78v96c108 -60 210.333 -90 307 -90c282.667 0 424 149.333 424 448v133h-4c-80.667 -139.333 -203.667 -209 -369 -209
c-126 0 -228.833 45.667 -308.5 137s-119.5 218.666 -119.5 381.999s43 296.666 129 399.999s199.333 155 340 155c150.667 0 260 -62.333 328 -187h4v162h92v-948zM891.001 631.002c0 90.667 -30.499 169.001 -91.499 235.001s-140.5 99 -238.5 99
c-112.667 0 -203.334 -42.333 -272.001 -127s-103 -196.667 -103 -336c0 -140 31.5 -248.833 94.5 -326.5s146.167 -116.5 249.5 -116.5c110 0 197.667 35.667 263 107s98 158.666 98 261.999v203z" />
    <glyph glyph-name="h" unicode="h" horiz-adv-x="1096" 
d="M860 0v614c0 121.333 -22 210.166 -66 266.499s-112.667 84.5 -206 84.5c-88 0 -165.333 -34.333 -232 -103s-100 -167 -100 -295v-567h-92v1516h92v-676h4c80.667 139.333 198 209 352 209c110.667 0 195 -35.667 253 -107s87 -173.666 87 -306.999v-635h-92z" />
    <glyph glyph-name="i" unicode="i" horiz-adv-x="420" 
d="M209 1282c-20 0 -37.6689 7.33105 -53.002 21.998s-23 33.334 -23 56.001c0 22 7.83301 39.833 23.5 53.5s33.167 20.5 52.5 20.5c20.667 0 38.834 -6.66699 54.501 -20s23.5 -31.333 23.5 -54c0 -21.333 -7.66699 -39.666 -23 -54.999s-33.666 -23 -54.999 -23z
M163.998 -0.00195312v1024h92v-1024h-92z" />
    <glyph glyph-name="j" unicode="j" horiz-adv-x="420" 
d="M209 1282c-20 0 -37.6689 7.33105 -53.002 21.998s-23 33.334 -23 56.001c0 22 7.83301 39.833 23.5 53.5s33.167 20.5 52.5 20.5c20.667 0 38.834 -6.66699 54.501 -20s23.5 -31.333 23.5 -54c0 -21.333 -7.66699 -39.666 -23 -54.999s-33.666 -23 -54.999 -23z
M255.998 28.998c0 -340 -120.667 -510 -362 -510c-48 0 -96.667 11.667 -146 35v96c53.333 -31.333 105.333 -47 156 -47c173.333 0 260 136.333 260 409v1012h92v-995z" />
    <glyph glyph-name="k" unicode="k" horiz-adv-x="909" 
d="M750 0l-490 506h-4v-506h-92v1516h92v-977h4l465 485h119l-486 -496l525 -528h-133z" />
    <glyph glyph-name="l" unicode="l" horiz-adv-x="420" 
d="M164 0v1516h92v-1516h-92z" />
    <glyph glyph-name="m" unicode="m" horiz-adv-x="1683" 
d="M1448 0v616.001c0 128.667 -20.167 219 -60.5 271s-104.166 78 -191.499 78c-80.667 0 -150.334 -34.667 -209.001 -104s-88 -156.333 -88 -261v-600h-92v623c0 228 -86.667 342 -260 342c-83.333 0 -152.666 -34.833 -207.999 -104.5s-83 -159.834 -83 -270.501v-590
h-92v1024h92v-170h4c71.333 130 175.666 195 312.999 195c74.667 0 138.5 -21.5 191.5 -64.5s88.833 -99.5 107.5 -169.5c32 74 77.833 131.5 137.5 172.5s124.5 61.5 194.5 61.5c224 0 336 -138.667 336 -416v-633h-92z" />
    <glyph glyph-name="n" unicode="n" horiz-adv-x="1096" 
d="M860 0l-0.00195312 596.001c0 246 -88.667 369 -266 369c-98.667 0 -179.667 -36.167 -243 -108.5s-95 -161.833 -95 -268.5v-588h-92v1024h92v-186h4c74.667 140.667 191.334 211 350.001 211c110.667 0 195.334 -36.833 254.001 -110.5s88 -178.834 88 -315.501v-623
h-92z" />
    <glyph glyph-name="o" unicode="o" horiz-adv-x="1149" 
d="M575 -25c-149.333 0 -267.5 49.168 -354.5 147.501s-130.5 226.166 -130.5 383.499c0 170 45.5 303 136.5 399s210.833 144 359.5 144c146 0 261.333 -47.667 346 -143s127 -227.333 127 -396c0 -159.333 -43.167 -288.333 -129.5 -387s-204.5 -148 -354.5 -148z
M582 965.001c-120.667 0 -216.834 -40.667 -288.501 -122s-107.5 -194.333 -107.5 -339c0 -134 35 -241.667 105 -323s165.667 -122 287 -122c123.333 0 218.333 40 285 120s100 191 100 333c0 146 -33.167 258 -99.5 336s-160.166 117 -281.499 117z" />
    <glyph glyph-name="p" unicode="p" horiz-adv-x="1147" 
d="M260 182h-4.00098v-653h-92v1495h92v-211h4c36.667 75.333 89.167 133.5 157.5 174.5s143.5 61.5 225.5 61.5c130 0 231.5 -44.833 304.5 -134.5s109.5 -211.5 109.5 -365.5c0 -171.333 -41.833 -309.833 -125.5 -415.5s-194.167 -158.5 -331.5 -158.5
c-153.333 0 -266.666 69 -339.999 207zM255.999 563l-0.000976562 -128.999c0 -102.667 32.333 -190.834 97 -264.501s149.667 -110.5 255 -110.5c104.667 0 189.667 44.833 255 134.5s98 207.5 98 353.5c0 128 -30 229.667 -90 305s-140 113 -240 113
c-119.333 0 -211.666 -40 -276.999 -120s-98 -174 -98 -282z" />
    <glyph glyph-name="q" unicode="q" horiz-adv-x="1147" 
d="M891 -471l-0.00195312 659h-4c-76 -142 -199.667 -213 -371 -213c-128 0 -231 47 -309 141s-117 220.667 -117 380c0 170 44.333 304.667 133 404s201.334 149 338.001 149c152.667 0 261.334 -63.667 326.001 -191h4v166h92v-1495h-92zM890.998 614
c0 102 -29.666 186 -88.999 252s-141.666 99 -246.999 99c-106 0 -194 -40.833 -264 -122.5s-105 -195.834 -105 -342.501c0 -137.333 31.167 -245.166 93.5 -323.499s143.166 -117.5 242.499 -117.5c119.333 0 210.666 36.667 273.999 110s95 163 95 269v176z" />
    <glyph glyph-name="r" unicode="r" horiz-adv-x="676" 
d="M647 928c-30.667 22 -66.667 32.999 -108 32.999c-80.667 0 -148.334 -41.667 -203.001 -125s-82 -201.666 -82 -354.999v-481h-90v1024h90v-227h4c23.333 78 60.333 138.667 111 182s109.334 65 176.001 65c38 0 72 -6 102 -18v-98z" />
    <glyph glyph-name="s" unicode="s" horiz-adv-x="795" 
d="M111 45l-0.00195312 110.999c34.667 -30 76.667 -53.667 126 -71s92 -26 128 -26c160.667 0 241 65.667 241 197c0 45.333 -17.667 84 -53 116s-92.666 65 -171.999 99c-98 42.667 -166.833 86.834 -206.5 132.501s-59.5 101.167 -59.5 166.5
c0 83.333 31.833 150.666 95.5 201.999s142.167 77 235.5 77c88 0 163.333 -18 226 -54v-104c-76 49.333 -154.667 74 -236 74c-67.333 0 -121.666 -17.5 -162.999 -52.5s-62 -80.5 -62 -136.5c0 -48.667 13 -88.167 39 -118.5s83.333 -65.166 172 -104.499
c106.667 -48 180 -92.5 220 -133.5s60 -95.5 60 -163.5c0 -81.333 -30.5 -148.5 -91.5 -201.5s-145.167 -79.5 -252.5 -79.5c-98.667 0 -181 23.333 -247 70z" />
    <glyph glyph-name="t" unicode="t" horiz-adv-x="608" 
d="M569 14c-48 -22.667 -92.999 -33.999 -134.999 -33.999c-151.333 0 -227 90.667 -227 272v688h-184v84h184v266l46 16c16 4.66699 31.333 9.66699 46 15v-297h270v-84h-270v-676c0 -70.667 11.167 -121.834 33.5 -153.501s60.166 -47.5 113.499 -47.5
c38 0 79 12.333 123 37v-86z" />
    <glyph glyph-name="u" unicode="u" horiz-adv-x="1096" 
d="M840 0v186.001h-4c-71.333 -140.667 -181.333 -211 -330 -211c-242 0 -363 152.333 -363 457v592h93v-569c0 -138.667 22.833 -239.334 68.5 -302.001s117.5 -94 215.5 -94c95.333 0 172.5 35 231.5 105s88.5 163.333 88.5 280v580h92v-1024h-92z" />
    <glyph glyph-name="v" unicode="v" horiz-adv-x="928" 
d="M500 0h-84.001l-396 1024h103l305 -815c14.667 -39.333 25 -75 31 -107h4c8.66699 42 18.334 76.333 29.001 103l315 819h100z" />
    <glyph glyph-name="w" unicode="w" horiz-adv-x="1386" 
d="M1032 0h-85.999l-223 772c-6 21.333 -11.333 50 -16 86h-5c-1.33301 -15.333 -8 -43.333 -20 -84l-250 -774h-86l-309 1024h102l238 -817c6 -21.333 10.667 -50 14 -86h8c1.33301 19.333 7.66602 48 18.999 86l260 817h63l232 -817c5.33301 -19.333 10 -48 14 -86h8
c0 19.333 5.66699 48 17 86l243 817h95z" />
    <glyph glyph-name="x" unicode="x" horiz-adv-x="862" 
d="M481 502l334.001 -502.001h-117l-270 432h-4l-36 -57c-4.66699 -8 -10.334 -17 -17.001 -27l-226 -348h-112l342 500l-336 524h108l228 -367c29.333 -47.333 47 -76.666 53 -87.999h4l51 84l238 371h108z" />
    <glyph glyph-name="y" unicode="y" horiz-adv-x="928" 
d="M414 -209c-37.333 -92 -78.6689 -160.333 -124.002 -205s-103.666 -67 -174.999 -67c-30 0 -56.667 4.66699 -80 14v92c24 -9.33301 52 -14 84 -14c82 0 146.667 56.667 194 170l95 227l-388 1016h103l309 -834c6.66699 -18 11.334 -31.667 14.001 -41
c2.66699 -12.667 5.66699 -24 9 -34h4l24 69l330 840h100z" />
    <glyph glyph-name="z" unicode="z" horiz-adv-x="950" 
d="M207 84h661v-84h-811v35l680 905h-631v84h787v-25z" />
    <glyph glyph-name="braceleft" unicode="{" horiz-adv-x="578" 
d="M506 -326c-84.667 3.33301 -148.5 27.3359 -191.5 72.0029s-64.5 117.667 -64.5 219v297c0 158 -52 244.667 -156 260v64c104 14.667 156 95.667 156 243v314c0 101.333 21.5 174.333 64.5 219s106.833 68.667 191.5 72v-84c-58.667 -3.33301 -100 -22.333 -124 -57
s-36 -94.334 -36 -179.001v-293c0 -148 -48.333 -236.667 -145 -266v-4c96.667 -30.667 145 -124.334 145 -281.001v-276c0 -84.667 12 -144.334 36 -179.001s65.333 -53.667 124 -57v-84z" />
    <glyph glyph-name="bar" unicode="|" horiz-adv-x="463" 
d="M184 -481v2048h95v-2048h-95z" />
    <glyph glyph-name="braceright" unicode="}" horiz-adv-x="578" 
d="M483 522c-103.333 -15.333 -155 -102.003 -155 -260.003v-297c0 -102 -21.5 -175.167 -64.5 -219.5s-106.833 -68.166 -191.5 -71.499v84c54.667 3.33301 94.834 21 120.501 53s38.5 93 38.5 183v276c0 156.667 48.667 250.334 146 281.001v4
c-97.333 30 -146 118.667 -146 266v293c0 90 -12.833 151 -38.5 183s-65.834 49.667 -120.501 53v84c84.667 -3.33301 148.5 -27.166 191.5 -71.499s64.5 -117.5 64.5 -219.5v-314c0 -147.333 51.667 -228.333 155 -243v-64z" />
    <glyph glyph-name="asciitilde" unicode="~" horiz-adv-x="1331" 
d="M1087 711c-4.66699 -76 -27.5 -135.332 -68.5 -177.999s-95.833 -64 -164.5 -64c-63.333 0 -130.333 28 -201 84c-70 56 -128.667 84 -176 84c-94 0 -145 -52.667 -153 -158h-78c4 75.333 26.667 134.5 68 177.5s96.333 64.5 165 64.5c63.333 0 128.333 -26.667 195 -80
c46.667 -36.667 81.667 -60.834 105 -72.501s49.666 -17.5 78.999 -17.5c88.667 0 139.334 53.333 152.001 160h77z" />
    <glyph glyph-name="currency" unicode="&#xa4;" horiz-adv-x="1139" 
d="M946 293l-135 135c-70 -57.333 -150.667 -86 -242 -86c-93.333 0 -173.666 28.667 -240.999 86l-135 -135l-60 61l137 131c-56 77.333 -84 157.333 -84 240c0 93.333 28 173.333 84 240l-137 133l60 61l135 -135c75.333 56 155.666 84 240.999 84
c91.333 0 171.333 -28 240 -84l137 135l60 -61l-138 -133c56 -67.333 84 -147.333 84 -240c0 -88 -28 -168 -84 -240l138 -131zM571 1024c-85.333 0 -156.833 -29.332 -214.5 -87.999s-86.5 -128.334 -86.5 -209.001s29.833 -151 89.5 -211s129.5 -90 209.5 -90
c81.333 0 151.5 29.667 210.5 89s88.5 130 88.5 212c0 84 -30 154.5 -90 211.5s-129 85.5 -207 85.5z" />
    <glyph glyph-name="brokenbar" unicode="&#xa6;" horiz-adv-x="463" 
d="M184 715v852h95v-852h-95zM184 -481v852h95v-852h-95z" />
    <glyph glyph-name="section" unicode="&#xa7;" horiz-adv-x="918" 
d="M618 403c63.333 -47.333 94.9971 -113.999 94.9971 -199.999c0 -76 -29.667 -139.833 -89 -191.5s-136.333 -77.5 -231 -77.5c-71.333 0 -143.666 16.667 -216.999 50v98c78.667 -42.667 151.667 -64 219 -64c72.667 0 127.667 16.833 165 50.5s56 77.834 56 132.501
c0 36 -10.167 70 -30.5 102s-67.166 65.667 -140.499 101c-118 56 -194 109.5 -228 160.5s-51 108.5 -51 172.5c0 114.667 54 200 162 256c-82 55.333 -123 128.333 -123 219c0 83.333 27.333 150.666 82 201.999s130.334 77 227.001 77c73.333 0 138.333 -12.333 195 -37
v-96c-57.333 32.667 -123 49 -197 49c-140.667 0 -211 -62.667 -211 -188c0 -53.333 18.5 -97.333 55.5 -132s107.833 -75.334 212.5 -122.001c135.333 -62.667 203 -155.667 203 -279c0 -108 -51.333 -202.333 -154 -283zM405.997 946.001
c-96 -43.333 -144 -110.999 -144 -202.999c0 -65.333 19.667 -117.166 59 -155.499s114 -81.833 224 -130.5c46 34 79.333 67.333 100 100s31 75.667 31 129c0 51.333 -16 94.666 -48 129.999s-106 78.666 -222 129.999z" />
    <glyph glyph-name="dieresis" unicode="&#xa8;" horiz-adv-x="817" 
d="M575 1188c-18 0 -34.332 6.5 -48.999 19.5s-22 30.5 -22 52.5c0 20.667 7.16699 37.334 21.5 50.001s30.166 19 47.499 19c19.333 0 36.833 -6.5 52.5 -19.5s23.5 -29.5 23.5 -49.5c0 -20.667 -7.16699 -37.834 -21.5 -51.501s-31.833 -20.5 -52.5 -20.5zM242.001 1188
c-18.667 0 -35.332 6.5 -49.999 19.5s-22 30.5 -22 52.5c0 20.667 7.33301 37.334 22 50.001s30.667 19 48 19c19.333 0 36.666 -6.5 51.999 -19.5s23 -29.5 23 -49.5c0 -20.667 -7 -37.834 -21 -51.501s-31.333 -20.5 -52 -20.5z" />
    <glyph glyph-name="copyright" unicode="&#xa9;" horiz-adv-x="1804" 
d="M903 -25c-207.333 0 -383.667 72.168 -529 216.501s-218 318.833 -218 523.5c0 206.667 73.167 382.167 219.5 526.5s321.5 216.5 525.5 216.5c205.333 0 381.333 -72.333 528 -217s220 -319.334 220 -524.001c0 -205.333 -72.833 -380.333 -218.5 -525
s-321.5 -217 -527.5 -217zM900.999 1382c-181.333 0 -337.5 -65.333 -468.5 -196s-196.5 -287.667 -196.5 -471c0 -182 65 -338.167 195 -468.5s286.667 -195.5 470 -195.5c184.667 0 342.167 65.333 472.5 196s195.5 286.667 195.5 468c0 183.333 -65.5 340.333 -196.5 471
s-288.167 196 -471.5 196zM1182 270.001c-82 -47.333 -165.334 -71.001 -250.001 -71.001c-139.333 0 -256.833 47 -352.5 141s-143.5 210.667 -143.5 350c0 164 48.5 294.167 145.5 390.5s219.167 144.5 366.5 144.5c84.667 0 161.334 -18 230.001 -54v-86
c-70.667 38.667 -152.667 58 -246 58c-113.333 0 -209 -39.167 -287 -117.5s-117 -183.166 -117 -314.499c0 -128 40.5 -231.333 121.5 -310s178.5 -118 292.5 -118c86.667 0 166.667 22.333 240 67v-80z" />
    <glyph glyph-name="guillemotleft" unicode="&#xab;" horiz-adv-x="952" 
d="M717 201l-277 336l277 344h114l-282 -344l280 -336h-112zM399 201l-276 336l276 344h113l-281 -344l281 -336h-113z" />
    <glyph glyph-name="logicalnot" unicode="&#xac;" horiz-adv-x="1331" 
d="M1034 147v408h-821v84h907v-492h-86z" />
    <glyph glyph-name="uni00AD" unicode="&#xad;" horiz-adv-x="815" 
d="M145 555v90h547v-90h-547z" />
    <glyph glyph-name="registered" unicode="&#xae;" horiz-adv-x="1804" 
d="M897 255c-166.667 0 -308.501 58.333 -425.501 175s-175.5 257.667 -175.5 423c0 167.333 58.833 309.333 176.5 426s258.834 175 423.501 175c165.333 0 307 -58.5 425 -175.5s177 -257.833 177 -422.5c0 -166.667 -58.5 -308.5 -175.5 -425.5
s-258.833 -175.5 -425.5 -175.5zM892.999 1386c-144 0 -267.499 -52.167 -370.499 -156.5s-154.5 -229.833 -154.5 -376.5c0 -145.333 51.167 -270 153.5 -374s226.166 -156 371.499 -156c146.667 0 272.167 52 376.5 156s156.5 228.667 156.5 374
c0 146.667 -52.333 272.167 -157 376.5s-230 156.5 -376 156.5zM1087 482l-92 197c-26.667 57.333 -52.5 95.833 -77.5 115.5s-53.167 29.5 -84.5 29.5h-77v-342h-82v772h211c85.333 0 151 -18.5 197 -55.5s69 -86.167 69 -147.5c0 -118 -67.333 -189.333 -202 -214v-3
c45.333 -9.33301 88 -56 128 -140l102 -212h-92zM756 1191v-303.001h139c52 0 93.667 13.333 125 40s47 63.334 47 110.001c0 102 -63.667 153 -191 153h-120z" />
    <glyph glyph-name="degree" unicode="&#xb0;" horiz-adv-x="791" 
d="M397 930c-69.333 0 -129 25 -179 75s-75 109.667 -75 179c0 68 24.5 126.667 73.5 176s107.833 74 176.5 74c70 0 129.833 -24.5 179.5 -73.5s74.5 -107.833 74.5 -176.5c0 -70 -24.5 -129.833 -73.5 -179.5s-107.833 -74.5 -176.5 -74.5zM397 1358
c-47.333 0 -87.833 -17.167 -121.5 -51.5s-50.5 -75.166 -50.5 -122.499c0 -48.667 16.5 -90.5 49.5 -125.5s72.5 -52.5 118.5 -52.5c46.667 0 86.667 17.5 120 52.5s50 76.833 50 125.5c0 49.333 -16 90.666 -48 123.999s-71.333 50 -118 50z" />
    <glyph glyph-name="plusminus" unicode="&#xb1;" horiz-adv-x="1331" 
d="M709 633v-412h-84v412h-412v84h412v411h84v-411h411v-84h-411zM213 0v84h907v-84h-907z" />
    <glyph glyph-name="acute" unicode="&#xb4;" horiz-adv-x="508" 
d="M227 1188h-90l234 328h104z" />
    <glyph glyph-name="uni00B5" unicode="&#xb5;" horiz-adv-x="1116" 
d="M860 0v186h-4c-70 -140.667 -180 -211 -330 -211c-117.333 0 -204.666 41 -261.999 123h-8v-489h-92v1415h92v-569c0 -140 23.167 -241 69.5 -303s118.166 -93 215.499 -93c96 0 173.167 35.167 231.5 105.5s87.5 163.5 87.5 279.5v580h92v-1024h-92z" />
    <glyph glyph-name="paragraph" unicode="&#xb6;" horiz-adv-x="971" 
d="M733 1348v-1348h-86v1348h-198v-1348h-87v903c-70 0 -129 25.333 -177 76s-72 113.334 -72 188.001c0 80.667 25.167 145.334 75.5 194.001s110.5 73 180.5 73h495v-86h-131z" />
    <glyph glyph-name="guillemotright" unicode="&#xbb;" horiz-adv-x="952" 
d="M553 201h-113l283 344l-283 336h113l278 -336zM238 201h-117l285 344l-285 336h115l276 -336z" />
    <glyph glyph-name="dotlessi" unicode="&#x131;" horiz-adv-x="420" 
d="M164 0v1024h92v-1024h-92z" />
    <glyph glyph-name="afii10023" unicode="&#x401;" horiz-adv-x="1024" 
d="M184 0v1434h670v-91h-571v-575h530v-90h-530v-588h604v-90h-703zM714 1536c-18 0 -34.332 6.5 -48.999 19.5s-22 30.5 -22 52.5c0 20.667 7.16699 37.334 21.5 50.001s30.166 19 47.499 19c19.333 0 36.833 -6.5 52.5 -19.5s23.5 -29.5 23.5 -49.5
c0 -20.667 -7.16699 -37.834 -21.5 -51.501s-31.833 -20.5 -52.5 -20.5zM381.001 1536c-18.667 0 -35.332 6.5 -49.999 19.5s-22 30.5 -22 52.5c0 20.667 7.33301 37.334 22 50.001s30.667 19 48 19c19.333 0 36.666 -6.5 51.999 -19.5s23 -29.5 23 -49.5
c0 -20.667 -7 -37.834 -21 -51.501s-31.333 -20.5 -52 -20.5z" />
    <glyph glyph-name="afii10051" unicode="&#x402;" horiz-adv-x="1409" 
d="M1286 375c0 -53.333 -7.49707 -104.165 -22.4971 -152.498s-37.833 -90.833 -68.5 -127.5s-69.834 -65.834 -117.501 -87.501s-103.834 -32.5 -168.501 -32.5c-30 0 -59.167 2.66699 -87.5 8s-52.166 11 -71.499 17v100c20.667 -8 45.334 -15.333 74.001 -22
s57 -10 85 -10c48 0 89.167 8.5 123.5 25.5s62.5 39.667 84.5 68s38 60.833 48 97.5s15 74.667 15 114c0 49.333 -7.83301 94.666 -23.5 135.999s-38.834 76.833 -69.501 106.5s-68.834 52.667 -114.501 69s-98.834 24.5 -159.501 24.5h-281v-709h-98v1343h-373v91h926v-91
h-455v-544h295c66 0 127.167 -8.5 183.5 -25.5s104.833 -43 145.5 -78s72.5 -79.167 95.5 -132.5s34.5 -116 34.5 -188z" />
    <glyph glyph-name="afii10052" unicode="&#x403;" horiz-adv-x="889" 
d="M283 1343v-1343h-99v1434h674v-91h-575zM524 1556h-90l234 328h104z" />
    <glyph glyph-name="afii10053" unicode="&#x404;" horiz-adv-x="1272" 
d="M774 -25c-98.667 0 -188.83 17.332 -270.497 51.999s-151.667 83.167 -210 145.5s-103.666 137.333 -135.999 225s-48.5 184.5 -48.5 290.5c0 124 19 233.833 57 329.5s89.333 176.167 154 241.5s140.167 114.833 226.5 148.5s177.833 50.5 274.5 50.5
c74 0 136.167 -5.66699 186.5 -17s93.5 -23.333 129.5 -36v-105c-41.333 18.667 -87.5 34.667 -138.5 48s-110.833 20 -179.5 20c-82 0 -158.333 -13.5 -229 -40.5s-132.834 -66.333 -186.501 -118s-97.167 -114.834 -130.5 -189.501s-53.333 -160 -60 -256h702v-92h-704
c2.66699 -104 20.5 -194 53.5 -270s76 -139 129 -189s113.167 -87 180.5 -111s136.666 -36 207.999 -36c75.333 0 142.833 7.5 202.5 22.5s110.5 33.167 152.5 54.5v-96c-18 -7.33301 -38.833 -15.166 -62.5 -23.499s-50.334 -16.166 -80.001 -23.499
s-62.834 -13.333 -99.501 -18s-77 -7 -121 -7z" />
    <glyph glyph-name="afii10054" unicode="&#x405;" horiz-adv-x="1018" 
d="M139 51l-0.000976562 113c102.667 -65.333 206.667 -98 312 -98c112 0 197 23.167 255 69.5s87 111.166 87 194.499c0 73.333 -19.5 131.833 -58.5 175.5s-123.5 103.167 -253.5 178.5c-145.333 84.667 -237.333 155.5 -276 212.5s-58 122.833 -58 197.5
c0 101.333 39.333 187.333 118 258s183.667 106 315 106c85.333 0 170.666 -14.333 255.999 -43v-104c-84 38 -173.667 57 -269 57c-97.333 0 -174.5 -24.667 -231.5 -74s-85.5 -112 -85.5 -188c0 -73.333 19.5 -131.666 58.5 -174.999s123.167 -102.333 252.5 -177
c134 -76 223.167 -143.5 267.5 -202.5s66.5 -126.833 66.5 -203.5c0 -110 -38.167 -199.667 -114.5 -269s-184.166 -104 -323.499 -104c-49.333 0 -106.166 7.66699 -170.499 23s-113.5 33 -147.5 53z" />
    <glyph glyph-name="afii10055" unicode="&#x406;" horiz-adv-x="467" 
d="M184 0v1434h99v-1434h-99z" />
    <glyph glyph-name="afii10056" unicode="&#x407;" horiz-adv-x="467" 
d="M184 0v1434h99v-1434h-99zM397 1536c-18 0 -34.332 6.5 -48.999 19.5s-22 30.5 -22 52.5c0 20.667 7.16699 37.334 21.5 50.001s30.166 19 47.499 19c19.333 0 36.833 -6.5 52.5 -19.5s23.5 -29.5 23.5 -49.5c0 -20.667 -7.16699 -37.834 -21.5 -51.501
s-31.833 -20.5 -52.5 -20.5zM64.001 1536c-18.667 0 -35.332 6.5 -49.999 19.5s-22 30.5 -22 52.5c0 20.667 7.33301 37.334 22 50.001s30.667 19 48 19c19.333 0 36.666 -6.5 51.999 -19.5s23 -29.5 23 -49.5c0 -20.667 -7 -37.834 -21 -51.501s-31.333 -20.5 -52 -20.5z
" />
    <glyph glyph-name="afii10057" unicode="&#x408;" horiz-adv-x="664" 
d="M487 494c0 -346 -120.001 -519 -360.001 -519c-37.333 0 -73.666 5 -108.999 15v96c39.333 -13.333 76.333 -20 111 -20c92 0 158.333 34.833 199 104.5s61 178.167 61 325.5v938h98v-940z" />
    <glyph glyph-name="afii10058" unicode="&#x409;" horiz-adv-x="1995" 
d="M1042 0l-0.00292969 1341h-454c-11.333 -88.667 -23.666 -180.334 -36.999 -275.001s-27 -186 -41 -274l-40.5 -245c-13 -75.333 -24.833 -137.666 -35.5 -186.999c-11.333 -52 -25 -100.833 -41 -146.5s-36 -85.667 -60 -120s-52.833 -61.5 -86.5 -81.5
s-73.5 -30 -119.5 -30c-21.333 0 -39.666 1.33301 -54.999 4s-29 6 -41 10v100c26.667 -13.333 57.334 -20 92.001 -20c30 0 56.333 7.66699 79 23s42.5 37.333 59.5 66s32 63.5 45 104.5s25.167 87.167 36.5 138.5c7.33301 32 15.166 70.333 23.499 115l27 148.5
c9.66699 54.333 19.334 112.333 29.001 174l29 190.5l28.5 199c9.33301 67.333 18 133.666 26 198.999h635v-637h325c56.667 0 109.5 -7.16699 158.5 -21.5s91.5 -36.833 127.5 -67.5s64.333 -70.167 85 -118.5s31 -106.833 31 -175.5c0 -56.667 -9.33301 -110 -28 -160
s-46.167 -93.833 -82.5 -131.5s-81.333 -67.5 -135 -89.5s-115.167 -33 -184.5 -33h-396zM1765 406.001c0 54 -7.66699 100 -23 138s-38 69 -68 93s-67 41.667 -111 53s-94.667 17 -152 17h-270v-617h276c61.333 0 114 8 158 24s80 38 108 66s48.667 61.333 62 100
s20 80.667 20 126z" />
    <glyph glyph-name="afii10059" unicode="&#x40a;" horiz-adv-x="2056" 
d="M1929 414c0 -56.667 -9.33398 -110 -28.001 -160s-46.167 -93.833 -82.5 -131.5s-81.166 -67.5 -134.499 -89.5s-115 -33 -185 -33h-395v707h-821v-707h-99v1434h99v-637h821v637h98v-637h326c56 0 108.5 -7.16699 157.5 -21.5s91.5 -36.833 127.5 -67.5
s64.333 -70.167 85 -118.5s31 -106.833 31 -175.5zM1827 406c0 54 -7.66699 100 -23 138s-38 69 -68 93s-67 41.667 -111 53s-94.667 17 -152 17h-271v-617h277c61.333 0 114 8 158 24s80 38 108 66s48.667 61.333 62 100s20 80.667 20 126z" />
    <glyph glyph-name="afii10060" unicode="&#x40b;" horiz-adv-x="1421" 
d="M1190 0l0.000976562 383c0 54 -5.83301 102.5 -17.5 145.5s-30.167 79.333 -55.5 109s-58.333 52.334 -99 68.001s-90 23.5 -148 23.5h-297v-729h-98v1343h-414v91h926v-91h-414v-524h301c64.667 0 122.667 -8 174 -24s94.666 -41.333 129.999 -76
s62.5 -79.334 81.5 -134.001s28.5 -120.667 28.5 -198v-387h-98z" />
    <glyph glyph-name="afii10061" unicode="&#x40c;" horiz-adv-x="1079" 
d="M922 0l-611 686c-11.333 12.667 -19.333 23.667 -24 33h-4v-719h-99v1434h99v-676h4c8 14 16.667 25.667 26 35l580 641h129l-629 -695l668 -739h-139zM598 1556h-90l234 328h104z" />
    <glyph glyph-name="afii10062" unicode="&#x40e;" horiz-adv-x="1098" 
d="M631 377c-25.333 -59.333 -51.665 -113.667 -78.998 -163s-57.333 -91.666 -90 -126.999s-68.834 -62.833 -108.501 -82.5s-84.5 -29.5 -134.5 -29.5c-28.667 0 -55.5 2.83301 -80.5 8.5s-46.167 12.5 -63.5 20.5v107c21.333 -12.667 45.333 -23 72 -31
s50.667 -12 72 -12c38.667 0 72.5 7.5 101.5 22.5s55.667 36.333 80 64s47.166 61.167 68.499 100.5s43.333 83.333 66 132l-474 1047h111l358 -811c4 -8 8.33301 -17.333 13 -28l14.5 -34l15 -36l13.5 -33h4c8 22.667 16.667 44.167 26 64.5s17 38.166 23 53.499l344 824
h104zM575.001 1586c38.667 0 73.5 5.66699 104.5 17s57.667 26.666 80 45.999s40 41.666 53 66.999s21.167 51.666 24.5 78.999h98c-6.66699 -36 -19.167 -71.167 -37.5 -105.5s-42.5 -64.833 -72.5 -91.5s-66 -48 -108 -64s-89.667 -24 -143 -24s-100 8 -140 24
s-73.667 37.333 -101 64s-49.166 57.167 -65.499 91.5s-27.833 69.5 -34.5 105.5h98c3.33301 -27.333 10.666 -53.666 21.999 -78.999s27 -47.666 47 -66.999s44.333 -34.666 73 -45.999s62 -17 100 -17h2z" />
    <glyph glyph-name="afii10145" unicode="&#x40f;" horiz-adv-x="1386" 
d="M738 0v-384h-96v384h-458v1434h99v-1344h821v1344h98v-1434h-464z" />
    <glyph glyph-name="afii10017" unicode="&#x410;" horiz-adv-x="1288" 
d="M1118 0l-164 446h-622l-164 -446h-109l541 1434h94l535 -1434h-111zM678 1200c-7.33301 20 -13.333 39.666 -18 58.999c-4.66699 16.667 -9.66699 33.334 -15 50.001h-4c-11.333 -44 -22.333 -79.667 -33 -107l-241 -665h553z" />
    <glyph glyph-name="afii10018" unicode="&#x411;" horiz-adv-x="1102" 
d="M1010 414c0 -56.667 -9.33301 -110 -28 -160s-46.167 -93.833 -82.5 -131.5s-81.333 -67.5 -135 -89.5s-115.167 -33 -184.5 -33h-396v1434h721v-91h-622v-546h325c56.667 0 109.5 -7.16699 158.5 -21.5s91.5 -36.833 127.5 -67.5s64.333 -70.167 85 -118.5
s31 -106.833 31 -175.5zM907 406c0 54 -7.66699 100 -23 138s-38 69 -68 93s-67 41.667 -111 53s-94.667 17 -152 17h-270v-617h276c61.333 0 114 8 158 24s80 38 108 66s48.667 61.333 62 100s20 80.667 20 126z" />
    <glyph glyph-name="afii10019" unicode="&#x412;" horiz-adv-x="1114" 
d="M184 0l-0.000976562 1434h377c112.667 0 202.334 -30.333 269.001 -91s100 -141 100 -241c0 -83.333 -22.167 -155.5 -66.5 -216.5s-106.166 -104.167 -185.499 -129.5v-4c99.333 -9.33301 177.666 -44.833 234.999 -106.5s86 -140.167 86 -235.5
c0 -120.667 -39 -219.167 -117 -295.5s-182.333 -114.5 -313 -114.5h-385zM282.999 1343v-554.999h200c104 0 187.333 26.667 250 80s94 125.666 94 216.999c0 172 -101.667 258 -305 258h-239zM282.999 698.001l-0.000976562 -608h266c112.667 0 198.834 27 258.501 81
s89.5 130.667 89.5 230c0 198 -134.333 297 -403 297h-211z" />
    <glyph glyph-name="afii10020" unicode="&#x413;" horiz-adv-x="889" 
d="M283 1343v-1343h-99v1434h674v-91h-575z" />
    <glyph glyph-name="afii10021" unicode="&#x414;" horiz-adv-x="1351" 
d="M1235 -384v384.001h-1115v-384h-100v474h116c49.333 96 96.333 200 141 312s84 226.667 118 344s61.5 234.666 82.5 351.999s32.5 229.333 34.5 336h618v-1344h201v-474h-96zM1032 1343l-428 0.000976562c-2 -56 -8 -116.833 -18 -182.5s-23 -134.334 -39 -206.001
s-34.667 -145 -56 -220s-45 -149.667 -71 -224s-53.833 -147 -83.5 -218s-60.5 -138.5 -92.5 -202.5h788v1253z" />
    <glyph glyph-name="afii10022" unicode="&#x415;" horiz-adv-x="1024" 
d="M184 0v1434h670v-91h-571v-575h530v-90h-530v-588h604v-90h-703z" />
    <glyph glyph-name="afii10024" unicode="&#x416;" horiz-adv-x="1692" 
d="M1534 0l-610.001 686c-3.33301 3.33301 -7.33301 7.83301 -12 13.5s-9 12.167 -13 19.5h-4v-719h-98v719h-4c-4.66699 -7.33301 -9.16699 -13.833 -13.5 -19.5s-8.16602 -10.167 -11.499 -13.5l-610 -686h-140l668 739l-629 695h129l580 -641
c3.33301 -3.33301 7.83301 -8.5 13.5 -15.5s10.167 -13.5 13.5 -19.5h4v676h98v-676h4c3.33301 6 7.83301 12.5 13.5 19.5s10.167 12.167 13.5 15.5l579 641h129l-628 -695l667 -739h-139z" />
    <glyph glyph-name="afii10025" unicode="&#x417;" horiz-adv-x="1104" 
d="M991 393c0 -54 -10.4971 -106.162 -31.4971 -156.495s-52.333 -94.833 -94 -133.5s-93.334 -69.667 -155.001 -93s-133.167 -35 -214.5 -35c-79.333 0 -150.333 9.16699 -213 27.5s-116 41.5 -160 69.5v106c27.333 -20.667 56.666 -38.5 87.999 -53.5
s63.333 -27.333 96 -37s65.167 -16.834 97.5 -21.501s63.5 -7 93.5 -7c66 0 123.833 8.66699 173.5 26s91 40.666 124 69.999s57.833 63.333 74.5 102s25 79.334 25 122.001c0 55.333 -10 103.333 -30 144s-49 74.167 -87 100.5s-84.333 46 -139 59s-116.667 19.5 -186 19.5
h-129v84h98c63.333 0 120.5 7.16699 171.5 21.5s94.5 35.166 130.5 62.499s63.667 60.5 83 99.5s29 83.167 29 132.5c0 38 -6.33301 73.667 -19 107s-31.667 62.166 -57 86.499s-57 43.5 -95 57.5s-82.333 21 -133 21c-61.333 0 -119.333 -9.33301 -174 -28
s-103.667 -44 -147 -76v98c22 12 44.833 23.333 68.5 34s49 20.167 76 28.5s55.833 15 86.5 20s63.667 7.5 99 7.5c62.667 0 118.334 -8.66699 167.001 -26s89.667 -41.166 123 -71.499s58.5 -66.333 75.5 -108s25.5 -86.5 25.5 -134.5
c0 -92.667 -25.333 -170.334 -76 -233.001s-123.667 -106.334 -219 -131.001v-4c59.333 -4 111.166 -17 155.499 -39s81.166 -49.5 110.499 -82.5s51.333 -69.833 66 -110.5s22 -82.334 22 -125.001z" />
    <glyph glyph-name="afii10026" unicode="&#x418;" horiz-adv-x="1452" 
d="M1169 0v1122v30.5v33.5c0 11.333 0.166992 22.5 0.5 33.5s0.833008 20.833 1.5 29.5h-4l-12.5 -20.5c-5 -8.33301 -10.333 -16.666 -16 -24.999l-17 -24.5c-5.66699 -8 -10.167 -14.667 -13.5 -20l-854 -1159h-70v1434h99v-1121c0 -16 -0.333008 -35.5 -1 -58.5
s-1.66699 -43.5 -3 -61.5h4c7.33301 12 17 27 29 45l32 47l848 1149h76v-1434h-99z" />
    <glyph glyph-name="afii10027" unicode="&#x419;" horiz-adv-x="1452" 
d="M1169 0v1122v30.5v33.5c0 11.333 0.166992 22.5 0.5 33.5s0.833008 20.833 1.5 29.5h-4l-12.5 -20.5c-5 -8.33301 -10.333 -16.666 -16 -24.999l-17 -24.5c-5.66699 -8 -10.167 -14.667 -13.5 -20l-854 -1159h-70v1434h99v-1121c0 -16 -0.333008 -35.5 -1 -58.5
s-1.66699 -43.5 -3 -61.5h4c7.33301 12 17 27 29 45l32 47l848 1149h76v-1434h-99zM724 1586c38.667 0 73.5 5.66699 104.5 17s57.667 26.666 80 45.999s40 41.666 53 66.999s21.167 51.666 24.5 78.999h98c-6.66699 -36 -19.167 -71.167 -37.5 -105.5
s-42.5 -64.833 -72.5 -91.5s-66 -48 -108 -64s-89.667 -24 -143 -24s-100 8 -140 24s-73.667 37.333 -101 64s-49.166 57.167 -65.499 91.5s-27.833 69.5 -34.5 105.5h98c3.33301 -27.333 10.666 -53.666 21.999 -78.999s27 -47.666 47 -66.999s44.333 -34.666 73 -45.999
s62 -17 100 -17h2z" />
    <glyph glyph-name="afii10028" unicode="&#x41a;" horiz-adv-x="1079" 
d="M922 0l-611 686c-11.333 12.667 -19.333 23.667 -24 33h-4v-719h-99v1434h99v-676h4c8 14 16.667 25.667 26 35l580 641h129l-629 -695l668 -739h-139z" />
    <glyph glyph-name="afii10029" unicode="&#x41b;" horiz-adv-x="1325" 
d="M1042 0l-0.00292969 1341h-454c-11.333 -88.667 -23.666 -180.334 -36.999 -275.001s-27 -186 -41 -274l-40.5 -245c-13 -75.333 -24.833 -137.666 -35.5 -186.999c-11.333 -52 -25 -100.833 -41 -146.5s-36 -85.667 -60 -120s-52.833 -61.5 -86.5 -81.5
s-73.5 -30 -119.5 -30c-21.333 0 -39.666 1.33301 -54.999 4s-29 6 -41 10v100c26.667 -13.333 57.334 -20 92.001 -20c30 0 56.333 7.66699 79 23s42.5 37.333 59.5 66s32 63.5 45 104.5s25.167 87.167 36.5 138.5c7.33301 32 15.166 70.333 23.499 115l27 148.5
c9.66699 54.333 19.334 112.333 29.001 174l29 190.5l28.5 199c9.33301 67.333 18 133.666 26 198.999h635v-1434h-99z" />
    <glyph glyph-name="afii10030" unicode="&#x41c;" horiz-adv-x="1706" 
d="M1427 0l0.000976562 1018c0 24.667 3.66699 95 11 211h-4c-20.667 -54 -38 -95.667 -52 -125l-510 -1104h-32l-512 1098c-16.667 35.333 -32.334 80.333 -47.001 135h-5c4.66699 -64 7 -127.667 7 -191v-1042h-99v1434h92l535 -1155c3.33301 -6.66699 7 -15.667 11 -27
s8.33301 -22.666 13 -33.999c6.66699 -17.333 13.667 -36.666 21 -57.999h6l11 32c0.666992 2.66699 12 34.334 34 95.001l527 1147h88v-1434h-95z" />
    <glyph glyph-name="afii10031" unicode="&#x41d;" horiz-adv-x="1386" 
d="M1104 0v688h-821v-688h-99v1434h99v-656h821v656h98v-1434h-98z" />
    <glyph glyph-name="afii10032" unicode="&#x41e;" horiz-adv-x="1559" 
d="M774 -25c-202.667 0 -364.167 67.332 -484.5 201.999s-180.5 309.667 -180.5 525c0 228.667 61.833 411.834 185.5 549.501s292.5 206.5 506.5 206.5c193.333 0 349.833 -66.167 469.5 -198.5s179.5 -305.833 179.5 -520.5c0 -237.333 -61.333 -424 -184 -560
s-286.667 -204 -492 -204zM784 1368c-166.667 0 -303.832 -60.335 -411.499 -181.002s-161.5 -278.667 -161.5 -474c0 -197.333 51 -354.5 153 -471.5s238 -175.5 408 -175.5c177.333 0 317.666 57.833 420.999 173.5s155 276.834 155 483.501
c0 202.667 -50.5 360.834 -151.5 474.501s-238.5 170.5 -412.5 170.5z" />
    <glyph glyph-name="afii10033" unicode="&#x41f;" horiz-adv-x="1386" 
d="M1104 0v1343h-821v-1343h-99v1434h1018v-1434h-98z" />
    <glyph glyph-name="afii10034" unicode="&#x420;" horiz-adv-x="1114" 
d="M283 575v-575.001h-99v1434h346c147.333 0 260 -34.167 338 -102.5s117 -168.166 117 -299.499c0 -133.333 -43.5 -242.833 -130.5 -328.5s-208.833 -128.5 -365.5 -128.5h-206zM283 1343l0.000976562 -677.001h204c129.333 0 227.666 30.833 294.999 92.5
s101 148.834 101 261.501c0 215.333 -123.667 323 -371 323h-229z" />
    <glyph glyph-name="afii10035" unicode="&#x421;" horiz-adv-x="1272" 
d="M1137 47c-116 -48 -237 -72 -363 -72c-196 0 -355.833 65.833 -479.5 197.5s-185.5 303.5 -185.5 515.5c0 232.667 67 419.167 201 559.5s304.333 210.5 511 210.5c110 0 215.333 -17.667 316 -53v-105c-100.667 45.333 -206.667 68 -318 68
c-180 0 -326.333 -61 -439 -183s-169 -284.333 -169 -487c0 -195.333 53.833 -349.5 161.5 -462.5s244.167 -169.5 409.5 -169.5c132 0 250.333 25.667 355 77v-96z" />
    <glyph glyph-name="afii10036" unicode="&#x422;" horiz-adv-x="1047" 
d="M573 1343v-1343h-98v1343h-414v91h926v-91h-414z" />
    <glyph glyph-name="afii10037" unicode="&#x423;" horiz-adv-x="1098" 
d="M631 377c-25.333 -59.333 -51.665 -113.667 -78.998 -163s-57.333 -91.666 -90 -126.999s-68.834 -62.833 -108.501 -82.5s-84.5 -29.5 -134.5 -29.5c-28.667 0 -55.5 2.83301 -80.5 8.5s-46.167 12.5 -63.5 20.5v107c21.333 -12.667 45.333 -23 72 -31
s50.667 -12 72 -12c38.667 0 72.5 7.5 101.5 22.5s55.667 36.333 80 64s47.166 61.167 68.499 100.5s43.333 83.333 66 132l-474 1047h111l358 -811c4 -8 8.33301 -17.333 13 -28l14.5 -34l15 -36l13.5 -33h4c8 22.667 16.667 44.167 26 64.5s17 38.166 23 53.499l344 824
h104z" />
    <glyph glyph-name="afii10038" unicode="&#x424;" horiz-adv-x="1442" 
d="M1339 756c0 -76 -12.667 -148 -38 -216s-61 -127.333 -107 -178s-101.5 -90.834 -166.5 -120.501s-137.167 -44.5 -216.5 -44.5h-41v-217h-98v217h-41c-79.333 0 -151.5 14.5 -216.5 43.5s-120.667 68.833 -167 119.5s-82.166 110 -107.499 178s-38 140.667 -38 218
c0 73.333 12.5 142.5 37.5 207.5s60.5 121.833 106.5 170.5s101.667 87.167 167 115.5s138.666 42.5 219.999 42.5h39v183h98v-183h39c80.667 0 153.667 -13.833 219 -41.5s121 -65.5 167 -113.5s81.5 -104.667 106.5 -170s37.5 -135.666 37.5 -210.999zM1235 754
c0 67.333 -10.5 128.665 -31.5 183.998s-50.333 102.5 -88 141.5s-82.5 69.167 -134.5 90.5s-109.333 32 -172 32h-39v-915h41c61.333 0 118 11 170 33s96.833 53.333 134.5 94s67 89.834 88 147.501s31.5 121.834 31.5 192.501zM672 1202l-39 0.000976562
c-62 0 -119 -11 -171 -33s-97 -52.667 -135 -92s-67.5 -86.5 -88.5 -141.5s-31.5 -115.5 -31.5 -181.5c0 -72 10.5 -136.667 31.5 -194s50.333 -106.333 88 -147s82.5 -71.834 134.5 -93.501s108.667 -32.5 170 -32.5h41v915z" />
    <glyph glyph-name="afii10039" unicode="&#x425;" horiz-adv-x="1153" 
d="M961 0l-329.999 547c-20.667 34 -38.334 67.333 -53.001 100h-5c-18 -36.667 -37 -70 -57 -100l-336 -547h-119l453 723l-426 711h119l321 -539c16.667 -28 34 -60 52 -96h4l53 96l319 539h115l-430 -709l440 -725h-120z" />
    <glyph glyph-name="afii10040" unicode="&#x426;" horiz-adv-x="1436" 
d="M1288 -384v384h-1104v1434h99v-1344h821v1344h98v-1344h182v-474h-96z" />
    <glyph glyph-name="afii10041" unicode="&#x427;" horiz-adv-x="1255" 
d="M973 0v648.999c-75.333 -29.333 -150.5 -54.666 -225.5 -75.999s-150.833 -32 -227.5 -32c-62.667 0 -116.334 8.5 -161.001 25.5s-81.5 41 -110.5 72s-50.333 67.833 -64 110.5s-20.5 90 -20.5 142v543h98v-529c0 -87.333 22.333 -154.833 67 -202.5
s111.667 -71.5 201 -71.5c68.667 0 140.834 9.66699 216.501 29s151.167 44.333 226.5 75v699h98v-1434h-98z" />
    <glyph glyph-name="afii10042" unicode="&#x428;" horiz-adv-x="1776" 
d="M184 0v1434h99v-1344h553v1344h100v-1344h555v1344h100v-1434h-1407z" />
    <glyph glyph-name="afii10043" unicode="&#x429;" horiz-adv-x="1825" 
d="M1678 -384v384h-1494v1434h99v-1344h553v1344h100v-1344h555v1344h100v-1344h183v-474h-96z" />
    <glyph glyph-name="afii10044" unicode="&#x42a;" horiz-adv-x="1423" 
d="M1300 414c0 -56.667 -9.33398 -110 -28.001 -160s-46.167 -93.833 -82.5 -131.5s-81.166 -67.5 -134.499 -89.5s-115 -33 -185 -33h-395v1343h-414v91h512v-637h326c56 0 108.5 -7.16699 157.5 -21.5s91.5 -36.833 127.5 -67.5s64.333 -70.167 85 -118.5
s31 -106.833 31 -175.5zM1198 406c0 54 -7.66699 100 -23 138s-38 69 -68 93s-67 41.667 -111 53s-94.667 17 -152 17h-271v-617h277c61.333 0 114 8 158 24s80 38 108 66s48.667 61.333 62 100s20 80.667 20 126z" />
    <glyph glyph-name="afii10045" unicode="&#x42b;" horiz-adv-x="1544" 
d="M1262 0v1434h98v-1434h-98zM1010 414c0 -56.667 -9.33301 -110 -28 -160s-46.167 -93.833 -82.5 -131.5s-81.333 -67.5 -135 -89.5s-115.167 -33 -184.5 -33h-396v1434h99v-637h325c56.667 0 109.5 -7.16699 158.5 -21.5s91.5 -36.833 127.5 -67.5
s64.333 -70.167 85 -118.5s31 -106.833 31 -175.5zM907 406c0 54 -7.66699 100 -23 138s-38 69 -68 93s-67 41.667 -111 53s-94.667 17 -152 17h-270v-617h276c61.333 0 114 8 158 24s80 38 108 66s48.667 61.333 62 100s20 80.667 20 126z" />
    <glyph glyph-name="afii10046" unicode="&#x42c;" horiz-adv-x="1135" 
d="M1010 414c0 -56.667 -9.33301 -110 -28 -160s-46.167 -93.833 -82.5 -131.5s-81.333 -67.5 -135 -89.5s-115.167 -33 -184.5 -33h-396v1434h99v-637h325c56.667 0 109.5 -7.16699 158.5 -21.5s91.5 -36.833 127.5 -67.5s64.333 -70.167 85 -118.5s31 -106.833 31 -175.5z
M907 406c0 54 -7.66699 100 -23 138s-38 69 -68 93s-67 41.667 -111 53s-94.667 17 -152 17h-270v-617h276c61.333 0 114 8 158 24s80 38 108 66s48.667 61.333 62 100s20 80.667 20 126z" />
    <glyph glyph-name="afii10047" unicode="&#x42d;" horiz-adv-x="1262" 
d="M1153 711c0 -106 -16.832 -204.001 -50.499 -294.001s-80.5 -167.667 -140.5 -233s-131.5 -116.5 -214.5 -153.5s-173.833 -55.5 -272.5 -55.5c-44 0 -83.667 2.33301 -119 7s-67 10.5 -95 17.5s-53.167 14.5 -75.5 22.5s-42.5 15.667 -60.5 23v98
c42 -21.333 93.167 -39.5 153.5 -54.5s127.833 -22.5 202.5 -22.5c71.333 0 140.666 12 207.999 36s127.333 61 180 111s95.5 113 128.5 189s50.833 166 53.5 270h-704v92h702c-6 86.667 -23.5 166.834 -52.5 240.501s-69 137.5 -120 191.5s-112.5 96.167 -184.5 126.5
s-154 45.5 -246 45.5c-68.667 0 -129 -6.66699 -181 -20s-98.667 -29.333 -140 -48v97l61 19.5c22.667 7 47.5 13.667 74.5 20s56.5 11.5 88.5 15.5s66.667 6 104 6c96.667 0 187.5 -15.667 272.5 -47s159.167 -78.333 222.5 -141s113.333 -140.5 150 -233.5
s55 -201.5 55 -325.5z" />
    <glyph glyph-name="afii10048" unicode="&#x42e;" horiz-adv-x="1989" 
d="M1880 739c0 -127.333 -16.334 -238.669 -49.001 -334.002s-77.667 -174.833 -135 -238.5s-125.166 -111.5 -203.499 -143.5s-163.5 -48 -255.5 -48c-103.333 0 -194.5 18.833 -273.5 56.5s-145.5 89.334 -199.5 155.001s-94.833 142.5 -122.5 230.5
s-41.5 182.333 -41.5 283h-317v-700h-99v1434h99v-643h321c8 97.333 28 186.833 60 268.5s75.667 152 131 211s122 105 200 138s167 49.5 267 49.5c94.667 0 180 -17.833 256 -53.5s140.833 -85.167 194.5 -148.5s95 -139.166 124 -227.499s43.5 -184.833 43.5 -289.5z
M1778 722.997c0 106.667 -13.167 200.168 -39.5 280.501s-63.166 147.5 -110.499 201.5s-103.833 94.667 -169.5 122s-137.5 41 -215.5 41c-77.333 0 -149 -15.333 -215 -46s-123.167 -74.334 -171.5 -131.001s-86.166 -125.5 -113.499 -206.5s-41 -171.5 -41 -271.5
c0 -99.333 12.667 -189 38 -269s61.166 -148 107.499 -204s102.166 -99 167.499 -129s138 -45 218 -45s153.333 13.833 220 41.5s124 69 172 124s85.5 123.5 112.5 205.5s40.5 177.333 40.5 286z" />
    <glyph glyph-name="afii10049" unicode="&#x42f;" horiz-adv-x="1137" 
d="M854 0v638.998h-209c-38 0 -70.833 -5.33301 -98.5 -16s-52.167 -25.834 -73.5 -45.501s-40.333 -43.167 -57 -70.5s-33 -57.666 -49 -90.999l-189 -416h-112l211 453c14.667 30.667 29.5 57.334 44.5 80.001s30.333 42.334 46 59.001s31.5 30.667 47.5 42
s32 20.666 48 27.999v4c-42.667 6.66699 -83.834 19.334 -123.501 38.001s-74.834 43.5 -105.501 74.5s-55.334 68.5 -74.001 112.5s-28 94.333 -28 151c0 27.333 3.66699 56 11 86s18.5 59.5 33.5 88.5s34.333 56.667 58 83s51.834 49.5 84.501 69.5
s70.334 35.833 113.001 47.5s90.334 17.5 143.001 17.5h377v-1434h-98zM854 1343l-267.996 0.000976562c-66 0 -121.333 -9.16699 -166 -27.5s-80.834 -41.833 -108.501 -70.5s-47.334 -61 -59.001 -97s-17.5 -71.333 -17.5 -106c0 -58 10.667 -106.833 32 -146.5
s49.166 -71.834 83.499 -96.501s73.666 -42.5 117.999 -53.5s89.5 -16.5 135.5 -16.5h250v614z" />
    <glyph glyph-name="afii10065" unicode="&#x430;" horiz-adv-x="1012" 
d="M776 0l0.000976562 205h-4c-32.667 -70 -80.167 -125.833 -142.5 -167.5s-131.5 -62.5 -207.5 -62.5c-97.333 0 -174.333 27.333 -231 82s-85 123.667 -85 207c0 178.667 118.333 286.667 355 324l315 47c0 220 -82.667 330 -248 330
c-112.667 0 -222.334 -45.333 -329.001 -136v111c38 30 89.5 55.667 154.5 77s126.167 32 183.5 32c105.333 0 186.833 -32.667 244.5 -98s86.5 -160.333 86.5 -285v-666h-92zM494.001 510c-107.333 -15.333 -182.667 -40.168 -226 -74.501s-65 -90.166 -65 -167.499
c0 -60.667 20.167 -110.667 60.5 -150s96.5 -59 168.5 -59c98.667 0 180.667 36.5 246 109.5s98 167.167 98 282.5v100z" />
    <glyph glyph-name="afii10066" unicode="&#x431;" horiz-adv-x="1126" 
d="M1036 489c0 -39.333 -3.50195 -79.3359 -10.502 -120.003s-18.167 -80.167 -33.5 -118.5s-34.833 -74.166 -58.5 -107.499s-52 -62.5 -85 -87.5s-71 -44.667 -114 -59s-91.167 -21.5 -144.5 -21.5c-74.667 0 -140.5 14.5 -197.5 43.5s-104.667 70.667 -143 125
s-67.333 120.833 -87 199.5s-29.5 167.667 -29.5 267c0 116 7 217.167 21 303.5s33.833 160 59.5 221s56.167 110.833 91.5 149.5s74.333 68.667 117 90c26.667 13.333 55.834 24.833 87.501 34.5s64 18.334 97 26.001s65.667 14.334 98 20.001l90.5 15.5
c23.333 4.66699 48.333 11 75 19s49.334 18.333 68.001 31v-97c-14.667 -9.33301 -34.167 -18.166 -58.5 -26.499s-51.833 -15.166 -82.5 -20.499c-29.333 -4.66699 -60.166 -9.83398 -92.499 -15.501s-64 -12 -95 -19s-60.667 -15 -89 -24s-53.166 -19.5 -74.499 -31.5
c-58.667 -34.667 -106 -93.167 -142 -175.5s-58 -191.833 -66 -328.5h4c14.667 28.667 34.167 56.167 58.5 82.5s52.333 49.5 84 69.5s66.667 35.833 105 47.5s79.166 17.5 122.499 17.5c74 0 137.667 -13.5 191 -40.5s97.166 -63.833 131.499 -110.5
s59.833 -100.834 76.5 -162.501s25 -127.167 25 -196.5zM933.998 476.997c0 66.667 -6.99707 126.668 -20.9971 180.001s-35.167 98.833 -63.5 136.5s-63.833 66.667 -106.5 87s-92.334 30.5 -149.001 30.5c-40 0 -77.833 -6.5 -113.5 -19.5s-68.834 -30.5 -99.501 -52.5
s-58 -47.667 -82 -77s-44.333 -60.666 -61 -93.999c0 -11.333 -0.333008 -26.833 -1 -46.5s-1 -39.167 -1 -58.5c0 -66.667 6.83301 -130.334 20.5 -191.001s35 -114.167 64 -160.5s66.167 -83.333 111.5 -111s100 -41.5 164 -41.5c56 0 105.167 11.167 147.5 33.5
s77.666 52.666 105.999 90.999s49.5 82.833 63.5 133.5s21 104 21 160z" />
    <glyph glyph-name="afii10067" unicode="&#x432;" horiz-adv-x="981" 
d="M889 293c0 -43.333 -7.49902 -82.833 -22.499 -118.5s-36.167 -66.5 -63.5 -92.5s-59.833 -46.167 -97.5 -60.5s-78.834 -21.5 -123.501 -21.5h-418v1024h389c51.333 0 95.5 -6.33301 132.5 -19s67.5 -30 91.5 -52s41.833 -48 53.5 -78s17.5 -62.333 17.5 -97
c0 -31.333 -4.5 -60.5 -13.5 -87.5s-21.667 -51.333 -38 -73s-36.333 -39.834 -60 -54.501s-50.167 -25 -79.5 -31c38 -4 71.5 -12.833 100.5 -26.5s53.167 -31 72.5 -52s34 -45.167 44 -72.5s15 -56.666 15 -87.999zM752.001 764c0 23.333 -3.49805 45.668 -10.498 67.001
s-18.833 40 -35.5 56s-38.334 28.833 -65.001 38.5s-60 14.5 -100 14.5h-285v-371h260c45.333 0 83.166 5.5 113.499 16.5s54.5 25.667 72.5 44s30.833 39.166 38.5 62.499s11.5 47.333 11.5 72zM793.003 285.002c0 27.333 -4.5 53.165 -13.5 77.498s-23.667 45.5 -44 63.5
s-47.333 32.333 -81 43s-75.167 16 -124.5 16h-274v-401h307c38 0 71.333 4.83301 100 14.5s52.667 23.334 72 41.001s33.833 38.834 43.5 63.501s14.5 52 14.5 82z" />
    <glyph glyph-name="afii10068" unicode="&#x433;" horiz-adv-x="694" 
d="M256 940v-940h-92v1024h500v-84h-408z" />
    <glyph glyph-name="afii10069" unicode="&#x434;" horiz-adv-x="1075" 
d="M946 -270l0.000976562 269.998h-817v-270h-84v354h90c44.667 64.667 84.167 134.334 118.5 209.001s63.166 152.334 86.499 233.001s41.333 163 54 247s20 167.667 22 251h456v-940h158v-354h-84zM780.001 939.998l-279.999 -0.000976562
c-5.33301 -71.333 -14.333 -144 -27 -218s-29.834 -147.667 -51.501 -221s-47.667 -145.166 -78 -215.499s-65.5 -137.5 -105.5 -201.5h542v856z" />
    <glyph glyph-name="afii10070" unicode="&#x435;" horiz-adv-x="1034" 
d="M186 508c0 -140.667 32.5 -250.667 97.5 -330s154.167 -119 267.5 -119c114.667 0 226.667 42.333 336 127v-98c-106 -75.333 -224.333 -113 -355 -113c-132 0 -238.667 47.333 -320 142s-122 228.334 -122 401.001c0 149.333 42.5 275.166 127.5 377.499
s195.5 153.5 331.5 153.5c127.333 0 225 -44.667 293 -134s102 -211.333 102 -366v-41h-758zM848 592c-4 118 -32.332 209.667 -84.999 275s-125.334 98 -218.001 98c-96 0 -175.5 -32.167 -238.5 -96.5s-101.833 -156.5 -116.5 -276.5h658z" />
    <glyph glyph-name="afii10072" unicode="&#x436;" horiz-adv-x="1362" 
d="M1212 0l-481 502h-4v-502h-92v502h-4l-481 -502h-130l512 524l-495 500h119l475 -489h4v489h92v-489h4l475 489h119l-496 -500l512 -524h-129z" />
    <glyph glyph-name="afii10073" unicode="&#x437;" horiz-adv-x="936" 
d="M844 285c0 -39.333 -7.50195 -77.665 -22.502 -114.998s-39.5 -70.5 -73.5 -99.5s-78.833 -52.167 -134.5 -69.5s-124.167 -26 -205.5 -26c-27.333 0 -56 1.66699 -86 5s-59.5 8 -88.5 14s-56.333 13.167 -82 21.5s-47.5 17.5 -65.5 27.5v96
c23.333 -12.667 48.5 -24 75.5 -34s54.667 -18.333 83 -25s56.5 -11.834 84.5 -15.501s55 -5.5 81 -5.5c66.667 0 121.834 6 165.501 18s78.334 27.833 104.001 47.5s43.5 42.5 53.5 68.5s15 53 15 81c0 40.667 -7.83301 74.667 -23.5 102s-38 49.333 -67 66
s-64.333 28.334 -106 35.001s-88.167 10 -139.5 10h-140v84h127c100 0 174.5 16.333 223.5 49s73.5 84 73.5 154c0 28 -5.33301 53.667 -16 77s-27 43.5 -49 60.5s-50 30.167 -84 39.5s-74.333 14 -121 14c-56 0 -111.833 -7.33301 -167.5 -22s-106.5 -32.667 -152.5 -54v90
c19.333 8 41.333 16.167 66 24.5s51.167 15.833 79.5 22.5s58.166 12.167 89.499 16.5s63.666 6.5 96.999 6.5c64.667 0 119.5 -7.5 164.5 -22.5s81.667 -34.833 110 -59.5s48.833 -52.834 61.5 -84.501s19 -63.834 19 -96.501c0 -66 -18.5 -120.667 -55.5 -164
s-89.5 -71 -157.5 -83v-4c42 -2 79.333 -9.83301 112 -23.5s60.334 -31.5 83.001 -53.5s39.834 -47.833 51.501 -77.5s17.5 -61.5 17.5 -95.5z" />
    <glyph glyph-name="afii10074" unicode="&#x438;" horiz-adv-x="1128" 
d="M872 0v856l-15.5 -22c-5 -7.33301 -9.16699 -13 -12.5 -17l-615 -817h-65v1024h92v-848l12 21c4 6.66699 8.33301 12.667 13 18l610 809h74v-1024h-93z" />
    <glyph glyph-name="afii10075" unicode="&#x439;" horiz-adv-x="1128" 
d="M872 0v856l-15.5 -22c-5 -7.33301 -9.16699 -13 -12.5 -17l-615 -817h-65v1024h92v-848l12 21c4 6.66699 8.33301 12.667 13 18l610 809h74v-1024h-93zM558 1266c38.667 0 73.5 5.66699 104.5 17s57.667 26.666 80 45.999s40 41.666 53 66.999s21.167 51.666 24.5 78.999
h98c-6.66699 -36 -19.167 -71.167 -37.5 -105.5s-42.5 -64.833 -72.5 -91.5s-66 -48 -108 -64s-89.667 -24 -143 -24s-100 8 -140 24s-73.667 37.333 -101 64s-49.166 57.167 -65.499 91.5s-27.833 69.5 -34.5 105.5h98c3.33301 -27.333 10.666 -53.666 21.999 -78.999
s27 -47.666 47 -66.999s44.333 -34.666 73 -45.999s62 -17 100 -17h2z" />
    <glyph glyph-name="afii10076" unicode="&#x43a;" horiz-adv-x="891" 
d="M741 0l-481 502h-4v-502h-92v1024h92v-489h4l475 489h119l-496 -500l512 -524h-129z" />
    <glyph glyph-name="afii10077" unicode="&#x43b;" horiz-adv-x="1026" 
d="M770 0l-0.00292969 939.998h-299c-11.333 -152 -26.166 -287.167 -44.499 -405.5s-42.333 -218.166 -72 -299.499s-66.167 -143.166 -109.5 -185.499s-95.666 -63.5 -156.999 -63.5c-10 0 -20.167 0.833008 -30.5 2.5s-19.166 3.5 -26.499 5.5v82
c5.33301 -2 14 -3.83301 26 -5.5s21.667 -2.5 29 -2.5c44.667 0 83.667 20.833 117 62.5s62 103 86 184s44.167 181 60.5 300s29.5 255.5 39.5 409.5h473v-1024h-92z" />
    <glyph glyph-name="afii10078" unicode="&#x43c;" horiz-adv-x="1300" 
d="M1047 0l0.000976562 885l-27 -72l-23.5 -62l-21.5 -55l-277 -696h-75l-299 696c-6.66699 14 -14 31.667 -22 53l-23 62l-27 74v-885h-88v1024h110l312 -709c7.33301 -16 15.166 -34.833 23.499 -56.5l23.5 -62.5l26 -71l28 69l24 61l22 56l291 713h113v-1024h-90z" />
    <glyph glyph-name="afii10079" unicode="&#x43d;" horiz-adv-x="1116" 
d="M860 0v489h-604v-489h-92v1024h92v-451h604v451h92v-1024h-92z" />
    <glyph glyph-name="afii10080" unicode="&#x43e;" horiz-adv-x="1149" 
d="M575 -25c-149.333 0 -267.5 49.168 -354.5 147.501s-130.5 226.166 -130.5 383.499c0 170 45.5 303 136.5 399s210.833 144 359.5 144c146 0 261.333 -47.667 346 -143s127 -227.333 127 -396c0 -159.333 -43.167 -288.333 -129.5 -387s-204.5 -148 -354.5 -148z
M582 965.001c-120.667 0 -216.834 -40.667 -288.501 -122s-107.5 -194.333 -107.5 -339c0 -134 35 -241.667 105 -323s165.667 -122 287 -122c123.333 0 218.333 40 285 120s100 191 100 333c0 146 -33.167 258 -99.5 336s-160.166 117 -281.499 117z" />
    <glyph glyph-name="afii10081" unicode="&#x43f;" horiz-adv-x="1116" 
d="M860 0v940h-604v-940h-92v1024h788v-1024h-92z" />
    <glyph glyph-name="afii10082" unicode="&#x440;" horiz-adv-x="1147" 
d="M260 182h-4.00098v-653h-92v1495h92v-211h4c36.667 75.333 89.167 133.5 157.5 174.5s143.5 61.5 225.5 61.5c130 0 231.5 -44.833 304.5 -134.5s109.5 -211.5 109.5 -365.5c0 -171.333 -41.833 -309.833 -125.5 -415.5s-194.167 -158.5 -331.5 -158.5
c-153.333 0 -266.666 69 -339.999 207zM255.999 563l-0.000976562 -128.999c0 -102.667 32.333 -190.834 97 -264.501s149.667 -110.5 255 -110.5c104.667 0 189.667 44.833 255 134.5s98 207.5 98 353.5c0 128 -30 229.667 -90 305s-140 113 -240 113
c-119.333 0 -211.666 -40 -276.999 -120s-98 -174 -98 -282z" />
    <glyph glyph-name="afii10083" unicode="&#x441;" horiz-adv-x="909" 
d="M827 45c-76 -46.667 -166.669 -70.002 -272.002 -70.002c-139.333 0 -251.666 47.833 -336.999 143.5s-128 220.834 -128 375.501c0 162.667 48 295.834 144 399.501s219.333 155.5 370 155.5c78 0 153.667 -16 227 -48v-104c-73.333 45.333 -153.666 68 -240.999 68
c-120 0 -217.333 -43.167 -292 -129.5s-112 -198.166 -112 -335.499c0 -132.667 34.167 -239.334 102.5 -320.001s158.5 -121 270.5 -121c102.667 0 192 27.333 268 82v-96z" />
    <glyph glyph-name="afii10084" unicode="&#x442;" horiz-adv-x="756" 
d="M426 940v-940h-92v940h-307v84h706v-84h-307z" />
    <glyph glyph-name="afii10085" unicode="&#x443;" horiz-adv-x="928" 
d="M414 -209c-37.333 -92 -78.6689 -160.333 -124.002 -205s-103.666 -67 -174.999 -67c-30 0 -56.667 4.66699 -80 14v92c24 -9.33301 52 -14 84 -14c82 0 146.667 56.667 194 170l95 227l-388 1016h103l309 -834c6.66699 -18 11.334 -31.667 14.001 -41
c2.66699 -12.667 5.66699 -24 9 -34h4l24 69l330 840h100z" />
    <glyph glyph-name="afii10086" unicode="&#x444;" horiz-adv-x="1321" 
d="M1235 506c0 -74 -12.501 -142 -37.501 -204s-59.5 -115.333 -103.5 -160s-96 -79.5 -156 -104.5s-125 -37.5 -195 -37.5h-36v-481h-93v481h-36c-70 0 -135 12.5 -195 37.5s-112 59.833 -156 104.5s-78.5 98 -103.5 160s-37.5 130 -37.5 204c0 78.667 11.667 150 35 214
s56.333 118.5 99 163.5s93.834 79.667 153.501 104s126.167 36.5 199.5 36.5h41v434h93v-434h41c72.667 0 139 -12.167 199 -36.5s111.333 -59 154 -104s75.667 -99.5 99 -163.5s35 -135.333 35 -214zM1139 504c0 72.667 -10.001 136.333 -30.001 191
s-47.667 100.167 -83 136.5s-77.166 63.5 -125.499 81.5s-100.833 27 -157.5 27h-36v-856h28c58.667 0 112.667 9.5 162 28.5s92 46.5 128 82.5s64 80 84 132s30 111 30 177zM613.998 939.999l-39 0.000976562c-56 0 -108 -9 -156 -27s-89.5 -45.167 -124.5 -81.5
s-62.5 -81.833 -82.5 -136.5s-30 -118.334 -30 -191.001c0 -66 10 -125 30 -177s48 -96 84 -132s78.667 -63.5 128 -82.5s103.333 -28.5 162 -28.5h28v856z" />
    <glyph glyph-name="afii10087" unicode="&#x445;" horiz-adv-x="862" 
d="M481 502l334.001 -502.001h-117l-270 432h-4l-36 -57c-4.66699 -8 -10.334 -17 -17.001 -27l-226 -348h-112l342 500l-336 524h108l228 -367c29.333 -47.333 47 -76.666 53 -87.999h4l51 84l238 371h108z" />
    <glyph glyph-name="afii10088" unicode="&#x446;" horiz-adv-x="1155" 
d="M1026 -373v373h-862v1024h92v-940h604v940h92v-940h158v-457h-84z" />
    <glyph glyph-name="afii10089" unicode="&#x447;" horiz-adv-x="1071" 
d="M815 0l0.00195312 446.001c-64.667 -34.667 -126.334 -61.334 -185.001 -80.001s-118.334 -28 -179.001 -28c-44 0 -84.667 6.5 -122 19.5s-69.833 33.5 -97.5 61.5s-49.334 64.333 -65.001 109s-23.5 98.667 -23.5 162v334h93v-326c0 -40 3.5 -76.833 10.5 -110.5
s19 -62.667 36 -87s40 -43.5 69 -57.5s65.5 -21 109.5 -21c64.667 0 126.334 9.66699 185.001 29s115 44.333 169 75v498h92v-1024h-92z" />
    <glyph glyph-name="afii10090" unicode="&#x448;" horiz-adv-x="1538" 
d="M164 0v1024h92v-940h467v940h92v-940h467v940h92v-1024h-1210z" />
    <glyph glyph-name="afii10091" unicode="&#x449;" horiz-adv-x="1577" 
d="M1448 -373v373h-1284v1024h92v-940h467v940h92v-940h467v940h92v-940h158v-457h-84z" />
    <glyph glyph-name="afii10092" unicode="&#x44a;" horiz-adv-x="1133" 
d="M1051 307c0 -52 -8.99805 -97.332 -26.998 -135.999s-41.667 -70.667 -71 -96s-62.5 -44.166 -99.5 -56.499s-74.5 -18.5 -112.5 -18.5h-393v940h-321v84h413v-420h293c49.333 0 93.666 -6.66699 132.999 -20s72.666 -32.833 99.999 -58.5s48.333 -56.834 63 -93.501
s22 -78.334 22 -125.001zM954.002 307.001c0 30 -4.83301 58 -14.5 84s-24.334 48.5 -44.001 67.5s-44.5 34 -74.5 45s-65.333 16.5 -106 16.5h-275v-436h277c42.667 0 79.167 5.83301 109.5 17.5s54.833 27.667 73.5 48s32.334 44 41.001 71s13 55.833 13 86.5z" />
    <glyph glyph-name="afii10093" unicode="&#x44b;" horiz-adv-x="1346" 
d="M1090 0v1024h92v-1024h-92zM866 307c0 -52 -8.99902 -97.332 -26.999 -135.999s-41.5 -70.667 -70.5 -96s-62 -44.166 -99 -56.499s-74.5 -18.5 -112.5 -18.5h-393v1024h92v-420h293c48.667 0 92.667 -6.66699 132 -20s72.666 -32.833 99.999 -58.5
s48.333 -56.834 63 -93.501s22 -78.334 22 -125.001zM770.001 307.001c0 30 -4.83301 58 -14.5 84s-24.5 48.5 -44.5 67.5s-45 34 -75 45s-65.333 16.5 -106 16.5h-274v-436h276c43.333 0 80 5.83301 110 17.5s54.5 27.667 73.5 48s32.833 44 41.5 71s13 55.833 13 86.5z
" />
    <glyph glyph-name="afii10094" unicode="&#x44c;" horiz-adv-x="948" 
d="M866 307c0 -52 -8.99902 -97.332 -26.999 -135.999s-41.5 -70.667 -70.5 -96s-62 -44.166 -99 -56.499s-74.5 -18.5 -112.5 -18.5h-393v1024h92v-420h293c48.667 0 92.667 -6.66699 132 -20s72.666 -32.833 99.999 -58.5s48.333 -56.834 63 -93.501
s22 -78.334 22 -125.001zM770.001 307.001c0 30 -4.83301 58 -14.5 84s-24.5 48.5 -44.5 67.5s-45 34 -75 45s-65.333 16.5 -106 16.5h-274v-436h276c43.333 0 80 5.83301 110 17.5s54.5 27.667 73.5 48s32.833 44 41.5 71s13 55.833 13 86.5z" />
    <glyph glyph-name="afii10095" unicode="&#x44d;" horiz-adv-x="918" 
d="M827 510c0 -76 -11.502 -146.668 -34.502 -212.001s-55.333 -122 -97 -170s-91.667 -85.5 -150 -112.5s-122.833 -40.5 -193.5 -40.5c-64 0 -118 6.5 -162 19.5s-78.667 27.833 -104 44.5v98c28 -21.333 65.167 -39.666 111.5 -54.999s99.166 -23 158.499 -23
c52 0 100.333 9.33301 145 28s83.667 45.667 117 81s59.833 78.5 79.5 129.5s30.834 108.833 33.501 173.5h-504v80h504c-4 58.667 -14.833 113.334 -32.5 164.001s-42.667 94.5 -75 131.5s-72.166 66 -119.499 87s-102.666 31.5 -165.999 31.5
c-54 0 -102.5 -6.5 -145.5 -19.5s-77.167 -27.833 -102.5 -44.5v90c14 7.33301 30.833 14.5 50.5 21.5s40.834 13.167 63.501 18.5s46.167 9.66602 70.5 12.999s48.166 5 71.499 5c74 0 140.667 -12.333 200 -37s109.833 -60.167 151.5 -106.5s73.667 -102.833 96 -169.5
s33.5 -142 33.5 -226z" />
    <glyph glyph-name="afii10096" unicode="&#x44e;" horiz-adv-x="1595" 
d="M1505 510c0 -71.333 -8.99707 -139.332 -26.9971 -203.999s-45.5 -121.5 -82.5 -170.5s-83.833 -88 -140.5 -117s-123.334 -43.5 -200.001 -43.5c-74 0 -139 13.667 -195 41s-102.833 64.5 -140.5 111.5s-66.334 101.667 -86.001 164s-30.167 128.166 -31.5 197.499h-346
v-489h-92v1024h92v-451h348c6 84 23 156 51 216s63 109.333 105 148s89.333 67 142 85s107 27 163 27c66.667 0 127.167 -12 181.5 -36s100.666 -58.833 138.999 -104.5s67.833 -102 88.5 -169s31 -143.5 31 -229.5zM1409 512.001c0 76 -8.16406 142.502 -24.4971 199.502
s-39.5 104.167 -69.5 141.5s-66.5 65.333 -109.5 84s-91.167 28 -144.5 28c-54.667 0 -104.334 -10.333 -149.001 -31s-82.834 -50.667 -114.501 -90s-56.167 -87.5 -73.5 -144.5s-26 -122.167 -26 -195.5c0 -65.333 8 -125.333 24 -180s39.333 -101.667 70 -141
s68.167 -69.833 112.5 -91.5s95.166 -32.5 152.499 -32.5c60 0 112.167 11.167 156.5 33.5s81 53.666 110 93.999s50.5 88.166 64.5 143.499s21 116 21 182z" />
    <glyph glyph-name="afii10097" unicode="&#x44f;" horiz-adv-x="987" 
d="M727 0l-0.000976562 446.001h-170c-18 0 -37 -2.5 -57 -7.5s-40 -14.333 -60 -28s-39.333 -32.334 -58 -56.001s-36 -53.834 -52 -90.501l-115 -264h-113l129 285c19.333 44 43.833 81.833 73.5 113.5s63.5 55.167 101.5 70.5c-83.333 10 -145.166 38.833 -185.499 86.5
s-60.5 108.834 -60.5 183.501c0 34.667 5.83301 69 17.5 103s30.834 64.5 57.501 91.5s61.667 48.833 105 65.5s96.666 25 159.999 25h323v-1024h-96zM726.999 944.001l-220.999 0.000976562c-81.333 0 -142.333 -18.167 -183 -54.5s-61 -86.5 -61 -150.5
c0 -38 5.66699 -70.167 17 -96.5s27.5 -47.833 48.5 -64.5s46.167 -28.834 75.5 -36.501s61.666 -11.5 96.999 -11.5h227v414z" />
    <glyph glyph-name="afii10071" unicode="&#x451;" horiz-adv-x="1034" 
d="M186 508c0 -140.667 32.5 -250.667 97.5 -330s154.167 -119 267.5 -119c114.667 0 226.667 42.333 336 127v-98c-106 -75.333 -224.333 -113 -355 -113c-132 0 -238.667 47.333 -320 142s-122 228.334 -122 401.001c0 149.333 42.5 275.166 127.5 377.499
s195.5 153.5 331.5 153.5c127.333 0 225 -44.667 293 -134s102 -211.333 102 -366v-41h-758zM848 592c-4 118 -32.332 209.667 -84.999 275s-125.334 98 -218.001 98c-96 0 -175.5 -32.167 -238.5 -96.5s-101.833 -156.5 -116.5 -276.5h658zM702.001 1188
c-18 0 -34.332 6.5 -48.999 19.5s-22 30.5 -22 52.5c0 20.667 7.16699 37.334 21.5 50.001s30.166 19 47.499 19c19.333 0 36.833 -6.5 52.5 -19.5s23.5 -29.5 23.5 -49.5c0 -20.667 -7.16699 -37.834 -21.5 -51.501s-31.833 -20.5 -52.5 -20.5zM369.002 1188
c-18.667 0 -35.332 6.5 -49.999 19.5s-22 30.5 -22 52.5c0 20.667 7.33301 37.334 22 50.001s30.667 19 48 19c19.333 0 36.666 -6.5 51.999 -19.5s23 -29.5 23 -49.5c0 -20.667 -7 -37.834 -21 -51.501s-31.333 -20.5 -52 -20.5z" />
    <glyph glyph-name="afii10099" unicode="&#x452;" horiz-adv-x="1153" 
d="M1024 395c0 -130 -8.66309 -245.334 -25.9961 -346.001s-43.833 -185.167 -79.5 -253.5s-80.5 -120.333 -134.5 -156s-118 -53.5 -192 -53.5c-13.333 0 -29.333 1.83301 -48 5.5s-36 8.16699 -52 13.5v90c14.667 -5.33301 32 -10.5 52 -15.5s36.667 -7.5 50 -7.5
c62.667 0 115.334 16.667 158.001 50s77 81.166 103 143.499s44.667 137.833 56 226.5s17 188.334 17 299.001c0 98.667 -7.16699 182.834 -21.5 252.501s-35.333 126.5 -63 170.5s-61.834 76 -102.501 96s-87 30 -139 30c-39.333 0 -78.333 -8.33301 -117 -25
s-73.334 -41.667 -104.001 -75s-55.334 -74.833 -74.001 -124.5s-28 -107.167 -28 -172.5v-543h-93v1231h-135v84h135v201h93v-201h389v-84h-389v-420h4c16 28 34.5 55 55.5 81s45.167 48.667 72.5 68s58 34.833 92 46.5s71.667 17.5 113 17.5
c71.333 0 132.666 -14.667 183.999 -44s93.666 -71.166 126.999 -125.499s57.833 -120.333 73.5 -198s23.5 -164.834 23.5 -261.501z" />
    <glyph glyph-name="afii10100" unicode="&#x453;" horiz-adv-x="694" 
d="M256 940v-940h-92v1024h500v-84h-408zM375 1188h-90l234 328h104z" />
    <glyph glyph-name="afii10101" unicode="&#x454;" horiz-adv-x="918" 
d="M720 -2.5c-46 -15 -101.004 -22.499 -165.004 -22.499c-70.667 0 -134.667 12.667 -192 38s-106.166 60.833 -146.499 106.5s-71.5 100.334 -93.5 164.001s-33 133.834 -33 210.501c0 84 13 160 39 228s61.833 126.333 107.5 175s99.834 86.167 162.501 112.5
s131 39.5 205 39.5c46 0 88.333 -4.83301 127 -14.5s72 -20.834 100 -33.501v-104c-28 17.333 -61.833 33 -101.5 47s-86.167 21 -139.5 21c-57.333 0 -109.666 -10.167 -156.999 -30.5s-88.333 -48.833 -123 -85.5s-62.5 -80.334 -83.5 -131.001
s-33.833 -106.334 -38.5 -167.001h502v-80h-504c2.66699 -64.667 13.834 -122.5 33.501 -173.5s46 -94.167 79 -129.5s71.667 -62.333 116 -81s92.5 -28 144.5 -28c60 0 112.667 8.33301 158 25s82 35.667 110 57v-96c-25.333 -16.667 -61 -32.5 -107 -47.5z" />
    <glyph glyph-name="afii10102" unicode="&#x455;" horiz-adv-x="795" 
d="M111 45l-0.00195312 110.999c34.667 -30 76.667 -53.667 126 -71s92 -26 128 -26c160.667 0 241 65.667 241 197c0 45.333 -17.667 84 -53 116s-92.666 65 -171.999 99c-98 42.667 -166.833 86.834 -206.5 132.501s-59.5 101.167 -59.5 166.5
c0 83.333 31.833 150.666 95.5 201.999s142.167 77 235.5 77c88 0 163.333 -18 226 -54v-104c-76 49.333 -154.667 74 -236 74c-67.333 0 -121.666 -17.5 -162.999 -52.5s-62 -80.5 -62 -136.5c0 -48.667 13 -88.167 39 -118.5s83.333 -65.166 172 -104.499
c106.667 -48 180 -92.5 220 -133.5s60 -95.5 60 -163.5c0 -81.333 -30.5 -148.5 -91.5 -201.5s-145.167 -79.5 -252.5 -79.5c-98.667 0 -181 23.333 -247 70z" />
    <glyph glyph-name="afii10103" unicode="&#x456;" horiz-adv-x="420" 
d="M209 1282c-20 0 -37.6689 7.33105 -53.002 21.998s-23 33.334 -23 56.001c0 22 7.83301 39.833 23.5 53.5s33.167 20.5 52.5 20.5c20.667 0 38.834 -6.66699 54.501 -20s23.5 -31.333 23.5 -54c0 -21.333 -7.66699 -39.666 -23 -54.999s-33.666 -23 -54.999 -23z
M163.998 -0.00195312v1024h92v-1024h-92z" />
    <glyph glyph-name="afii10104" unicode="&#x457;" horiz-adv-x="420" 
d="M164 0v1024h92v-1024h-92zM377 1188c-18 0 -34.332 6.5 -48.999 19.5s-22 30.5 -22 52.5c0 20.667 7.16699 37.334 21.5 50.001s30.166 19 47.499 19c19.333 0 36.833 -6.5 52.5 -19.5s23.5 -29.5 23.5 -49.5c0 -20.667 -7.16699 -37.834 -21.5 -51.501
s-31.833 -20.5 -52.5 -20.5zM44.001 1188c-18.667 0 -35.332 6.5 -49.999 19.5s-22 30.5 -22 52.5c0 20.667 7.33301 37.334 22 50.001s30.667 19 48 19c19.333 0 36.666 -6.5 51.999 -19.5s23 -29.5 23 -49.5c0 -20.667 -7 -37.834 -21 -51.501s-31.333 -20.5 -52 -20.5z
" />
    <glyph glyph-name="afii10105" unicode="&#x458;" horiz-adv-x="420" 
d="M209 1282c-20 0 -37.6689 7.33105 -53.002 21.998s-23 33.334 -23 56.001c0 22 7.83301 39.833 23.5 53.5s33.167 20.5 52.5 20.5c20.667 0 38.834 -6.66699 54.501 -20s23.5 -31.333 23.5 -54c0 -21.333 -7.66699 -39.666 -23 -54.999s-33.666 -23 -54.999 -23z
M255.998 28.998c0 -340 -120.667 -510 -362 -510c-48 0 -96.667 11.667 -146 35v96c53.333 -31.333 105.333 -47 156 -47c173.333 0 260 136.333 260 409v1012h92v-995z" />
    <glyph glyph-name="afii10106" unicode="&#x459;" horiz-adv-x="1583" 
d="M1473 307c0 -52 -9.00098 -97.334 -27.001 -136.001s-41.667 -70.667 -71 -96s-62.5 -44.166 -99.5 -56.499s-74.5 -18.5 -112.5 -18.5h-393v940h-299c-11.333 -152 -26.166 -287.167 -44.499 -405.5s-42.333 -218.166 -72 -299.499s-66.167 -143.166 -109.5 -185.499
s-95.666 -63.5 -156.999 -63.5c-10 0 -20.167 0.833008 -30.5 2.5s-19.166 3.5 -26.499 5.5v82c5.33301 -2 14 -3.83301 26 -5.5s21.667 -2.5 29 -2.5c44.667 0 83.667 20.833 117 62.5s62 103 86 184s44.167 181 60.5 300s29.5 255.5 39.5 409.5h473v-420h293
c49.333 0 93.666 -6.66699 132.999 -20s72.666 -32.833 99.999 -58.5s48.333 -56.834 63 -93.501s22 -78.334 22 -125.001zM1376 306.999c0 30 -4.83398 58 -14.501 84s-24.5 48.5 -44.5 67.5s-45 34 -75 45s-65 16.5 -105 16.5h-275v-436h277
c42.667 0 79.167 5.83301 109.5 17.5s54.833 27.667 73.5 48s32.334 44 41.001 71s13 55.833 13 86.5z" />
    <glyph glyph-name="afii10107" unicode="&#x45a;" horiz-adv-x="1673" 
d="M1563 303c0 -52 -8.99805 -97.167 -26.998 -135.5s-41.667 -69.833 -71 -94.5s-62.5 -43 -99.5 -55s-74.5 -18 -112.5 -18h-393v512h-604v-512h-92v1024h92v-428h604v428h92v-428h293c49.333 0 93.666 -6.5 132.999 -19.5s72.666 -32 99.999 -57s48.333 -55.667 63 -92
s22 -77.833 22 -124.5zM1466 303c0 30 -4.83301 57.8301 -14.5 83.4971s-24.334 47.834 -44.001 66.501s-44.5 33.167 -74.5 43.5s-65.333 15.5 -106 15.5h-275v-428h277c42.667 0 79.167 5.66699 109.5 17s54.833 26.833 73.5 46.5s32.334 42.834 41.001 69.501
s13 55.334 13 86.001z" />
    <glyph glyph-name="afii10108" unicode="&#x45b;" horiz-adv-x="1118" 
d="M883 0l-0.00292969 590.001c0 120.667 -22.167 209.167 -66.5 265.5s-113.166 84.5 -206.499 84.5c-19.333 0 -41 -2.5 -65 -7.5s-48.167 -13.5 -72.5 -25.5s-48.166 -28 -71.499 -48s-44 -44.667 -62 -74s-32.5 -64 -43.5 -104s-16.5 -86 -16.5 -138v-543h-93v1231h-135
v84h135v201h93v-201h389v-84h-389v-416h4c16 29.333 35.5 56.666 58.5 81.999s49.167 47.5 78.5 66.5s61.833 33.833 97.5 44.5s74.834 16 117.501 16c57.333 0 107.333 -9.5 150 -28.5s78 -46.333 106 -82s49 -79 63 -130s21 -108.833 21 -173.5v-610h-92z" />
    <glyph glyph-name="afii10109" unicode="&#x45c;" horiz-adv-x="891" 
d="M741 0l-481 502h-4v-502h-92v1024h92v-489h4l475 489h119l-496 -500l512 -524h-129zM515 1188h-90l234 328h104z" />
    <glyph glyph-name="afii10110" unicode="&#x45e;" horiz-adv-x="928" 
d="M414 -209c-37.333 -92 -78.6689 -160.333 -124.002 -205s-103.666 -67 -174.999 -67c-30 0 -56.667 4.66699 -80 14v92c24 -9.33301 52 -14 84 -14c82 0 146.667 56.667 194 170l95 227l-388 1016h103l309 -834c6.66699 -18 11.334 -31.667 14.001 -41
c2.66699 -12.667 5.66699 -24 9 -34h4l24 69l330 840h100zM448.997 1266c38.667 0 73.5 5.66699 104.5 17s57.667 26.666 80 45.999s40 41.666 53 66.999s21.167 51.666 24.5 78.999h98c-6.66699 -36 -19.167 -71.167 -37.5 -105.5s-42.5 -64.833 -72.5 -91.5
s-66 -48 -108 -64s-89.667 -24 -143 -24s-100 8 -140 24s-73.667 37.333 -101 64s-49.166 57.167 -65.499 91.5s-27.833 69.5 -34.5 105.5h98c3.33301 -27.333 10.666 -53.666 21.999 -78.999s27 -47.666 47 -66.999s44.333 -34.666 73 -45.999s62 -17 100 -17h2z" />
    <glyph glyph-name="afii10193" unicode="&#x45f;" horiz-adv-x="1116" 
d="M602 0v-373h-84v373h-354v1024h92v-940h604v940h92v-1024h-350z" />
    <glyph glyph-name="afii10050" unicode="&#x490;" horiz-adv-x="918" 
d="M283 1343v-1343h-99v1434h578v264h96v-355h-575z" />
    <glyph glyph-name="afii10098" unicode="&#x491;" horiz-adv-x="743" 
d="M256 940v-940h-92v1024h434v270h84v-354h-426z" />
    <glyph glyph-name="endash" unicode="&#x2013;" horiz-adv-x="1024" 
d="M0 555v90h1024v-90h-1024z" />
    <glyph glyph-name="emdash" unicode="&#x2014;" horiz-adv-x="2048" 
d="M0 555v90h2048v-90h-2048z" />
    <glyph glyph-name="quoteleft" unicode="&#x2018;" horiz-adv-x="438" 
d="M219 985h-106l153 449h76z" />
    <glyph glyph-name="quoteright" unicode="&#x2019;" horiz-adv-x="438" 
d="M186 985h-73l125 449h104z" />
    <glyph glyph-name="quotesinglbase" unicode="&#x201a;" horiz-adv-x="438" 
d="M152 -225h-74l125 444h104z" />
    <glyph glyph-name="quotedblleft" unicode="&#x201c;" horiz-adv-x="686" 
d="M465 985h-105l156 449h74zM219 985h-106l153 449h76z" />
    <glyph glyph-name="quotedblright" unicode="&#x201d;" horiz-adv-x="686" 
d="M436 985h-76l123 449h107zM186 985h-73l125 449h104z" />
    <glyph glyph-name="quotedblbase" unicode="&#x201e;" horiz-adv-x="686" 
d="M401 -229h-75l123 448h106zM152 -229h-74l125 448h104z" />
    <glyph glyph-name="dagger" unicode="&#x2020;" horiz-adv-x="756" 
d="M708 933l-272 30l-30 -734h-36l-30 734l-292 -30v110l312 -20l-30 410h116l-30 -410l292 20v-110z" />
    <glyph glyph-name="daggerdbl" unicode="&#x2021;" horiz-adv-x="756" 
d="M708 519l-292 30l30 -320h-116l30 320l-312 -30v110l292 -20l38 222l-38 222l-292 -20v110l312 -30l-30 320h116l-30 -320l292 30v-110l-272 20l-38 -222l38 -222l272 20v-110z" />
    <glyph glyph-name="bullet" unicode="&#x2022;" horiz-adv-x="811" 
d="M408 477c-67.333 0 -124.833 23.333 -172.5 70s-71.5 102 -71.5 166c0 64.667 23.833 121 71.5 169s105.167 72 172.5 72c66 0 122.333 -23.667 169 -71s70 -104 70 -170c0 -65.333 -23.333 -121 -70 -167s-103 -69 -169 -69z" />
    <glyph glyph-name="ellipsis" unicode="&#x2026;" horiz-adv-x="1364" 
d="M1139 -16c-22.667 0 -41.667 7.83301 -57 23.5s-23 35.167 -23 58.5c0 22.667 7.66699 41.5 23 56.5s34.333 22.5 57 22.5s42 -7.5 58 -22.5s24 -33.833 24 -56.5c0 -23.333 -8 -42.833 -24 -58.5s-35.333 -23.5 -58 -23.5zM678 -16c-22.667 0 -41.667 7.83301 -57 23.5
s-23 35.167 -23 58.5c0 22.667 7.66699 41.5 23 56.5s34.333 22.5 57 22.5s42 -7.5 58 -22.5s24 -33.833 24 -56.5c0 -23.333 -8 -42.833 -24 -58.5s-35.333 -23.5 -58 -23.5zM221 -16c-22.667 0 -41.667 7.83301 -57 23.5s-23 35.167 -23 58.5
c0 22.667 7.66699 41.5 23 56.5s34.333 22.5 57 22.5s42 -7.5 58 -22.5s24 -33.833 24 -56.5c0 -23.333 -8 -42.833 -24 -58.5s-35.333 -23.5 -58 -23.5z" />
    <glyph glyph-name="perthousand" unicode="&#x2030;" horiz-adv-x="2445" 
d="M414 729c-102.667 0 -183.667 33.668 -243 101.001s-89 154.666 -89 261.999c0 116.667 31.5 207.5 94.5 272.5s145.5 97.5 247.5 97.5c100 0 179.333 -32.333 238 -97s88 -155 88 -271c0 -104 -30.5 -190.833 -91.5 -260.5s-142.5 -104.5 -244.5 -104.5zM422 1380
c-76.667 0 -137.166 -25.5 -181.499 -76.5s-66.5 -122.167 -66.5 -213.5c0 -86 21.5 -154.333 64.5 -205s102.167 -76 177.5 -76c76 0 135.5 26 178.5 78s64.5 121.667 64.5 209c0 94 -21.333 164.833 -64 212.5s-100.334 71.5 -173.001 71.5zM416.001 -32.999h-99l863 1465
h96zM2021 -24.999c-102.667 0 -183.5 33.6689 -242.5 101.002s-88.5 154.666 -88.5 261.999c0 118 32 209.333 96 274s146 97 246 97s179.167 -32.833 237.5 -98.5s87.5 -155.834 87.5 -270.501c0 -104 -30.5 -190.833 -91.5 -260.5s-142.5 -104.5 -244.5 -104.5z
M2030 627.003c-75.333 0 -135.499 -25.501 -180.499 -76.501s-67.5 -122.5 -67.5 -214.5c0 -85.333 21.333 -153.5 64 -204.5s101.667 -76.5 177 -76.5c76.667 0 136.5 25.833 179.5 77.5s64.5 121.5 64.5 209.5c0 94.667 -21.333 165.834 -64 213.501
s-100.334 71.5 -173.001 71.5zM1198 -24.998c-102 0 -182.833 33.667 -242.5 101s-89.5 154.666 -89.5 261.999c0 118 32 209.333 96 274s146 97 246 97s179.333 -32.667 238 -98s88 -155.666 88 -270.999c0 -104 -30.5 -190.833 -91.5 -260.5s-142.5 -104.5 -244.5 -104.5z
M1206 627.002c-76 0 -136.333 -26 -181 -78s-67 -123 -67 -213c0 -86 21.5 -154.333 64.5 -205s102.167 -76 177.5 -76c76.667 0 136.5 25.833 179.5 77.5s64.5 121.5 64.5 209.5c0 94 -21.333 165 -64 213s-100.667 72 -174 72z" />
    <glyph glyph-name="guilsinglleft" unicode="&#x2039;" horiz-adv-x="635" 
d="M401 201l-278 336l278 344h113l-283 -344l281 -336h-111z" />
    <glyph glyph-name="guilsinglright" unicode="&#x203a;" horiz-adv-x="635" 
d="M238 201h-115l285 344l-283 336h113l276 -336z" />
    <glyph glyph-name="Euro" unicode="&#x20ac;" horiz-adv-x="1055" 
d="M963 53c-86.667 -52 -178.33 -78 -274.997 -78c-118.667 0 -219.667 45 -303 135s-137.333 220 -162 390h-145v84h137c-2.66699 32 -4 66 -4 102c0 47.333 2 92.333 6 135h-139v84h149c29.333 176 88.666 312.167 177.999 408.5s197.333 144.5 324 144.5
c85.333 0 163.333 -17.667 234 -53v-102c-78.667 47.333 -159.334 71 -242.001 71c-97.333 0 -182 -39.833 -254 -119.5s-120.333 -196.167 -145 -349.5h542v-84h-553c-2.66699 -22.667 -4 -63.667 -4 -123c0 -38.667 1.33301 -76.667 4 -114h553v-84h-542
c22 -146 66.667 -256 134 -330s148.666 -111 243.999 -111c84 0 171.667 31 263 93v-99z" />
    <glyph glyph-name="afii61352" unicode="&#x2116;" horiz-adv-x="2320" 
d="M2202 1028c0 -56 -7.83301 -109.331 -23.5 -159.998s-39.334 -95.5 -71.001 -134.5s-71.834 -70 -120.501 -93s-106 -34.5 -172 -34.5c-65.333 0 -122.333 11.333 -171 34s-89 53.167 -121 91.5s-56 82.666 -72 132.999s-24 103.5 -24 159.5c0 76 11.167 141 33.5 195
s51.833 98.167 88.5 132.5s78.834 59.666 126.501 75.999s96.834 24.5 147.501 24.5c58 0 110.333 -9.5 157 -28.5s86.5 -46.5 119.5 -82.5s58.333 -80.333 76 -133s26.5 -112.667 26.5 -180zM1460 350.002v78h709v-78h-709zM1168 0.00195312l-831.999 1169
c-3.33301 5.33301 -7.83301 12 -13.5 20l-17 24.5l-16.5 25c-5.33301 8.33301 -9.33301 15.166 -12 20.499h-4c0.666992 -8.66699 1.16699 -18.5 1.5 -29.5s0.5 -22.167 0.5 -33.5v-33.5v-30.5v-1132h-91v1434h74l825 -1159l15.5 -22.5l17 -25l16.5 -24
c5.33301 -7.66699 9.66602 -14.5 12.999 -20.5h4c-1.33301 18 -2.33301 38.5 -3 61.5s-1 42.5 -1 58.5v1131h90v-1434h-67zM2116 1030c0 58.667 -6.99805 109.834 -20.998 153.501s-34 79.667 -60 108s-57.333 49.5 -94 63.5s-77.334 21 -122.001 21
c-46.667 0 -88.834 -7.83301 -126.501 -23.5s-69.834 -38.5 -96.501 -68.5s-47.167 -66.833 -61.5 -110.5s-21.5 -93.5 -21.5 -149.5c0 -50.667 6.66699 -96.834 20 -138.501s32.833 -77.5 58.5 -107.5s57.334 -53.167 95.001 -69.5s80.5 -24.5 128.5 -24.5
c50.667 0 95 8.33301 133 25s69.333 40.334 94 71.001s43.167 67.167 55.5 109.5s18.5 89.166 18.5 140.499z" />
    <glyph glyph-name="trademark" unicode="&#x2122;" horiz-adv-x="1585" 
d="M1294 772v533h-4l-227 -533h-68l-217 533h-4v-533h-82v662h115l223 -545h4l234 545h108v-662h-82zM373 1356v-584h-82v584h-221v78h526v-78h-223z" />
    <glyph glyph-name="glyph1" 
 />
    <glyph glyph-name="glyph98" 
 />
    <glyph glyph-name="glyph99" 
 />
    <glyph glyph-name="glyph100" 
 />
    <glyph glyph-name="glyph101" 
 />
    <glyph glyph-name="glyph102" 
 />
    <glyph glyph-name="glyph103" 
 />
    <glyph glyph-name="glyph104" 
 />
    <glyph glyph-name="glyph105" 
 />
    <glyph glyph-name="glyph106" 
 />
    <glyph glyph-name="glyph107" 
 />
    <glyph glyph-name="glyph108" 
 />
    <glyph glyph-name="glyph109" 
 />
    <glyph glyph-name="glyph110" 
 />
    <glyph glyph-name="glyph111" 
 />
    <glyph glyph-name="glyph112" 
 />
    <glyph glyph-name="glyph113" 
 />
    <glyph glyph-name="glyph114" 
 />
    <glyph glyph-name="glyph115" 
 />
    <glyph glyph-name="glyph116" 
 />
    <glyph glyph-name="glyph117" 
 />
    <glyph glyph-name="glyph118" 
 />
    <glyph glyph-name="glyph119" 
 />
    <glyph glyph-name="glyph120" 
 />
    <glyph glyph-name="glyph121" 
 />
    <glyph glyph-name="glyph122" 
 />
    <glyph glyph-name="glyph123" 
 />
    <glyph glyph-name="glyph124" 
 />
    <glyph glyph-name="glyph125" 
 />
    <glyph glyph-name="glyph126" 
 />
    <glyph glyph-name="glyph127" 
 />
    <glyph glyph-name="glyph128" 
 />
    <glyph glyph-name="glyph129" 
 />
    <glyph glyph-name="glyph132" 
 />
    <glyph glyph-name="glyph133" 
 />
    <glyph glyph-name="glyph137" 
 />
    <glyph glyph-name="glyph144" 
 />
    <glyph glyph-name="glyph145" 
 />
    <glyph glyph-name="glyph146" 
 />
    <glyph glyph-name="glyph147" 
 />
    <glyph glyph-name="glyph149" 
 />
    <glyph glyph-name="glyph150" 
 />
    <glyph glyph-name="glyph151" 
 />
    <glyph glyph-name="glyph153" 
 />
    <glyph glyph-name="glyph154" 
 />
    <glyph glyph-name="glyph155" 
 />
    <glyph glyph-name="glyph156" 
 />
    <glyph glyph-name="glyph157" 
 />
    <glyph glyph-name="glyph158" 
 />
    <glyph glyph-name="glyph159" 
 />
    <glyph glyph-name="glyph160" 
 />
    <glyph glyph-name="glyph161" 
 />
    <glyph glyph-name="glyph162" 
 />
    <glyph glyph-name="glyph163" 
 />
    <glyph glyph-name="glyph164" 
 />
    <glyph glyph-name="glyph166" 
 />
    <glyph glyph-name="glyph167" 
 />
    <glyph glyph-name="glyph168" 
 />
    <glyph glyph-name="glyph169" 
 />
    <glyph glyph-name="glyph173" 
 />
    <glyph glyph-name="glyph174" 
 />
    <glyph glyph-name="glyph175" 
 />
    <glyph glyph-name="glyph176" 
 />
    <glyph glyph-name="glyph177" 
 />
    <glyph glyph-name="glyph184" 
 />
    <glyph glyph-name="glyph185" 
 />
    <glyph glyph-name="glyph186" 
 />
    <glyph glyph-name="glyph187" 
 />
    <glyph glyph-name="slash.frac" 
 />
    <glyph glyph-name="glyph192" 
 />
    <glyph glyph-name="glyph193" 
 />
    <glyph glyph-name="glyph195" 
 />
    <glyph glyph-name="glyph199" 
 />
    <glyph glyph-name="glyph200" 
 />
    <glyph glyph-name="glyph201" 
 />
    <glyph glyph-name="glyph202" 
 />
    <glyph glyph-name="glyph203" 
 />
    <glyph glyph-name="glyph204" 
 />
    <glyph glyph-name="glyph205" 
 />
    <glyph glyph-name="glyph206" 
 />
    <glyph glyph-name="glyph207" 
 />
    <glyph glyph-name="glyph208" 
 />
    <glyph glyph-name="glyph209" 
 />
    <glyph glyph-name="glyph210" 
 />
    <glyph glyph-name="glyph211" 
 />
    <glyph glyph-name="glyph212" 
 />
    <glyph glyph-name="glyph213" 
 />
    <glyph glyph-name="glyph215" 
 />
    <glyph glyph-name="glyph216" 
 />
    <glyph glyph-name="glyph217" 
 />
    <glyph glyph-name="glyph218" 
 />
    <glyph glyph-name="glyph219" 
 />
    <glyph glyph-name="glyph220" 
 />
    <glyph glyph-name="glyph221" 
 />
    <glyph glyph-name="glyph222" 
 />
    <glyph glyph-name="glyph223" 
 />
    <glyph glyph-name="glyph224" 
 />
    <glyph glyph-name="glyph225" 
 />
    <glyph glyph-name="glyph226" 
 />
    <glyph glyph-name="glyph227" 
 />
    <glyph glyph-name="glyph228" 
 />
    <glyph glyph-name="glyph229" 
 />
    <glyph glyph-name="glyph230" 
 />
    <glyph glyph-name="glyph232" 
 />
    <glyph glyph-name="glyph233" 
 />
    <glyph glyph-name="glyph234" 
 />
    <glyph glyph-name="glyph235" 
 />
    <glyph glyph-name="glyph236" 
 />
    <glyph glyph-name="glyph237" 
 />
    <glyph glyph-name="glyph238" 
 />
    <glyph glyph-name="glyph239" 
 />
    <glyph glyph-name="one.frac" 
 />
    <glyph glyph-name="two.frac" 
 />
    <glyph glyph-name="three.frac" 
 />
    <glyph glyph-name="one_slash_two.frac" 
 />
    <glyph glyph-name="one_slash_four.frac" 
 />
    <glyph glyph-name="three_slash_four.frac" 
 />
    <glyph glyph-name="glyph246" 
 />
    <glyph glyph-name="glyph247" 
 />
    <glyph glyph-name="glyph248" 
 />
    <glyph glyph-name="glyph249" 
 />
    <glyph glyph-name="glyph250" 
 />
    <glyph glyph-name="glyph251" 
 />
    <glyph glyph-name="glyph252" 
 />
    <glyph glyph-name="glyph253" 
 />
    <glyph glyph-name="glyph254" 
 />
    <glyph glyph-name="glyph255" 
 />
    <glyph glyph-name="glyph256" 
 />
    <glyph glyph-name="glyph257" 
 />
    <glyph glyph-name="glyph258" 
 />
    <glyph glyph-name="glyph259" 
 />
    <glyph glyph-name="glyph260" 
 />
    <glyph glyph-name="glyph261" 
 />
    <glyph glyph-name="glyph262" 
 />
    <glyph glyph-name="glyph263" 
 />
    <glyph glyph-name="glyph264" 
 />
    <glyph glyph-name="glyph265" 
 />
    <glyph glyph-name="glyph266" 
 />
    <glyph glyph-name="glyph267" 
 />
    <glyph glyph-name="glyph268" 
 />
    <glyph glyph-name="glyph269" 
 />
    <glyph glyph-name="glyph270" 
 />
    <glyph glyph-name="glyph271" 
 />
    <glyph glyph-name="glyph272" 
 />
    <glyph glyph-name="glyph273" 
 />
    <glyph glyph-name="glyph274" 
 />
    <glyph glyph-name="glyph275" 
 />
    <glyph glyph-name="glyph276" 
 />
    <glyph glyph-name="glyph277" 
 />
    <glyph glyph-name="glyph278" 
 />
    <glyph glyph-name="glyph279" 
 />
    <glyph glyph-name="glyph280" 
 />
    <glyph glyph-name="glyph281" 
 />
    <glyph glyph-name="glyph282" 
 />
    <glyph glyph-name="glyph283" 
 />
    <glyph glyph-name="glyph284" 
 />
    <glyph glyph-name="glyph285" 
 />
    <glyph glyph-name="glyph286" 
 />
    <glyph glyph-name="glyph287" 
 />
    <glyph glyph-name="glyph288" 
 />
    <glyph glyph-name="glyph289" 
 />
    <glyph glyph-name="glyph290" 
 />
    <glyph glyph-name="glyph291" 
 />
    <glyph glyph-name="glyph292" 
 />
    <glyph glyph-name="glyph293" 
 />
    <glyph glyph-name="glyph294" 
 />
    <glyph glyph-name="glyph295" 
 />
    <glyph glyph-name="glyph296" 
 />
    <glyph glyph-name="glyph297" 
 />
    <glyph glyph-name="glyph298" 
 />
    <glyph glyph-name="glyph299" 
 />
    <glyph glyph-name="glyph300" 
 />
    <glyph glyph-name="glyph301" 
 />
    <glyph glyph-name="glyph302" 
 />
    <glyph glyph-name="glyph303" 
 />
    <glyph glyph-name="glyph304" 
 />
    <glyph glyph-name="glyph305" 
 />
    <glyph glyph-name="glyph306" 
 />
    <glyph glyph-name="glyph307" 
 />
    <glyph glyph-name="glyph308" 
 />
    <glyph glyph-name="glyph309" 
 />
    <glyph glyph-name="glyph310" 
 />
    <glyph glyph-name="n.superior" 
 />
    <glyph glyph-name="glyph312" 
 />
    <glyph glyph-name="glyph313" 
 />
    <glyph glyph-name="glyph314" 
 />
    <glyph glyph-name="glyph315" 
 />
    <glyph glyph-name="glyph316" 
 />
    <glyph glyph-name="glyph317" 
 />
    <glyph glyph-name="glyph318" 
 />
    <glyph glyph-name="glyph319" 
 />
    <glyph glyph-name="glyph320" 
 />
    <glyph glyph-name="glyph321" 
 />
    <glyph glyph-name="glyph322" 
 />
    <glyph glyph-name="glyph323" 
 />
    <glyph glyph-name="glyph324" 
 />
    <glyph glyph-name="glyph325" 
 />
    <glyph glyph-name="glyph326" 
 />
    <glyph glyph-name="glyph327" 
 />
    <glyph glyph-name="glyph328" 
 />
    <glyph glyph-name="glyph329" 
 />
    <glyph glyph-name="glyph330" 
 />
    <glyph glyph-name="glyph331" 
 />
    <glyph glyph-name="glyph332" 
 />
    <glyph glyph-name="glyph333" 
 />
    <glyph glyph-name="glyph334" 
 />
    <glyph glyph-name="glyph335" 
 />
    <glyph glyph-name="glyph336" 
 />
    <glyph glyph-name="glyph337" 
 />
    <glyph glyph-name="glyph338" 
 />
    <glyph glyph-name="glyph339" 
 />
    <glyph glyph-name="glyph340" 
 />
    <glyph glyph-name="glyph341" 
 />
    <glyph glyph-name="glyph342" 
 />
    <glyph glyph-name="glyph343" 
 />
    <glyph glyph-name="glyph344" 
 />
    <glyph glyph-name="glyph345" 
 />
    <glyph glyph-name="glyph346" 
 />
    <glyph glyph-name="glyph347" 
 />
    <glyph glyph-name="glyph348" 
 />
    <glyph glyph-name="glyph349" 
 />
    <glyph glyph-name="glyph350" 
 />
    <glyph glyph-name="glyph351" 
 />
    <glyph glyph-name="glyph352" 
 />
    <glyph glyph-name="glyph353" 
 />
    <glyph glyph-name="glyph354" 
 />
    <glyph glyph-name="glyph355" 
 />
    <glyph glyph-name="glyph356" 
 />
    <glyph glyph-name="glyph357" 
 />
    <glyph glyph-name="glyph358" 
 />
    <glyph glyph-name="glyph359" 
 />
    <glyph glyph-name="glyph360" 
 />
    <glyph glyph-name="glyph361" 
 />
    <glyph glyph-name="glyph362" 
 />
    <glyph glyph-name="glyph363" 
 />
    <glyph glyph-name="glyph364" 
 />
    <glyph glyph-name="glyph365" 
 />
    <glyph glyph-name="glyph366" 
 />
    <glyph glyph-name="glyph367" 
 />
    <glyph glyph-name="glyph368" 
 />
    <glyph glyph-name="glyph369" 
 />
    <glyph glyph-name="glyph370" 
 />
    <glyph glyph-name="glyph371" 
 />
    <glyph glyph-name="glyph372" 
 />
    <glyph glyph-name="glyph373" 
 />
    <glyph glyph-name="glyph374" 
 />
    <glyph glyph-name="glyph375" 
 />
    <glyph glyph-name="glyph376" 
 />
    <glyph glyph-name="glyph377" 
 />
    <glyph glyph-name="glyph378" 
 />
    <glyph glyph-name="glyph379" 
 />
    <glyph glyph-name="glyph380" 
 />
    <glyph glyph-name="glyph381" 
 />
    <glyph glyph-name="glyph382" 
 />
    <glyph glyph-name="glyph383" 
 />
    <glyph glyph-name="glyph384" 
 />
    <glyph glyph-name="glyph385" 
 />
    <glyph glyph-name="glyph386" 
 />
    <glyph glyph-name="glyph387" 
 />
    <glyph glyph-name="glyph388" 
 />
    <glyph glyph-name="glyph389" 
 />
    <glyph glyph-name="glyph390" 
 />
    <glyph glyph-name="glyph391" 
 />
    <glyph glyph-name="glyph392" 
 />
    <glyph glyph-name="glyph393" 
 />
    <glyph glyph-name="glyph394" 
 />
    <glyph glyph-name="glyph395" 
 />
    <glyph glyph-name="glyph396" 
 />
    <glyph glyph-name="glyph397" 
 />
    <glyph glyph-name="glyph398" 
 />
    <glyph glyph-name="glyph399" 
 />
    <glyph glyph-name="glyph400" 
 />
    <glyph glyph-name="glyph401" 
 />
    <glyph glyph-name="glyph402" 
 />
    <glyph glyph-name="glyph403" 
 />
    <glyph glyph-name="glyph404" 
 />
    <glyph glyph-name="glyph405" 
 />
    <glyph glyph-name="glyph406" 
 />
    <glyph glyph-name="glyph407" 
 />
    <glyph glyph-name="glyph408" 
 />
    <glyph glyph-name="glyph409" 
 />
    <glyph glyph-name="glyph410" 
 />
    <glyph glyph-name="glyph411" 
 />
    <glyph glyph-name="glyph412" 
 />
    <glyph glyph-name="glyph413" 
 />
    <glyph glyph-name="glyph414" 
 />
    <glyph glyph-name="glyph415" 
 />
    <glyph glyph-name="glyph416" 
 />
    <glyph glyph-name="glyph417" 
 />
    <glyph glyph-name="glyph418" 
 />
    <glyph glyph-name="glyph419" 
 />
    <glyph glyph-name="glyph420" 
 />
    <glyph glyph-name="glyph421" 
 />
    <glyph glyph-name="glyph422" 
 />
    <glyph glyph-name="glyph423" 
 />
    <glyph glyph-name="glyph424" 
 />
    <glyph glyph-name="glyph425" 
 />
    <glyph glyph-name="glyph426" 
 />
    <glyph glyph-name="glyph427" 
 />
    <glyph glyph-name="glyph428" 
 />
    <glyph glyph-name="glyph429" 
 />
    <glyph glyph-name="glyph430" 
 />
    <glyph glyph-name="glyph431" 
 />
    <glyph glyph-name="glyph432" 
 />
    <glyph glyph-name="glyph433" 
 />
    <glyph glyph-name="glyph434" 
 />
    <glyph glyph-name="glyph435" 
 />
    <glyph glyph-name="glyph436" 
 />
    <glyph glyph-name="glyph437" 
 />
    <glyph glyph-name="glyph438" 
 />
    <glyph glyph-name="glyph439" 
 />
    <glyph glyph-name="glyph440" 
 />
    <glyph glyph-name="glyph441" 
 />
    <glyph glyph-name="glyph442" 
 />
    <glyph glyph-name="glyph443" 
 />
    <glyph glyph-name="glyph444" 
 />
    <glyph glyph-name="glyph445" 
 />
    <glyph glyph-name="glyph446" 
 />
    <glyph glyph-name="glyph447" 
 />
    <glyph glyph-name="glyph448" 
 />
    <glyph glyph-name="glyph449" 
 />
    <glyph glyph-name="glyph450" 
 />
    <glyph glyph-name="glyph451" 
 />
    <glyph glyph-name="glyph452" 
 />
    <glyph glyph-name="glyph453" 
 />
    <glyph glyph-name="glyph454" 
 />
    <glyph glyph-name="glyph455" 
 />
    <glyph glyph-name="glyph456" 
 />
    <glyph glyph-name="glyph457" 
 />
    <glyph glyph-name="glyph458" 
 />
    <glyph glyph-name="glyph459" 
 />
    <glyph glyph-name="glyph460" 
 />
    <glyph glyph-name="glyph461" 
 />
    <glyph glyph-name="glyph462" 
 />
    <glyph glyph-name="glyph463" 
 />
    <glyph glyph-name="glyph464" 
 />
    <glyph glyph-name="glyph465" 
 />
    <glyph glyph-name="glyph466" 
 />
    <glyph glyph-name="glyph467" 
 />
    <glyph glyph-name="glyph468" 
 />
    <glyph glyph-name="glyph469" 
 />
    <glyph glyph-name="glyph470" 
 />
    <glyph glyph-name="glyph471" 
 />
    <glyph glyph-name="glyph472" 
 />
    <glyph glyph-name="glyph473" 
 />
    <glyph glyph-name="glyph474" 
 />
    <glyph glyph-name="glyph565" 
 />
    <glyph glyph-name="glyph567" 
 />
    <glyph glyph-name="four.frac" 
 />
    <glyph glyph-name="five.frac" 
 />
    <glyph glyph-name="seven.frac" 
 />
    <glyph glyph-name="eight.frac" 
 />
    <glyph glyph-name="glyph572" 
 />
    <glyph glyph-name="glyph573" 
 />
    <glyph glyph-name="glyph574" 
 />
    <glyph glyph-name="glyph576" 
 />
    <glyph glyph-name="glyph577" 
 />
    <glyph glyph-name="glyph578" 
 />
    <glyph glyph-name="glyph579" 
 />
    <glyph glyph-name="glyph580" 
 />
    <glyph glyph-name="glyph581" 
 />
    <glyph glyph-name="glyph582" 
 />
    <glyph glyph-name="glyph583" 
 />
    <glyph glyph-name="glyph584" 
 />
    <glyph glyph-name="glyph585" 
 />
    <glyph glyph-name="glyph586" 
 />
    <glyph glyph-name="glyph587" 
 />
    <glyph glyph-name="glyph588" 
 />
    <glyph glyph-name="glyph589" 
 />
    <glyph glyph-name="glyph590" 
 />
    <glyph glyph-name="glyph591" 
 />
    <glyph glyph-name="glyph592" 
 />
    <glyph glyph-name="glyph593" 
 />
    <glyph glyph-name="glyph594" 
 />
    <glyph glyph-name="glyph595" 
 />
    <glyph glyph-name="glyph596" 
 />
    <glyph glyph-name="glyph597" 
 />
    <glyph glyph-name="glyph598" 
 />
    <glyph glyph-name="glyph599" 
 />
    <glyph glyph-name="glyph600" 
 />
    <glyph glyph-name="glyph601" 
 />
    <glyph glyph-name="glyph602" 
 />
    <glyph glyph-name="glyph603" 
 />
    <glyph glyph-name="glyph604" 
 />
    <glyph glyph-name="glyph605" 
 />
    <glyph glyph-name="glyph606" 
 />
    <glyph glyph-name="glyph607" 
 />
    <glyph glyph-name="glyph608" 
 />
    <glyph glyph-name="glyph609" 
 />
    <glyph glyph-name="glyph610" 
 />
    <glyph glyph-name="glyph611" 
 />
    <glyph glyph-name="glyph612" 
 />
    <glyph glyph-name="glyph613" 
 />
    <glyph glyph-name="glyph614" 
 />
    <glyph glyph-name="glyph615" 
 />
    <glyph glyph-name="glyph616" 
 />
    <glyph glyph-name="glyph617" 
 />
    <glyph glyph-name="glyph618" 
 />
    <glyph glyph-name="glyph619" 
 />
    <glyph glyph-name="glyph620" 
 />
    <glyph glyph-name="glyph621" 
 />
    <glyph glyph-name="glyph622" 
 />
    <glyph glyph-name="glyph623" 
 />
    <glyph glyph-name="glyph624" 
 />
    <glyph glyph-name="glyph625" 
 />
    <glyph glyph-name="glyph626" 
 />
    <glyph glyph-name="glyph627" 
 />
    <glyph glyph-name="glyph628" 
 />
    <glyph glyph-name="glyph629" 
 />
    <glyph glyph-name="glyph630" 
 />
    <glyph glyph-name="glyph631" 
 />
    <glyph glyph-name="glyph632" 
 />
    <glyph glyph-name="glyph633" 
 />
    <glyph glyph-name="glyph634" 
 />
    <glyph glyph-name="glyph635" 
 />
    <glyph glyph-name="glyph636" 
 />
    <glyph glyph-name="glyph637" 
 />
    <glyph glyph-name="glyph638" 
 />
    <glyph glyph-name="glyph639" 
 />
    <glyph glyph-name="glyph640" 
 />
    <glyph glyph-name="glyph641" 
 />
    <glyph glyph-name="glyph642" 
 />
    <glyph glyph-name="glyph643" 
 />
    <glyph glyph-name="glyph644" 
 />
    <glyph glyph-name="glyph645" 
 />
    <glyph glyph-name="glyph646" 
 />
    <glyph glyph-name="glyph647" 
 />
    <glyph glyph-name="glyph648" 
 />
    <glyph glyph-name="glyph649" 
 />
    <glyph glyph-name="glyph650" 
 />
    <glyph glyph-name="glyph651" 
 />
    <glyph glyph-name="glyph652" 
 />
    <glyph glyph-name="glyph653" 
 />
    <glyph glyph-name="glyph654" 
 />
    <glyph glyph-name="glyph655" 
 />
    <glyph glyph-name="glyph656" 
 />
    <glyph glyph-name="glyph657" 
 />
    <glyph glyph-name="glyph658" 
 />
    <glyph glyph-name="glyph659" 
 />
    <glyph glyph-name="glyph660" 
 />
    <glyph glyph-name="glyph661" 
 />
    <glyph glyph-name="glyph662" 
 />
    <glyph glyph-name="glyph663" 
 />
    <glyph glyph-name="glyph664" 
 />
    <glyph glyph-name="glyph665" 
 />
    <glyph glyph-name="glyph666" 
 />
    <glyph glyph-name="glyph667" 
 />
    <glyph glyph-name="glyph668" 
 />
    <glyph glyph-name="glyph669" 
 />
    <glyph glyph-name="glyph670" 
 />
    <glyph glyph-name="glyph671" 
 />
    <glyph glyph-name="glyph672" 
 />
    <glyph glyph-name="glyph673" 
 />
    <glyph glyph-name="glyph674" 
 />
    <glyph glyph-name="glyph675" 
 />
    <glyph glyph-name="glyph676" 
 />
    <glyph glyph-name="glyph677" 
 />
    <glyph glyph-name="glyph678" 
 />
    <glyph glyph-name="glyph679" 
 />
    <glyph glyph-name="glyph680" 
 />
    <glyph glyph-name="glyph681" 
 />
    <glyph glyph-name="glyph682" 
 />
    <glyph glyph-name="glyph683" 
 />
    <glyph glyph-name="glyph684" 
 />
    <glyph glyph-name="glyph685" 
 />
    <glyph glyph-name="glyph686" 
 />
    <glyph glyph-name="glyph687" 
 />
    <glyph glyph-name="glyph688" 
 />
    <glyph glyph-name="glyph689" 
 />
    <glyph glyph-name="glyph690" 
 />
    <glyph glyph-name="glyph691" 
 />
    <glyph glyph-name="glyph692" 
 />
    <glyph glyph-name="glyph697" 
 />
    <glyph glyph-name="glyph698" 
 />
    <glyph glyph-name="glyph699" 
 />
    <glyph glyph-name="glyph700" 
 />
    <glyph glyph-name="glyph701" 
 />
    <glyph glyph-name="glyph702" 
 />
    <glyph glyph-name="glyph703" 
 />
    <glyph glyph-name="glyph704" 
 />
    <glyph glyph-name="glyph705" 
 />
    <glyph glyph-name="glyph706" 
 />
    <glyph glyph-name="glyph707" 
 />
    <glyph glyph-name="glyph708" 
 />
    <glyph glyph-name="glyph709" 
 />
    <glyph glyph-name="glyph710" 
 />
    <glyph glyph-name="glyph711" 
 />
    <glyph glyph-name="glyph712" 
 />
    <glyph glyph-name="glyph713" 
 />
    <glyph glyph-name="glyph714" 
 />
    <glyph glyph-name="glyph715" 
 />
    <glyph glyph-name="glyph716" 
 />
    <glyph glyph-name="glyph717" 
 />
    <glyph glyph-name="glyph718" 
 />
    <glyph glyph-name="glyph719" 
 />
    <glyph glyph-name="glyph720" 
 />
    <glyph glyph-name="glyph721" 
 />
    <glyph glyph-name="glyph722" 
 />
    <glyph glyph-name="glyph723" 
 />
    <glyph glyph-name="glyph724" 
 />
    <glyph glyph-name="glyph725" 
 />
    <glyph glyph-name="glyph726" 
 />
    <glyph glyph-name="glyph727" 
 />
    <glyph glyph-name="glyph728" 
 />
    <glyph glyph-name="glyph729" 
 />
    <glyph glyph-name="glyph730" 
 />
    <glyph glyph-name="glyph731" 
 />
    <glyph glyph-name="glyph732" 
 />
    <glyph glyph-name="glyph733" 
 />
    <glyph glyph-name="glyph734" 
 />
    <glyph glyph-name="glyph735" 
 />
    <glyph glyph-name="glyph736" 
 />
    <glyph glyph-name="glyph737" 
 />
    <glyph glyph-name="glyph738" 
 />
    <glyph glyph-name="glyph739" 
 />
    <glyph glyph-name="glyph740" 
 />
    <glyph glyph-name="glyph741" 
 />
    <glyph glyph-name="glyph742" 
 />
    <glyph glyph-name="glyph743" 
 />
    <glyph glyph-name="glyph744" 
 />
    <glyph glyph-name="glyph745" 
 />
    <glyph glyph-name="glyph746" 
 />
    <glyph glyph-name="glyph747" 
 />
    <glyph glyph-name="glyph748" 
 />
    <glyph glyph-name="glyph749" 
 />
    <glyph glyph-name="glyph750" 
 />
    <glyph glyph-name="glyph751" 
 />
    <glyph glyph-name="glyph752" 
 />
    <glyph glyph-name="glyph753" 
 />
    <glyph glyph-name="glyph754" 
 />
    <glyph glyph-name="glyph755" 
 />
    <glyph glyph-name="glyph756" 
 />
    <glyph glyph-name="glyph757" 
 />
    <glyph glyph-name="glyph758" 
 />
    <glyph glyph-name="glyph759" 
 />
    <glyph glyph-name="glyph760" 
 />
    <glyph glyph-name="glyph761" 
 />
    <glyph glyph-name="glyph762" 
 />
    <glyph glyph-name="glyph763" 
 />
    <glyph glyph-name="glyph764" 
 />
    <glyph glyph-name="glyph765" 
 />
    <glyph glyph-name="glyph766" 
 />
    <glyph glyph-name="glyph767" 
 />
    <glyph glyph-name="glyph768" 
 />
    <glyph glyph-name="glyph769" 
 />
    <glyph glyph-name="glyph770" 
 />
    <glyph glyph-name="glyph771" 
 />
    <glyph glyph-name="glyph772" 
 />
    <glyph glyph-name="glyph773" 
 />
    <glyph glyph-name="glyph774" 
 />
    <glyph glyph-name="glyph775" 
 />
    <glyph glyph-name="glyph776" 
 />
    <glyph glyph-name="glyph777" 
 />
    <glyph glyph-name="glyph778" 
 />
    <glyph glyph-name="glyph779" 
 />
    <glyph glyph-name="glyph780" 
 />
    <glyph glyph-name="glyph781" 
 />
    <glyph glyph-name="glyph782" 
 />
    <glyph glyph-name="glyph783" 
 />
    <glyph glyph-name="glyph784" 
 />
    <glyph glyph-name="glyph785" 
 />
    <glyph glyph-name="glyph786" 
 />
    <glyph glyph-name="glyph787" 
 />
    <glyph glyph-name="glyph788" 
 />
    <glyph glyph-name="glyph789" 
 />
    <glyph glyph-name="glyph790" 
 />
    <glyph glyph-name="glyph791" 
 />
    <glyph glyph-name="glyph792" 
 />
    <glyph glyph-name="glyph793" 
 />
    <glyph glyph-name="glyph794" 
 />
    <glyph glyph-name="glyph795" 
 />
    <glyph glyph-name="glyph796" 
 />
    <glyph glyph-name="glyph797" 
 />
    <glyph glyph-name="glyph798" 
 />
    <glyph glyph-name="glyph799" 
 />
    <glyph glyph-name="glyph800" 
 />
    <glyph glyph-name="glyph801" 
 />
    <glyph glyph-name="glyph802" 
 />
    <glyph glyph-name="glyph803" 
 />
    <glyph glyph-name="glyph804" 
 />
    <glyph glyph-name="glyph805" 
 />
    <glyph glyph-name="glyph806" 
 />
    <glyph glyph-name="glyph807" 
 />
    <glyph glyph-name="glyph808" 
 />
    <glyph glyph-name="glyph809" 
 />
    <glyph glyph-name="glyph810" 
 />
    <glyph glyph-name="glyph811" 
 />
    <glyph glyph-name="glyph812" 
 />
    <glyph glyph-name="glyph813" 
 />
    <glyph glyph-name="glyph814" 
 />
    <glyph glyph-name="glyph815" 
 />
    <glyph glyph-name="glyph816" 
 />
    <glyph glyph-name="glyph817" 
 />
    <glyph glyph-name="glyph818" 
 />
    <glyph glyph-name="glyph819" 
 />
    <glyph glyph-name="glyph820" 
 />
    <glyph glyph-name="glyph821" 
 />
    <glyph glyph-name="glyph822" 
 />
    <glyph glyph-name="glyph823" 
 />
    <glyph glyph-name="glyph824" 
 />
    <glyph glyph-name="glyph825" 
 />
    <glyph glyph-name="glyph826" 
 />
    <glyph glyph-name="glyph827" 
 />
    <glyph glyph-name="glyph828" 
 />
    <glyph glyph-name="glyph829" 
 />
    <glyph glyph-name="glyph830" 
 />
    <glyph glyph-name="glyph831" 
 />
    <glyph glyph-name="glyph832" 
 />
    <glyph glyph-name="glyph833" 
 />
    <glyph glyph-name="glyph834" 
 />
    <glyph glyph-name="glyph835" 
 />
    <glyph glyph-name="glyph836" 
 />
    <glyph glyph-name="glyph837" 
 />
    <glyph glyph-name="glyph838" 
 />
    <glyph glyph-name="glyph839" 
 />
    <glyph glyph-name="glyph840" 
 />
    <glyph glyph-name="glyph841" 
 />
    <glyph glyph-name="glyph842" 
 />
    <glyph glyph-name="glyph843" 
 />
    <glyph glyph-name="glyph844" 
 />
    <glyph glyph-name="glyph845" 
 />
    <glyph glyph-name="glyph846" 
 />
    <glyph glyph-name="glyph847" 
 />
    <glyph glyph-name="glyph848" 
 />
    <glyph glyph-name="glyph849" 
 />
    <glyph glyph-name="glyph850" 
 />
    <glyph glyph-name="glyph851" 
 />
    <glyph glyph-name="glyph852" 
 />
    <glyph glyph-name="glyph853" 
 />
    <glyph glyph-name="glyph854" 
 />
    <glyph glyph-name="glyph855" 
 />
    <glyph glyph-name="glyph856" 
 />
    <glyph glyph-name="glyph857" 
 />
    <glyph glyph-name="glyph858" 
 />
    <glyph glyph-name="glyph859" 
 />
    <glyph glyph-name="glyph860" 
 />
    <glyph glyph-name="glyph861" 
 />
    <glyph glyph-name="glyph862" 
 />
    <glyph glyph-name="glyph863" 
 />
    <glyph glyph-name="glyph864" 
 />
    <glyph glyph-name="glyph865" 
 />
    <glyph glyph-name="glyph866" 
 />
    <glyph glyph-name="glyph867" 
 />
    <glyph glyph-name="glyph868" 
 />
    <glyph glyph-name="glyph869" 
 />
    <glyph glyph-name="glyph870" 
 />
    <glyph glyph-name="glyph871" 
 />
    <glyph glyph-name="glyph872" 
 />
    <glyph glyph-name="glyph873" 
 />
    <glyph glyph-name="glyph874" 
 />
    <glyph glyph-name="glyph875" 
 />
    <glyph glyph-name="glyph876" 
 />
    <glyph glyph-name="glyph877" 
 />
    <glyph glyph-name="glyph878" 
 />
    <glyph glyph-name="glyph879" 
 />
    <glyph glyph-name="glyph880" 
 />
    <glyph glyph-name="glyph881" 
 />
    <glyph glyph-name="glyph882" 
 />
    <glyph glyph-name="glyph883" 
 />
    <glyph glyph-name="glyph884" 
 />
    <glyph glyph-name="glyph885" 
 />
    <glyph glyph-name="glyph886" 
 />
    <glyph glyph-name="glyph887" 
 />
    <glyph glyph-name="glyph888" 
 />
    <glyph glyph-name="glyph889" 
 />
    <glyph glyph-name="glyph890" 
 />
    <glyph glyph-name="glyph891" 
 />
    <glyph glyph-name="glyph892" 
 />
    <glyph glyph-name="glyph893" 
 />
    <glyph glyph-name="glyph894" 
 />
    <glyph glyph-name="glyph895" 
 />
    <glyph glyph-name="glyph896" 
 />
    <glyph glyph-name="glyph897" 
 />
    <glyph glyph-name="glyph898" 
 />
    <glyph glyph-name="glyph899" 
 />
    <glyph glyph-name="glyph900" 
 />
    <glyph glyph-name="glyph901" 
 />
    <glyph glyph-name="glyph902" 
 />
    <glyph glyph-name="glyph903" 
 />
    <glyph glyph-name="glyph904" 
 />
    <glyph glyph-name="glyph905" 
 />
    <glyph glyph-name="glyph906" 
 />
    <glyph glyph-name="glyph907" 
 />
    <glyph glyph-name="glyph908" 
 />
    <glyph glyph-name="glyph909" 
 />
    <glyph glyph-name="glyph910" 
 />
    <glyph glyph-name="glyph911" 
 />
    <glyph glyph-name="glyph912" 
 />
    <glyph glyph-name="glyph913" 
 />
    <glyph glyph-name="glyph914" 
 />
    <glyph glyph-name="glyph915" 
 />
    <glyph glyph-name="glyph916" 
 />
    <glyph glyph-name="glyph917" 
 />
    <glyph glyph-name="glyph918" 
 />
    <glyph glyph-name="glyph919" 
 />
    <glyph glyph-name="glyph920" 
 />
    <glyph glyph-name="glyph921" 
 />
    <glyph glyph-name="glyph922" 
 />
    <glyph glyph-name="glyph923" 
 />
    <glyph glyph-name="glyph924" 
 />
    <glyph glyph-name="glyph925" 
 />
    <glyph glyph-name="glyph926" 
 />
    <glyph glyph-name="glyph927" 
 />
    <glyph glyph-name="glyph928" 
 />
    <glyph glyph-name="glyph929" 
 />
    <glyph glyph-name="glyph930" 
 />
    <glyph glyph-name="glyph931" 
 />
    <glyph glyph-name="glyph932" 
 />
    <glyph glyph-name="glyph933" 
 />
    <glyph glyph-name="glyph934" 
 />
    <glyph glyph-name="glyph935" 
 />
    <glyph glyph-name="glyph936" 
 />
    <glyph glyph-name="glyph937" 
 />
    <glyph glyph-name="glyph938" 
 />
    <glyph glyph-name="glyph939" 
 />
    <glyph glyph-name="glyph940" 
 />
    <glyph glyph-name="glyph941" 
 />
    <glyph glyph-name="glyph942" 
 />
    <glyph glyph-name="glyph943" 
 />
    <glyph glyph-name="glyph944" 
 />
    <glyph glyph-name="glyph945" 
 />
    <glyph glyph-name="glyph946" 
 />
    <glyph glyph-name="glyph947" 
 />
    <glyph glyph-name="glyph948" 
 />
    <glyph glyph-name="glyph949" 
 />
    <glyph glyph-name="glyph950" 
 />
    <glyph glyph-name="glyph951" 
 />
    <glyph glyph-name="glyph952" 
 />
    <glyph glyph-name="glyph953" 
 />
    <glyph glyph-name="glyph954" 
 />
    <glyph glyph-name="glyph955" 
 />
    <glyph glyph-name="glyph956" 
 />
    <glyph glyph-name="glyph957" 
 />
    <glyph glyph-name="glyph958" 
 />
    <glyph glyph-name="glyph959" 
 />
    <glyph glyph-name="glyph960" 
 />
    <glyph glyph-name="glyph961" 
 />
    <glyph glyph-name="glyph962" 
 />
    <glyph glyph-name="glyph963" 
 />
    <glyph glyph-name="glyph964" 
 />
    <glyph glyph-name="glyph965" 
 />
    <glyph glyph-name="glyph966" 
 />
    <glyph glyph-name="glyph967" 
 />
    <glyph glyph-name="glyph968" 
 />
    <glyph glyph-name="glyph969" 
 />
    <glyph glyph-name="glyph970" 
 />
    <glyph glyph-name="glyph971" 
 />
    <glyph glyph-name="glyph972" 
 />
    <glyph glyph-name="glyph973" 
 />
    <glyph glyph-name="glyph974" 
 />
    <glyph glyph-name="glyph975" 
 />
    <glyph glyph-name="glyph976" 
 />
    <glyph glyph-name="glyph977" 
 />
    <glyph glyph-name="glyph978" 
 />
    <glyph glyph-name="glyph979" 
 />
    <glyph glyph-name="glyph980" 
 />
    <glyph glyph-name="glyph981" 
 />
    <glyph glyph-name="glyph982" 
 />
    <glyph glyph-name="glyph983" 
 />
    <glyph glyph-name="glyph984" 
 />
    <glyph glyph-name="glyph985" 
 />
    <glyph glyph-name="glyph986" 
 />
    <glyph glyph-name="glyph987" 
 />
    <glyph glyph-name="glyph988" 
 />
    <glyph glyph-name="glyph989" 
 />
    <glyph glyph-name="glyph990" 
 />
    <glyph glyph-name="glyph991" 
 />
    <glyph glyph-name="glyph992" 
 />
    <glyph glyph-name="glyph993" 
 />
    <glyph glyph-name="glyph994" 
 />
    <glyph glyph-name="glyph995" 
 />
    <glyph glyph-name="glyph996" 
 />
    <glyph glyph-name="glyph997" 
 />
    <glyph glyph-name="glyph998" 
 />
    <glyph glyph-name="glyph999" 
 />
    <glyph glyph-name="glyph1000" 
 />
    <glyph glyph-name="glyph1001" 
 />
    <glyph glyph-name="glyph1002" 
 />
    <glyph glyph-name="glyph1003" 
 />
    <glyph glyph-name="glyph1004" 
 />
    <glyph glyph-name="glyph1005" 
 />
    <glyph glyph-name="glyph1006" 
 />
    <glyph glyph-name="glyph1007" 
 />
    <glyph glyph-name="glyph1008" 
 />
    <glyph glyph-name="glyph1009" 
 />
    <glyph glyph-name="glyph1010" 
 />
    <glyph glyph-name="glyph1011" 
 />
    <glyph glyph-name="glyph1012" 
 />
    <glyph glyph-name="glyph1013" 
 />
    <glyph glyph-name="glyph1014" 
 />
    <glyph glyph-name="glyph1015" 
 />
    <glyph glyph-name="glyph1016" 
 />
    <glyph glyph-name="glyph1017" 
 />
    <glyph glyph-name="glyph1018" 
 />
    <glyph glyph-name="glyph1019" 
 />
    <glyph glyph-name="glyph1020" 
 />
    <glyph glyph-name="glyph1021" 
 />
    <glyph glyph-name="glyph1022" 
 />
    <glyph glyph-name="glyph1023" 
 />
    <glyph glyph-name="glyph1024" 
 />
    <glyph glyph-name="glyph1025" 
 />
    <glyph glyph-name="glyph1026" 
 />
    <glyph glyph-name="glyph1027" 
 />
    <glyph glyph-name="glyph1028" 
 />
    <glyph glyph-name="glyph1029" 
 />
    <glyph glyph-name="glyph1030" 
 />
    <glyph glyph-name="glyph1031" 
 />
    <glyph glyph-name="glyph1032" 
 />
    <glyph glyph-name="glyph1033" 
 />
    <glyph glyph-name="glyph1034" 
 />
    <glyph glyph-name="glyph1035" 
 />
    <glyph glyph-name="glyph1036" 
 />
    <glyph glyph-name="glyph1037" 
 />
    <glyph glyph-name="glyph1038" 
 />
    <glyph glyph-name="glyph1039" 
 />
    <glyph glyph-name="glyph1040" 
 />
    <glyph glyph-name="glyph1041" 
 />
    <glyph glyph-name="glyph1042" 
 />
    <glyph glyph-name="glyph1043" 
 />
    <glyph glyph-name="glyph1044" 
 />
    <glyph glyph-name="glyph1045" 
 />
    <glyph glyph-name="glyph1046" 
 />
    <glyph glyph-name="glyph1047" 
 />
    <glyph glyph-name="glyph1048" 
 />
    <glyph glyph-name="glyph1049" 
 />
    <glyph glyph-name="glyph1050" 
 />
    <glyph glyph-name="glyph1051" 
 />
    <glyph glyph-name="glyph1052" 
 />
    <glyph glyph-name="glyph1053" 
 />
    <glyph glyph-name="glyph1054" 
 />
    <glyph glyph-name="glyph1055" 
 />
    <glyph glyph-name="glyph1056" 
 />
    <glyph glyph-name="glyph1057" 
 />
    <glyph glyph-name="glyph1058" 
 />
    <glyph glyph-name="glyph1059" 
 />
    <glyph glyph-name="glyph1060" 
 />
    <glyph glyph-name="glyph1061" 
 />
    <glyph glyph-name="glyph1062" 
 />
    <glyph glyph-name="glyph1063" 
 />
    <glyph glyph-name="glyph1064" 
 />
    <glyph glyph-name="glyph1065" 
 />
    <glyph glyph-name="glyph1066" 
 />
    <glyph glyph-name="glyph1067" 
 />
    <glyph glyph-name="glyph1068" 
 />
    <glyph glyph-name="glyph1069" 
 />
    <glyph glyph-name="glyph1070" 
 />
    <glyph glyph-name="glyph1071" 
 />
    <glyph glyph-name="glyph1072" 
 />
    <glyph glyph-name="glyph1073" 
 />
    <glyph glyph-name="glyph1074" 
 />
    <glyph glyph-name="glyph1075" 
 />
    <glyph glyph-name="glyph1076" 
 />
    <glyph glyph-name="glyph1077" 
 />
    <glyph glyph-name="glyph1078" 
 />
    <glyph glyph-name="glyph1079" 
 />
    <glyph glyph-name="glyph1080" 
 />
    <glyph glyph-name="glyph1081" 
 />
    <glyph glyph-name="glyph1082" 
 />
    <glyph glyph-name="glyph1083" 
 />
    <glyph glyph-name="glyph1084" 
 />
    <glyph glyph-name="glyph1085" 
 />
    <glyph glyph-name="glyph1086" 
 />
    <glyph glyph-name="glyph1087" 
 />
    <glyph glyph-name="glyph1088" 
 />
    <glyph glyph-name="glyph1089" 
 />
    <glyph glyph-name="glyph1090" 
 />
    <glyph glyph-name="glyph1091" 
 />
    <glyph glyph-name="glyph1092" 
 />
    <glyph glyph-name="glyph1093" 
 />
    <glyph glyph-name="glyph1094" 
 />
    <glyph glyph-name="glyph1095" 
 />
    <glyph glyph-name="glyph1096" 
 />
    <glyph glyph-name="glyph1097" 
 />
    <glyph glyph-name="glyph1098" 
 />
    <glyph glyph-name="glyph1099" 
 />
    <glyph glyph-name="glyph1100" 
 />
    <glyph glyph-name="glyph1101" 
 />
    <glyph glyph-name="glyph1102" 
 />
    <glyph glyph-name="glyph1103" 
 />
    <glyph glyph-name="glyph1104" 
 />
    <glyph glyph-name="glyph1105" 
 />
    <glyph glyph-name="glyph1106" 
 />
    <glyph glyph-name="glyph1107" 
 />
    <glyph glyph-name="glyph1108" 
 />
    <glyph glyph-name="glyph1109" 
 />
    <glyph glyph-name="glyph1110" 
 />
    <glyph glyph-name="glyph1111" 
 />
    <glyph glyph-name="glyph1112" 
 />
    <glyph glyph-name="glyph1113" 
 />
    <glyph glyph-name="glyph1114" 
 />
    <glyph glyph-name="glyph1115" 
 />
    <glyph glyph-name="glyph1116" 
 />
    <glyph glyph-name="glyph1117" 
 />
    <glyph glyph-name="glyph1118" 
 />
    <glyph glyph-name="glyph1119" 
 />
    <glyph glyph-name="glyph1120" 
 />
    <glyph glyph-name="glyph1121" 
 />
    <glyph glyph-name="glyph1122" 
 />
    <glyph glyph-name="glyph1123" 
 />
    <glyph glyph-name="glyph1124" 
 />
    <glyph glyph-name="glyph1125" 
 />
    <glyph glyph-name="glyph1126" 
 />
    <glyph glyph-name="glyph1127" 
 />
    <glyph glyph-name="glyph1128" 
 />
    <glyph glyph-name="glyph1129" 
 />
    <glyph glyph-name="glyph1130" 
 />
    <glyph glyph-name="glyph1131" 
 />
    <glyph glyph-name="glyph1132" 
 />
    <glyph glyph-name="glyph1133" 
 />
    <glyph glyph-name="glyph1134" 
 />
    <glyph glyph-name="glyph1135" 
 />
    <glyph glyph-name="glyph1136" 
 />
    <glyph glyph-name="glyph1137" 
 />
    <glyph glyph-name="glyph1138" 
 />
    <glyph glyph-name="glyph1139" 
 />
    <glyph glyph-name="glyph1140" 
 />
    <glyph glyph-name="glyph1141" 
 />
    <glyph glyph-name="glyph1142" 
 />
    <glyph glyph-name="glyph1143" 
 />
    <glyph glyph-name="glyph1144" 
 />
    <glyph glyph-name="glyph1145" 
 />
    <glyph glyph-name="glyph1146" 
 />
    <glyph glyph-name="glyph1147" 
 />
    <glyph glyph-name="glyph1148" 
 />
    <glyph glyph-name="glyph1149" 
 />
    <glyph glyph-name="glyph1150" 
 />
    <glyph glyph-name="glyph1151" 
 />
    <glyph glyph-name="glyph1152" 
 />
    <glyph glyph-name="glyph1153" 
 />
    <glyph glyph-name="glyph1154" 
 />
    <glyph glyph-name="glyph1155" 
 />
    <glyph glyph-name="glyph1156" 
 />
    <glyph glyph-name="glyph1157" 
 />
    <glyph glyph-name="glyph1158" 
 />
    <glyph glyph-name="glyph1159" 
 />
    <glyph glyph-name="glyph1160" 
 />
    <glyph glyph-name="glyph1161" 
 />
    <glyph glyph-name="glyph1162" 
 />
    <glyph glyph-name="glyph1163" 
 />
    <glyph glyph-name="glyph1164" 
 />
    <glyph glyph-name="glyph1165" 
 />
    <glyph glyph-name="glyph1166" 
 />
    <glyph glyph-name="glyph1167" 
 />
    <glyph glyph-name="glyph1168" 
 />
    <glyph glyph-name="glyph1169" 
 />
    <glyph glyph-name="glyph1170" 
 />
    <glyph glyph-name="glyph1171" 
 />
    <glyph glyph-name="glyph1172" 
 />
    <glyph glyph-name="glyph1173" 
 />
    <glyph glyph-name="glyph1174" 
 />
    <glyph glyph-name="glyph1175" 
 />
    <glyph glyph-name="glyph1176" 
 />
    <glyph glyph-name="glyph1177" 
 />
    <glyph glyph-name="glyph1178" 
 />
    <glyph glyph-name="glyph1179" 
 />
    <glyph glyph-name="glyph1180" 
 />
    <glyph glyph-name="glyph1181" 
 />
    <glyph glyph-name="glyph1182" 
 />
    <glyph glyph-name="glyph1183" 
 />
    <glyph glyph-name="glyph1184" 
 />
    <glyph glyph-name="glyph1185" 
 />
    <glyph glyph-name="glyph1186" 
 />
    <glyph glyph-name="glyph1187" 
 />
    <glyph glyph-name="glyph1188" 
 />
    <glyph glyph-name="glyph1189" 
 />
    <glyph glyph-name="glyph1190" 
 />
    <glyph glyph-name="glyph1191" 
 />
    <glyph glyph-name="glyph1192" 
 />
    <glyph glyph-name="glyph1193" 
 />
    <glyph glyph-name="glyph1194" 
 />
    <glyph glyph-name="glyph1195" 
 />
    <glyph glyph-name="glyph1196" 
 />
    <glyph glyph-name="glyph1197" 
 />
    <glyph glyph-name="glyph1198" 
 />
    <glyph glyph-name="glyph1199" 
 />
    <glyph glyph-name="glyph1200" 
 />
    <glyph glyph-name="glyph1201" 
 />
    <glyph glyph-name="glyph1202" 
 />
    <glyph glyph-name="glyph1203" 
 />
    <glyph glyph-name="glyph1204" 
 />
    <glyph glyph-name="glyph1205" 
 />
    <glyph glyph-name="glyph1206" 
 />
    <glyph glyph-name="glyph1207" 
 />
    <glyph glyph-name="glyph1208" 
 />
    <glyph glyph-name="glyph1209" 
 />
    <glyph glyph-name="glyph1210" 
 />
    <glyph glyph-name="glyph1211" 
 />
    <glyph glyph-name="glyph1212" 
 />
    <glyph glyph-name="glyph1213" 
 />
    <glyph glyph-name="glyph1214" 
 />
    <glyph glyph-name="glyph1215" 
 />
    <glyph glyph-name="glyph1216" 
 />
    <glyph glyph-name="glyph1217" 
 />
    <glyph glyph-name="glyph1218" 
 />
    <glyph glyph-name="glyph1219" 
 />
    <glyph glyph-name="glyph1220" 
 />
    <glyph glyph-name="glyph1221" 
 />
    <glyph glyph-name="glyph1222" 
 />
    <glyph glyph-name="glyph1223" 
 />
    <glyph glyph-name="glyph1224" 
 />
    <glyph glyph-name="glyph1225" 
 />
    <glyph glyph-name="glyph1226" 
 />
    <glyph glyph-name="glyph1227" 
 />
    <glyph glyph-name="glyph1228" 
 />
    <glyph glyph-name="glyph1229" 
 />
    <glyph glyph-name="glyph1230" 
 />
    <glyph glyph-name="glyph1231" 
 />
    <glyph glyph-name="glyph1232" 
 />
    <glyph glyph-name="glyph1233" 
 />
    <glyph glyph-name="glyph1234" 
 />
    <glyph glyph-name="glyph1235" 
 />
    <glyph glyph-name="glyph1236" 
 />
    <glyph glyph-name="glyph1237" 
 />
    <glyph glyph-name="glyph1238" 
 />
    <glyph glyph-name="glyph1239" 
 />
    <glyph glyph-name="glyph1240" 
 />
    <glyph glyph-name="glyph1241" 
 />
    <glyph glyph-name="glyph1242" 
 />
    <glyph glyph-name="glyph1243" 
 />
    <glyph glyph-name="glyph1244" 
 />
    <glyph glyph-name="glyph1245" 
 />
    <glyph glyph-name="glyph1246" 
 />
    <glyph glyph-name="glyph1247" 
 />
    <glyph glyph-name="glyph1248" 
 />
    <glyph glyph-name="glyph1249" 
 />
    <glyph glyph-name="glyph1250" 
 />
    <glyph glyph-name="glyph1251" 
 />
    <glyph glyph-name="glyph1252" 
 />
    <glyph glyph-name="glyph1253" 
 />
    <glyph glyph-name="glyph1254" 
 />
    <glyph glyph-name="glyph1255" 
 />
    <glyph glyph-name="glyph1256" 
 />
    <glyph glyph-name="glyph1257" 
 />
    <glyph glyph-name="glyph1258" 
 />
    <glyph glyph-name="glyph1259" 
 />
    <glyph glyph-name="glyph1260" 
 />
    <glyph glyph-name="glyph1261" 
 />
    <glyph glyph-name="glyph1262" 
 />
    <glyph glyph-name="glyph1263" 
 />
    <glyph glyph-name="glyph1264" 
 />
    <glyph glyph-name="glyph1265" 
 />
    <glyph glyph-name="glyph1266" 
 />
    <glyph glyph-name="glyph1267" 
 />
    <glyph glyph-name="glyph1268" 
 />
    <glyph glyph-name="glyph1269" 
 />
    <glyph glyph-name="glyph1270" 
 />
    <glyph glyph-name="glyph1271" 
 />
    <glyph glyph-name="glyph1272" 
 />
    <glyph glyph-name="glyph1273" 
 />
    <glyph glyph-name="glyph1274" 
 />
    <glyph glyph-name="glyph1275" 
 />
    <glyph glyph-name="glyph1276" 
 />
    <glyph glyph-name="glyph1277" 
 />
    <glyph glyph-name="glyph1278" 
 />
    <glyph glyph-name="glyph1279" 
 />
    <glyph glyph-name="glyph1280" 
 />
    <glyph glyph-name="glyph1281" 
 />
    <glyph glyph-name="glyph1282" 
 />
    <glyph glyph-name="glyph1283" 
 />
    <glyph glyph-name="glyph1284" 
 />
    <glyph glyph-name="glyph1285" 
 />
    <glyph glyph-name="glyph1286" 
 />
    <glyph glyph-name="glyph1287" 
 />
    <glyph glyph-name="glyph1288" 
 />
    <glyph glyph-name="glyph1289" 
 />
    <glyph glyph-name="glyph1290" 
 />
    <glyph glyph-name="glyph1291" 
 />
    <glyph glyph-name="glyph1292" 
 />
    <glyph glyph-name="glyph1293" 
 />
    <glyph glyph-name="glyph1294" 
 />
    <glyph glyph-name="glyph1295" 
 />
    <glyph glyph-name="glyph1296" 
 />
    <glyph glyph-name="glyph1297" 
 />
    <glyph glyph-name="glyph1298" 
 />
    <glyph glyph-name="glyph1299" 
 />
    <glyph glyph-name="glyph1300" 
 />
    <glyph glyph-name="glyph1301" 
 />
    <glyph glyph-name="glyph1302" 
 />
    <glyph glyph-name="glyph1303" 
 />
    <glyph glyph-name="glyph1304" 
 />
    <glyph glyph-name="glyph1305" 
 />
    <glyph glyph-name="glyph1306" 
 />
    <glyph glyph-name="glyph1307" 
 />
    <glyph glyph-name="glyph1308" 
 />
    <glyph glyph-name="glyph1309" 
 />
    <glyph glyph-name="glyph1310" 
 />
    <glyph glyph-name="glyph1311" 
 />
    <glyph glyph-name="glyph1312" 
 />
    <glyph glyph-name="glyph1313" 
 />
    <glyph glyph-name="glyph1314" 
 />
    <glyph glyph-name="glyph1315" 
 />
    <glyph glyph-name="glyph1316" 
 />
    <glyph glyph-name="glyph1317" 
 />
    <glyph glyph-name="glyph1318" 
 />
    <glyph glyph-name="glyph1319" 
 />
    <glyph glyph-name="glyph1320" 
 />
    <glyph glyph-name="glyph1321" 
 />
    <glyph glyph-name="glyph1322" 
 />
    <glyph glyph-name="glyph1323" 
 />
    <glyph glyph-name="glyph1324" 
 />
    <glyph glyph-name="glyph1325" 
 />
    <glyph glyph-name="glyph1326" 
 />
    <glyph glyph-name="glyph1327" 
 />
    <glyph glyph-name="glyph1328" 
 />
    <glyph glyph-name="glyph1329" 
 />
    <glyph glyph-name="glyph1330" 
 />
    <glyph glyph-name="glyph1331" 
 />
    <glyph glyph-name="glyph1332" 
 />
    <glyph glyph-name="glyph1333" 
 />
    <glyph glyph-name="glyph1334" 
 />
    <glyph glyph-name="glyph1335" 
 />
    <glyph glyph-name="glyph1336" 
 />
    <glyph glyph-name="glyph1337" 
 />
    <glyph glyph-name="glyph1338" 
 />
    <glyph glyph-name="glyph1339" 
 />
    <glyph glyph-name="glyph1340" 
 />
    <glyph glyph-name="glyph1341" 
 />
    <glyph glyph-name="glyph1342" 
 />
    <glyph glyph-name="glyph1343" 
 />
    <glyph glyph-name="glyph1344" 
 />
    <glyph glyph-name="glyph1345" 
 />
    <glyph glyph-name="glyph1346" 
 />
    <glyph glyph-name="glyph1347" 
 />
    <glyph glyph-name="glyph1348" 
 />
    <glyph glyph-name="glyph1349" 
 />
    <glyph glyph-name="glyph1350" 
 />
    <glyph glyph-name="glyph1351" 
 />
    <glyph glyph-name="glyph1352" 
 />
    <glyph glyph-name="glyph1353" 
 />
    <glyph glyph-name="glyph1354" 
 />
    <glyph glyph-name="glyph1355" 
 />
    <glyph glyph-name="glyph1356" 
 />
    <glyph glyph-name="glyph1357" 
 />
    <glyph glyph-name="glyph1358" 
 />
    <glyph glyph-name="glyph1359" 
 />
    <glyph glyph-name="glyph1360" 
 />
    <glyph glyph-name="glyph1361" 
 />
    <glyph glyph-name="glyph1362" 
 />
    <glyph glyph-name="glyph1363" 
 />
    <glyph glyph-name="glyph1364" 
 />
    <glyph glyph-name="glyph1365" 
 />
    <glyph glyph-name="glyph1366" 
 />
    <glyph glyph-name="glyph1367" 
 />
    <glyph glyph-name="glyph1368" 
 />
    <glyph glyph-name="glyph1369" 
 />
    <glyph glyph-name="glyph1370" 
 />
    <glyph glyph-name="glyph1371" 
 />
    <glyph glyph-name="glyph1372" 
 />
    <glyph glyph-name="glyph1373" 
 />
    <glyph glyph-name="glyph1374" 
 />
    <glyph glyph-name="glyph1375" 
 />
    <glyph glyph-name="glyph1376" 
 />
    <glyph glyph-name="glyph1377" 
 />
    <glyph glyph-name="glyph1378" 
 />
    <glyph glyph-name="glyph1379" 
 />
    <glyph glyph-name="glyph1380" 
 />
    <glyph glyph-name="glyph1381" 
 />
    <glyph glyph-name="glyph1382" 
 />
    <glyph glyph-name="glyph1383" 
 />
    <glyph glyph-name="glyph1384" 
 />
    <glyph glyph-name="glyph1385" 
 />
    <glyph glyph-name="glyph1386" 
 />
    <glyph glyph-name="glyph1387" 
 />
    <glyph glyph-name="glyph1388" 
 />
    <glyph glyph-name="glyph1389" 
 />
    <glyph glyph-name="glyph1390" 
 />
    <glyph glyph-name="glyph1391" 
 />
    <glyph glyph-name="glyph1392" 
 />
    <glyph glyph-name="glyph1393" 
 />
    <glyph glyph-name="glyph1394" 
 />
    <glyph glyph-name="glyph1395" 
 />
    <glyph glyph-name="glyph1396" 
 />
    <glyph glyph-name="glyph1397" 
 />
    <glyph glyph-name="glyph1398" 
 />
    <glyph glyph-name="glyph1399" 
 />
    <glyph glyph-name="glyph1400" 
 />
    <glyph glyph-name="glyph1401" 
 />
    <glyph glyph-name="glyph1402" 
 />
    <glyph glyph-name="glyph1403" 
 />
    <glyph glyph-name="glyph1404" 
 />
    <glyph glyph-name="glyph1405" 
 />
    <glyph glyph-name="glyph1406" 
 />
    <glyph glyph-name="glyph1407" 
 />
    <glyph glyph-name="glyph1408" 
 />
    <glyph glyph-name="glyph1409" 
 />
    <glyph glyph-name="glyph1410" 
 />
    <glyph glyph-name="glyph1411" 
 />
    <glyph glyph-name="glyph1412" 
 />
    <glyph glyph-name="glyph1413" 
 />
    <glyph glyph-name="glyph1414" 
 />
    <glyph glyph-name="glyph1415" 
 />
    <glyph glyph-name="glyph1416" 
 />
    <glyph glyph-name="glyph1417" 
 />
    <glyph glyph-name="glyph1418" 
 />
    <glyph glyph-name="glyph1419" 
 />
    <glyph glyph-name="glyph1420" 
 />
    <glyph glyph-name="glyph1421" 
 />
    <glyph glyph-name="glyph1422" 
 />
    <glyph glyph-name="glyph1423" 
 />
    <glyph glyph-name="glyph1424" 
 />
    <glyph glyph-name="glyph1425" 
 />
    <glyph glyph-name="glyph1426" 
 />
    <glyph glyph-name="glyph1427" 
 />
    <glyph glyph-name="glyph1428" 
 />
    <glyph glyph-name="glyph1429" 
 />
    <glyph glyph-name="glyph1430" 
 />
    <glyph glyph-name="glyph1431" 
 />
    <glyph glyph-name="glyph1432" 
 />
    <glyph glyph-name="glyph1433" 
 />
    <glyph glyph-name="glyph1434" 
 />
    <glyph glyph-name="glyph1435" 
 />
    <glyph glyph-name="glyph1436" 
 />
    <glyph glyph-name="glyph1437" 
 />
    <glyph glyph-name="glyph1438" 
 />
    <glyph glyph-name="glyph1439" 
 />
    <glyph glyph-name="glyph1440" 
 />
    <glyph glyph-name="glyph1441" 
 />
    <glyph glyph-name="glyph1442" 
 />
    <glyph glyph-name="glyph1443" 
 />
    <glyph glyph-name="glyph1444" 
 />
    <glyph glyph-name="glyph1445" 
 />
    <glyph glyph-name="glyph1446" 
 />
    <glyph glyph-name="glyph1447" 
 />
    <glyph glyph-name="glyph1448" 
 />
    <glyph glyph-name="glyph1449" 
 />
    <glyph glyph-name="glyph1450" 
 />
    <glyph glyph-name="glyph1451" 
 />
    <glyph glyph-name="glyph1452" 
 />
    <glyph glyph-name="glyph1453" 
 />
    <glyph glyph-name="glyph1454" 
 />
    <glyph glyph-name="glyph1455" 
 />
    <glyph glyph-name="glyph1456" 
 />
    <glyph glyph-name="glyph1457" 
 />
    <glyph glyph-name="glyph1458" 
 />
    <glyph glyph-name="glyph1459" 
 />
    <glyph glyph-name="glyph1460" 
 />
    <glyph glyph-name="glyph1461" 
 />
    <glyph glyph-name="glyph1462" 
 />
    <glyph glyph-name="glyph1463" 
 />
    <glyph glyph-name="glyph1464" 
 />
    <glyph glyph-name="glyph1465" 
 />
    <glyph glyph-name="glyph1466" 
 />
    <glyph glyph-name="glyph1467" 
 />
    <glyph glyph-name="glyph1468" 
 />
    <glyph glyph-name="glyph1469" 
 />
    <glyph glyph-name="glyph1470" 
 />
    <glyph glyph-name="glyph1471" 
 />
    <glyph glyph-name="glyph1472" 
 />
    <glyph glyph-name="glyph1473" 
 />
    <glyph glyph-name="glyph1474" 
 />
    <glyph glyph-name="glyph1475" 
 />
    <glyph glyph-name="glyph1476" 
 />
    <glyph glyph-name="glyph1477" 
 />
    <glyph glyph-name="glyph1478" 
 />
    <glyph glyph-name="glyph1479" 
 />
    <glyph glyph-name="glyph1480" 
 />
    <glyph glyph-name="glyph1481" 
 />
    <glyph glyph-name="glyph1482" 
 />
    <glyph glyph-name="glyph1483" 
 />
    <glyph glyph-name="glyph1484" 
 />
    <glyph glyph-name="glyph1485" 
 />
    <glyph glyph-name="glyph1486" 
 />
    <glyph glyph-name="glyph1487" 
 />
    <glyph glyph-name="glyph1488" 
 />
    <glyph glyph-name="glyph1489" 
 />
    <glyph glyph-name="glyph1490" 
 />
    <glyph glyph-name="glyph1491" 
 />
    <glyph glyph-name="glyph1492" 
 />
    <glyph glyph-name="glyph1493" 
 />
    <glyph glyph-name="glyph1494" 
 />
    <glyph glyph-name="glyph1495" 
 />
    <glyph glyph-name="glyph1496" 
 />
    <glyph glyph-name="glyph1497" 
 />
    <glyph glyph-name="glyph1498" 
 />
    <glyph glyph-name="glyph1499" 
 />
    <glyph glyph-name="glyph1500" 
 />
    <glyph glyph-name="glyph1501" 
 />
    <glyph glyph-name="glyph1502" 
 />
    <glyph glyph-name="glyph1503" 
 />
    <glyph glyph-name="glyph1504" 
 />
    <glyph glyph-name="glyph1505" 
 />
    <glyph glyph-name="glyph1506" 
 />
    <glyph glyph-name="glyph1507" 
 />
    <glyph glyph-name="glyph1508" 
 />
    <glyph glyph-name="glyph1509" 
 />
    <glyph glyph-name="glyph1510" 
 />
    <glyph glyph-name="glyph1511" 
 />
    <glyph glyph-name="glyph1512" 
 />
    <glyph glyph-name="glyph1513" 
 />
    <glyph glyph-name="glyph1514" 
 />
    <glyph glyph-name="glyph1515" 
 />
    <glyph glyph-name="glyph1516" 
 />
    <glyph glyph-name="glyph1517" 
 />
    <glyph glyph-name="glyph1518" 
 />
    <glyph glyph-name="glyph1519" 
 />
    <glyph glyph-name="glyph1520" 
 />
    <glyph glyph-name="glyph1521" 
 />
    <glyph glyph-name="glyph1522" 
 />
    <glyph glyph-name="glyph1523" 
 />
    <glyph glyph-name="glyph1524" 
 />
    <glyph glyph-name="glyph1525" 
 />
    <glyph glyph-name="glyph1526" 
 />
    <glyph glyph-name="glyph1527" 
 />
    <glyph glyph-name="glyph1528" 
 />
    <glyph glyph-name="glyph1529" 
 />
    <glyph glyph-name="glyph1530" 
 />
    <glyph glyph-name="glyph1531" 
 />
    <glyph glyph-name="glyph1532" 
 />
    <glyph glyph-name="glyph1533" 
 />
    <glyph glyph-name="glyph1534" 
 />
    <glyph glyph-name="glyph1535" 
 />
    <glyph glyph-name="glyph1536" 
 />
    <glyph glyph-name="glyph1537" 
 />
    <glyph glyph-name="glyph1538" 
 />
    <glyph glyph-name="glyph1539" 
 />
    <glyph glyph-name="glyph1540" 
 />
    <glyph glyph-name="glyph1541" 
 />
    <glyph glyph-name="glyph1542" 
 />
    <glyph glyph-name="glyph1543" 
 />
    <glyph glyph-name="glyph1544" 
 />
    <glyph glyph-name="glyph1545" 
 />
    <glyph glyph-name="glyph1546" 
 />
    <glyph glyph-name="glyph1547" 
 />
    <glyph glyph-name="glyph1548" 
 />
    <glyph glyph-name="glyph1549" 
 />
    <glyph glyph-name="glyph1550" 
 />
    <glyph glyph-name="glyph1551" 
 />
    <glyph glyph-name="glyph1552" 
 />
    <glyph glyph-name="glyph1553" 
 />
    <glyph glyph-name="glyph1554" 
 />
    <glyph glyph-name="glyph1555" 
 />
    <glyph glyph-name="glyph1556" 
 />
    <glyph glyph-name="glyph1557" 
 />
    <glyph glyph-name="glyph1558" 
 />
    <glyph glyph-name="glyph1559" 
 />
    <glyph glyph-name="glyph1560" 
 />
    <glyph glyph-name="glyph1561" 
 />
    <glyph glyph-name="glyph1562" 
 />
    <glyph glyph-name="glyph1563" 
 />
    <glyph glyph-name="glyph1564" 
 />
    <glyph glyph-name="glyph1565" 
 />
    <glyph glyph-name="glyph1566" 
 />
    <glyph glyph-name="glyph1567" 
 />
    <glyph glyph-name="glyph1568" 
 />
    <glyph glyph-name="glyph1569" 
 />
    <glyph glyph-name="glyph1570" 
 />
    <glyph glyph-name="glyph1571" 
 />
    <glyph glyph-name="glyph1572" 
 />
    <glyph glyph-name="glyph1573" 
 />
    <glyph glyph-name="glyph1574" 
 />
    <glyph glyph-name="glyph1575" 
 />
    <glyph glyph-name="glyph1576" 
 />
    <glyph glyph-name="glyph1577" 
 />
    <glyph glyph-name="glyph1578" 
 />
    <glyph glyph-name="glyph1579" 
 />
    <glyph glyph-name="glyph1580" 
 />
    <glyph glyph-name="glyph1581" 
 />
    <glyph glyph-name="glyph1582" 
 />
    <glyph glyph-name="glyph1583" 
 />
    <glyph glyph-name="glyph1584" 
 />
    <glyph glyph-name="glyph1585" 
 />
    <glyph glyph-name="glyph1586" 
 />
    <glyph glyph-name="glyph1587" 
 />
    <glyph glyph-name="glyph1588" 
 />
    <glyph glyph-name="glyph1589" 
 />
    <glyph glyph-name="glyph1590" 
 />
    <glyph glyph-name="glyph1591" 
 />
    <glyph glyph-name="glyph1592" 
 />
    <glyph glyph-name="glyph1593" 
 />
    <glyph glyph-name="glyph1594" 
 />
    <glyph glyph-name="glyph1595" 
 />
    <glyph glyph-name="glyph1596" 
 />
    <glyph glyph-name="glyph1597" 
 />
    <glyph glyph-name="glyph1598" 
 />
    <glyph glyph-name="glyph1599" 
 />
    <glyph glyph-name="glyph1600" 
 />
    <glyph glyph-name="glyph1601" 
 />
    <glyph glyph-name="glyph1602" 
 />
    <glyph glyph-name="glyph1603" 
 />
    <glyph glyph-name="glyph1604" 
 />
    <glyph glyph-name="glyph1605" 
 />
    <glyph glyph-name="glyph1606" 
 />
    <glyph glyph-name="glyph1607" 
 />
    <glyph glyph-name="glyph1608" 
 />
    <glyph glyph-name="glyph1609" 
 />
    <glyph glyph-name="glyph1610" 
 />
    <glyph glyph-name="glyph1611" 
 />
    <glyph glyph-name="glyph1612" 
 />
    <glyph glyph-name="glyph1613" 
 />
    <glyph glyph-name="glyph1614" 
 />
    <glyph glyph-name="glyph1615" 
 />
    <glyph glyph-name="glyph1616" 
 />
    <glyph glyph-name="glyph1617" 
 />
    <glyph glyph-name="glyph1618" 
 />
    <glyph glyph-name="glyph1619" 
 />
    <glyph glyph-name="glyph1620" 
 />
    <glyph glyph-name="glyph1621" 
 />
    <glyph glyph-name="glyph1622" 
 />
    <glyph glyph-name="glyph1623" 
 />
    <glyph glyph-name="glyph1624" 
 />
    <glyph glyph-name="glyph1625" 
 />
    <glyph glyph-name="glyph1626" 
 />
    <glyph glyph-name="glyph1627" 
 />
    <glyph glyph-name="glyph1628" 
 />
    <glyph glyph-name="glyph1629" 
 />
    <glyph glyph-name="glyph1630" 
 />
    <glyph glyph-name="glyph1631" 
 />
    <glyph glyph-name="glyph1632" 
 />
    <glyph glyph-name="glyph1633" 
 />
    <glyph glyph-name="glyph1634" 
 />
    <glyph glyph-name="glyph1635" 
 />
    <glyph glyph-name="glyph1636" 
 />
    <glyph glyph-name="glyph1637" 
 />
    <glyph glyph-name="glyph1638" 
 />
    <glyph glyph-name="glyph1639" 
 />
    <glyph glyph-name="glyph1640" 
 />
    <glyph glyph-name="glyph1641" 
 />
    <glyph glyph-name="glyph1642" 
 />
    <glyph glyph-name="glyph1643" 
 />
    <glyph glyph-name="glyph1644" 
 />
    <glyph glyph-name="glyph1645" 
 />
    <glyph glyph-name="glyph1646" 
 />
    <glyph glyph-name="glyph1647" 
 />
    <glyph glyph-name="glyph1648" 
 />
    <glyph glyph-name="glyph1649" 
 />
    <glyph glyph-name="glyph1650" 
 />
    <glyph glyph-name="glyph1651" 
 />
    <glyph glyph-name="glyph1652" 
 />
    <glyph glyph-name="glyph1653" 
 />
    <glyph glyph-name="glyph1654" 
 />
    <glyph glyph-name="glyph1655" 
 />
    <glyph glyph-name="glyph1656" 
 />
    <glyph glyph-name="glyph1657" 
 />
    <glyph glyph-name="glyph1658" 
 />
    <glyph glyph-name="glyph1659" 
 />
    <glyph glyph-name="glyph1660" 
 />
    <glyph glyph-name="glyph1661" 
 />
    <glyph glyph-name="glyph1662" 
 />
    <glyph glyph-name="glyph1663" 
 />
    <glyph glyph-name="glyph1664" 
 />
    <glyph glyph-name="glyph1665" 
 />
    <glyph glyph-name="glyph1666" 
 />
    <glyph glyph-name="glyph1667" 
 />
    <glyph glyph-name="glyph1668" 
 />
    <glyph glyph-name="glyph1669" 
 />
    <glyph glyph-name="glyph1670" 
 />
    <glyph glyph-name="glyph1671" 
 />
    <glyph glyph-name="glyph1672" 
 />
    <glyph glyph-name="glyph1673" 
 />
    <glyph glyph-name="glyph1674" 
 />
    <glyph glyph-name="glyph1675" 
 />
    <glyph glyph-name="glyph1676" 
 />
    <glyph glyph-name="glyph1677" 
 />
    <glyph glyph-name="glyph1678" 
 />
    <glyph glyph-name="glyph1679" 
 />
    <glyph glyph-name="glyph1680" 
 />
    <glyph glyph-name="glyph1681" 
 />
    <glyph glyph-name="glyph1682" 
 />
    <glyph glyph-name="glyph1683" 
 />
    <glyph glyph-name="glyph1684" 
 />
    <glyph glyph-name="glyph1685" 
 />
    <glyph glyph-name="glyph1686" 
 />
    <glyph glyph-name="glyph1687" 
 />
    <glyph glyph-name="glyph1688" 
 />
    <glyph glyph-name="glyph1689" 
 />
    <glyph glyph-name="glyph1690" 
 />
    <glyph glyph-name="glyph1691" 
 />
    <glyph glyph-name="glyph1692" 
 />
    <glyph glyph-name="glyph1693" 
 />
    <glyph glyph-name="glyph1694" 
 />
    <glyph glyph-name="glyph1695" 
 />
    <glyph glyph-name="glyph1696" 
 />
    <glyph glyph-name="glyph1697" 
 />
    <glyph glyph-name="glyph1698" 
 />
    <glyph glyph-name="glyph1699" 
 />
    <glyph glyph-name="glyph1700" 
 />
    <glyph glyph-name="glyph1701" 
 />
    <glyph glyph-name="glyph1702" 
 />
    <glyph glyph-name="glyph1703" 
 />
    <glyph glyph-name="glyph1704" 
 />
    <glyph glyph-name="glyph1705" 
 />
    <glyph glyph-name="glyph1706" 
 />
    <glyph glyph-name="glyph1707" 
 />
    <glyph glyph-name="glyph1708" 
 />
    <glyph glyph-name="glyph1709" 
 />
    <glyph glyph-name="glyph1710" 
 />
    <glyph glyph-name="glyph1711" 
 />
    <glyph glyph-name="glyph1712" 
 />
    <glyph glyph-name="glyph1713" 
 />
    <glyph glyph-name="glyph1714" 
 />
    <glyph glyph-name="glyph1715" 
 />
    <glyph glyph-name="glyph1716" 
 />
    <glyph glyph-name="glyph1717" 
 />
    <glyph glyph-name="glyph1718" 
 />
    <glyph glyph-name="glyph1719" 
 />
    <glyph glyph-name="glyph1720" 
 />
    <glyph glyph-name="glyph1721" 
 />
    <glyph glyph-name="glyph1722" 
 />
    <glyph glyph-name="glyph1723" 
 />
    <glyph glyph-name="glyph1724" 
 />
    <glyph glyph-name="glyph1725" 
 />
    <glyph glyph-name="glyph1726" 
 />
    <glyph glyph-name="glyph1727" 
 />
    <glyph glyph-name="glyph1728" 
 />
    <glyph glyph-name="glyph1729" 
 />
    <glyph glyph-name="glyph1730" 
 />
    <glyph glyph-name="glyph1731" 
 />
    <glyph glyph-name="glyph1732" 
 />
    <glyph glyph-name="glyph1733" 
 />
    <glyph glyph-name="glyph1734" 
 />
    <glyph glyph-name="glyph1735" 
 />
    <glyph glyph-name="glyph1736" 
 />
    <glyph glyph-name="glyph1737" 
 />
    <glyph glyph-name="glyph1738" 
 />
    <glyph glyph-name="glyph1739" 
 />
    <glyph glyph-name="glyph1740" 
 />
    <glyph glyph-name="glyph1741" 
 />
    <glyph glyph-name="glyph1742" 
 />
    <glyph glyph-name="glyph1743" 
 />
    <glyph glyph-name="glyph1744" 
 />
    <glyph glyph-name="glyph1745" 
 />
    <glyph glyph-name="glyph1746" 
 />
    <glyph glyph-name="glyph1747" 
 />
    <glyph glyph-name="glyph1748" 
 />
    <glyph glyph-name="glyph1749" 
 />
    <glyph glyph-name="glyph1750" 
 />
    <glyph glyph-name="glyph1751" 
 />
    <glyph glyph-name="glyph1752" 
 />
    <glyph glyph-name="glyph1753" 
 />
    <glyph glyph-name="glyph1754" 
 />
    <glyph glyph-name="glyph1755" 
 />
    <glyph glyph-name="glyph1756" 
 />
    <glyph glyph-name="glyph1757" 
 />
    <glyph glyph-name="glyph1758" 
 />
    <glyph glyph-name="glyph1759" 
 />
    <glyph glyph-name="glyph1760" 
 />
    <glyph glyph-name="glyph1761" 
 />
    <glyph glyph-name="glyph1762" 
 />
    <glyph glyph-name="glyph1763" 
 />
    <glyph glyph-name="glyph1764" 
 />
    <glyph glyph-name="glyph1765" 
 />
    <glyph glyph-name="glyph1766" 
 />
    <glyph glyph-name="glyph1767" 
 />
    <glyph glyph-name="glyph1768" 
 />
    <glyph glyph-name="glyph1769" 
 />
    <glyph glyph-name="glyph1770" 
 />
    <glyph glyph-name="glyph1771" 
 />
    <glyph glyph-name="glyph1772" 
 />
    <glyph glyph-name="glyph1773" 
 />
    <glyph glyph-name="glyph1774" 
 />
    <glyph glyph-name="glyph1775" 
 />
    <glyph glyph-name="glyph1776" 
 />
    <glyph glyph-name="glyph1777" 
 />
    <glyph glyph-name="glyph1778" 
 />
    <glyph glyph-name="glyph1779" 
 />
    <glyph glyph-name="glyph1780" 
 />
    <glyph glyph-name="glyph1781" 
 />
    <glyph glyph-name="glyph1782" 
 />
    <glyph glyph-name="glyph1783" 
 />
    <glyph glyph-name="glyph1784" 
 />
    <glyph glyph-name="glyph1785" 
 />
    <glyph glyph-name="glyph1786" 
 />
    <glyph glyph-name="glyph1787" 
 />
    <glyph glyph-name="glyph1788" 
 />
    <glyph glyph-name="glyph1789" 
 />
    <glyph glyph-name="glyph1790" 
 />
    <glyph glyph-name="glyph1791" 
 />
    <glyph glyph-name="glyph1792" 
 />
    <glyph glyph-name="glyph1793" 
 />
    <glyph glyph-name="glyph1794" 
 />
    <glyph glyph-name="glyph1795" 
 />
    <glyph glyph-name="glyph1796" 
 />
    <glyph glyph-name="glyph1797" 
 />
    <glyph glyph-name="glyph1798" 
 />
    <glyph glyph-name="glyph1799" 
 />
    <glyph glyph-name="glyph1800" 
 />
    <glyph glyph-name="glyph1801" 
 />
    <glyph glyph-name="glyph1802" 
 />
    <glyph glyph-name="glyph1803" 
 />
    <glyph glyph-name="glyph1804" 
 />
    <glyph glyph-name="glyph1805" 
 />
    <glyph glyph-name="glyph1806" 
 />
    <glyph glyph-name="glyph1807" 
 />
    <glyph glyph-name="glyph1808" 
 />
    <glyph glyph-name="glyph1809" 
 />
    <glyph glyph-name="glyph1810" 
 />
    <glyph glyph-name="glyph1811" 
 />
    <glyph glyph-name="glyph1812" 
 />
    <glyph glyph-name="glyph1813" 
 />
    <glyph glyph-name="glyph1814" 
 />
    <glyph glyph-name="glyph1815" 
 />
    <glyph glyph-name="glyph1816" 
 />
    <glyph glyph-name="glyph1817" 
 />
    <glyph glyph-name="glyph1818" 
 />
    <glyph glyph-name="glyph1819" 
 />
    <glyph glyph-name="glyph1820" 
 />
    <glyph glyph-name="glyph1821" 
 />
    <glyph glyph-name="glyph1822" 
 />
    <glyph glyph-name="glyph1823" 
 />
    <glyph glyph-name="glyph1824" 
 />
    <glyph glyph-name="glyph1825" 
 />
    <glyph glyph-name="glyph1826" 
 />
    <glyph glyph-name="glyph1827" 
 />
    <glyph glyph-name="glyph1828" 
 />
    <glyph glyph-name="glyph1829" 
 />
    <glyph glyph-name="glyph1830" 
 />
    <glyph glyph-name="glyph1831" 
 />
    <glyph glyph-name="glyph1832" 
 />
    <glyph glyph-name="glyph1833" 
 />
    <glyph glyph-name="glyph1834" 
 />
    <glyph glyph-name="glyph1835" 
 />
    <glyph glyph-name="glyph1836" 
 />
    <glyph glyph-name="glyph1837" 
 />
    <glyph glyph-name="glyph1838" 
 />
    <glyph glyph-name="glyph1839" 
 />
    <glyph glyph-name="glyph1840" 
 />
    <glyph glyph-name="glyph1841" 
 />
    <glyph glyph-name="glyph1842" 
 />
    <glyph glyph-name="glyph1843" 
 />
    <glyph glyph-name="glyph1844" 
 />
    <glyph glyph-name="glyph1845" 
 />
    <glyph glyph-name="glyph1846" 
 />
    <glyph glyph-name="glyph1847" 
 />
    <glyph glyph-name="glyph1848" 
 />
    <glyph glyph-name="glyph1849" 
 />
    <glyph glyph-name="glyph1850" 
 />
    <glyph glyph-name="glyph1851" 
 />
    <glyph glyph-name="glyph1852" 
 />
    <glyph glyph-name="glyph1853" 
 />
    <glyph glyph-name="glyph1854" 
 />
    <glyph glyph-name="glyph1855" 
 />
    <glyph glyph-name="glyph1856" 
 />
    <glyph glyph-name="glyph1857" 
 />
    <glyph glyph-name="glyph1858" 
 />
    <glyph glyph-name="glyph1859" 
 />
    <glyph glyph-name="glyph1860" 
 />
    <glyph glyph-name="glyph1861" 
 />
    <glyph glyph-name="glyph1862" 
 />
    <glyph glyph-name="glyph1863" 
 />
    <glyph glyph-name="glyph1864" 
 />
    <glyph glyph-name="glyph1865" 
 />
    <glyph glyph-name="glyph1866" 
 />
    <glyph glyph-name="glyph1867" 
 />
    <glyph glyph-name="glyph1868" 
 />
    <glyph glyph-name="glyph1869" 
 />
    <glyph glyph-name="glyph1870" 
 />
    <glyph glyph-name="glyph1871" 
 />
    <glyph glyph-name="glyph1872" 
 />
    <glyph glyph-name="glyph1873" 
 />
    <glyph glyph-name="glyph1874" 
 />
    <glyph glyph-name="glyph1875" 
 />
    <glyph glyph-name="glyph1876" 
 />
    <glyph glyph-name="glyph1877" 
 />
    <glyph glyph-name="glyph1878" 
 />
    <glyph glyph-name="glyph1879" 
 />
    <glyph glyph-name="glyph1880" 
 />
    <glyph glyph-name="glyph1881" 
 />
    <glyph glyph-name="glyph1882" 
 />
    <glyph glyph-name="glyph1883" 
 />
    <glyph glyph-name="glyph1884" 
 />
    <glyph glyph-name="glyph1885" 
 />
    <glyph glyph-name="glyph1886" 
 />
    <glyph glyph-name="glyph1887" 
 />
    <glyph glyph-name="glyph1888" 
 />
    <glyph glyph-name="glyph1889" 
 />
    <glyph glyph-name="glyph1890" 
 />
    <glyph glyph-name="glyph1891" 
 />
    <glyph glyph-name="glyph1892" 
 />
    <glyph glyph-name="glyph1893" 
 />
    <glyph glyph-name="glyph1894" 
 />
    <glyph glyph-name="glyph1895" 
 />
    <glyph glyph-name="glyph1896" 
 />
    <glyph glyph-name="glyph1897" 
 />
    <glyph glyph-name="glyph1898" 
 />
    <glyph glyph-name="glyph1899" 
 />
    <glyph glyph-name="glyph1900" 
 />
    <glyph glyph-name="glyph1901" 
 />
    <glyph glyph-name="glyph1902" 
 />
    <glyph glyph-name="glyph1903" 
 />
    <glyph glyph-name="glyph1904" 
 />
    <glyph glyph-name="glyph1905" 
 />
    <glyph glyph-name="glyph1906" 
 />
    <glyph glyph-name="glyph1907" 
 />
    <glyph glyph-name="glyph1908" 
 />
    <glyph glyph-name="glyph1909" 
 />
    <glyph glyph-name="glyph1910" 
 />
    <glyph glyph-name="glyph1911" 
 />
    <glyph glyph-name="glyph1912" 
 />
    <glyph glyph-name="glyph1913" 
 />
    <glyph glyph-name="glyph1914" 
 />
    <glyph glyph-name="glyph1915" 
 />
    <glyph glyph-name="glyph1916" 
 />
    <glyph glyph-name="glyph1917" 
 />
    <glyph glyph-name="glyph1918" 
 />
    <glyph glyph-name="glyph1919" 
 />
    <glyph glyph-name="glyph1920" 
 />
    <glyph glyph-name="glyph1921" 
 />
    <glyph glyph-name="glyph1922" 
 />
    <glyph glyph-name="glyph1923" 
 />
    <glyph glyph-name="glyph1924" 
 />
    <glyph glyph-name="glyph1925" 
 />
    <glyph glyph-name="glyph1926" 
 />
    <glyph glyph-name="glyph1927" 
 />
    <glyph glyph-name="glyph1928" 
 />
    <glyph glyph-name="glyph1929" 
 />
    <glyph glyph-name="glyph1930" 
 />
    <glyph glyph-name="glyph1931" 
 />
    <glyph glyph-name="glyph1932" 
 />
    <glyph glyph-name="glyph1933" 
 />
    <glyph glyph-name="glyph1934" 
 />
    <glyph glyph-name="glyph1935" 
 />
    <glyph glyph-name="glyph1936" 
 />
    <glyph glyph-name="glyph1937" 
 />
    <glyph glyph-name="glyph1938" 
 />
    <glyph glyph-name="glyph1939" 
 />
    <glyph glyph-name="glyph1940" 
 />
    <glyph glyph-name="glyph1941" 
 />
    <glyph glyph-name="glyph1942" 
 />
    <glyph glyph-name="glyph1943" 
 />
    <glyph glyph-name="glyph1944" 
 />
    <glyph glyph-name="glyph1945" 
 />
    <glyph glyph-name="glyph1946" 
 />
    <glyph glyph-name="glyph1947" 
 />
    <glyph glyph-name="glyph1948" 
 />
    <glyph glyph-name="glyph1949" 
 />
    <glyph glyph-name="glyph1950" 
 />
    <glyph glyph-name="glyph1951" 
 />
    <glyph glyph-name="glyph1952" 
 />
    <glyph glyph-name="glyph1953" 
 />
    <glyph glyph-name="glyph1954" 
 />
    <glyph glyph-name="glyph1955" 
 />
    <glyph glyph-name="glyph1956" 
 />
    <glyph glyph-name="glyph1957" 
 />
    <glyph glyph-name="glyph1958" 
 />
    <glyph glyph-name="glyph1959" 
 />
    <glyph glyph-name="glyph1960" 
 />
    <glyph glyph-name="glyph1961" 
 />
    <glyph glyph-name="glyph1962" 
 />
    <glyph glyph-name="glyph1963" 
 />
    <glyph glyph-name="glyph1964" 
 />
    <glyph glyph-name="glyph1965" 
 />
    <glyph glyph-name="glyph1966" 
 />
    <glyph glyph-name="glyph1967" 
 />
    <glyph glyph-name="glyph1968" 
 />
    <glyph glyph-name="glyph1969" 
 />
    <glyph glyph-name="glyph1970" 
 />
    <glyph glyph-name="glyph1971" 
 />
    <glyph glyph-name="glyph1972" 
 />
    <glyph glyph-name="glyph1973" 
 />
    <glyph glyph-name="glyph1974" 
 />
    <glyph glyph-name="glyph1975" 
 />
    <glyph glyph-name="glyph1976" 
 />
    <glyph glyph-name="glyph1977" 
 />
    <glyph glyph-name="glyph1978" 
 />
    <glyph glyph-name="glyph1979" 
 />
    <glyph glyph-name="glyph1980" 
 />
    <glyph glyph-name="glyph1981" 
 />
    <glyph glyph-name="glyph1982" 
 />
    <glyph glyph-name="glyph1983" 
 />
    <glyph glyph-name="glyph1984" 
 />
    <glyph glyph-name="glyph1985" 
 />
    <glyph glyph-name="glyph1986" 
 />
    <glyph glyph-name="glyph1987" 
 />
    <glyph glyph-name="glyph1988" 
 />
    <glyph glyph-name="glyph1989" 
 />
    <glyph glyph-name="glyph1990" 
 />
    <glyph glyph-name="glyph1991" 
 />
    <glyph glyph-name="glyph1992" 
 />
    <glyph glyph-name="glyph1993" 
 />
    <glyph glyph-name="glyph1994" 
 />
    <glyph glyph-name="glyph1995" 
 />
    <glyph glyph-name="glyph1996" 
 />
    <glyph glyph-name="glyph1997" horiz-adv-x="1190" 
d="M604 1266c38.667 0 73.5 5.66699 104.5 17s57.667 26.666 80 45.999s40 41.666 53 66.999s21.167 51.666 24.5 78.999h98c-6.66699 -36 -19.167 -71.167 -37.5 -105.5s-42.5 -64.833 -72.5 -91.5s-66 -48 -108 -64s-89.667 -24 -143 -24s-100 8 -140 24
s-73.667 37.333 -101 64s-49.166 57.167 -65.499 91.5s-27.833 69.5 -34.5 105.5h98c3.33301 -27.333 10.666 -53.666 21.999 -78.999s27 -47.666 47 -66.999s44.333 -34.666 73 -45.999s62 -17 100 -17h2z" />
    <glyph glyph-name="glyph1998" 
 />
    <glyph glyph-name="glyph1999" 
 />
    <glyph glyph-name="glyph2000" 
 />
    <glyph glyph-name="glyph2001" 
 />
    <glyph glyph-name="glyph2002" 
 />
    <glyph glyph-name="glyph2003" 
 />
    <glyph glyph-name="glyph2004" 
 />
    <glyph glyph-name="glyph2005" 
 />
    <glyph glyph-name="glyph2006" 
 />
    <glyph glyph-name="glyph2007" 
 />
    <glyph glyph-name="glyph2008" 
 />
    <glyph glyph-name="glyph2009" 
 />
    <glyph glyph-name="glyph2010" 
 />
    <glyph glyph-name="glyph2011" 
 />
    <glyph glyph-name="glyph2012" 
 />
    <glyph glyph-name="glyph2013" 
 />
    <glyph glyph-name="glyph2014" 
 />
    <glyph glyph-name="glyph2015" 
 />
    <glyph glyph-name="glyph2016" 
 />
    <glyph glyph-name="glyph2017" 
 />
    <glyph glyph-name="glyph2018" 
 />
    <glyph glyph-name="glyph2019" 
 />
    <glyph glyph-name="glyph2020" 
 />
    <glyph glyph-name="glyph2021" 
 />
    <glyph glyph-name="glyph2022" 
 />
    <glyph glyph-name="glyph2023" 
 />
    <glyph glyph-name="glyph2024" 
 />
    <glyph glyph-name="glyph2025" 
 />
    <glyph glyph-name="glyph2026" 
 />
    <glyph glyph-name="glyph2027" 
 />
    <glyph glyph-name="glyph2028" 
 />
    <glyph glyph-name="glyph2029" 
 />
    <glyph glyph-name="glyph2030" 
 />
    <glyph glyph-name="glyph2031" 
 />
    <glyph glyph-name="glyph2032" 
 />
    <glyph glyph-name="glyph2033" 
 />
    <glyph glyph-name="glyph2034" 
 />
    <glyph glyph-name="glyph2035" 
 />
    <glyph glyph-name="glyph2036" 
 />
    <glyph glyph-name="glyph2037" 
 />
    <glyph glyph-name="glyph2038" 
 />
    <glyph glyph-name="glyph2039" 
 />
    <glyph glyph-name="glyph2040" 
 />
    <glyph glyph-name="glyph2041" 
 />
    <glyph glyph-name="glyph2042" 
 />
    <glyph glyph-name="glyph2043" 
 />
    <glyph glyph-name="glyph2044" 
 />
    <glyph glyph-name="glyph2045" 
 />
    <glyph glyph-name="glyph2046" 
 />
    <glyph glyph-name="glyph2047" 
 />
    <glyph glyph-name="glyph2048" 
 />
    <glyph glyph-name="glyph2049" 
 />
    <glyph glyph-name="glyph2050" 
 />
    <glyph glyph-name="glyph2051" 
 />
    <glyph glyph-name="glyph2052" 
 />
    <glyph glyph-name="glyph2053" 
 />
    <glyph glyph-name="glyph2054" 
 />
    <glyph glyph-name="glyph2055" 
 />
    <glyph glyph-name="glyph2056" 
 />
    <glyph glyph-name="glyph2057" 
 />
    <glyph glyph-name="glyph2058" 
 />
    <glyph glyph-name="glyph2059" 
 />
    <glyph glyph-name="glyph2060" 
 />
    <glyph glyph-name="glyph2061" 
 />
    <glyph glyph-name="glyph2062" 
 />
    <glyph glyph-name="glyph2063" 
 />
    <glyph glyph-name="glyph2064" 
 />
    <glyph glyph-name="glyph2065" 
 />
    <glyph glyph-name="glyph2066" 
 />
    <glyph glyph-name="glyph2067" 
 />
    <glyph glyph-name="glyph2068" 
 />
    <glyph glyph-name="glyph2069" 
 />
    <glyph glyph-name="glyph2070" 
 />
    <glyph glyph-name="glyph2071" 
 />
    <glyph glyph-name="glyph2072" 
 />
    <glyph glyph-name="glyph2073" 
 />
    <glyph glyph-name="glyph2074" 
 />
    <glyph glyph-name="glyph2075" 
 />
    <glyph glyph-name="glyph2076" 
 />
    <glyph glyph-name="glyph2077" 
 />
    <glyph glyph-name="glyph2078" 
 />
    <glyph glyph-name="glyph2079" 
 />
    <glyph glyph-name="glyph2080" 
 />
    <glyph glyph-name="glyph2081" 
 />
    <glyph glyph-name="glyph2082" 
 />
    <glyph glyph-name="glyph2083" 
 />
    <glyph glyph-name="glyph2084" 
 />
    <glyph glyph-name="glyph2085" 
 />
    <glyph glyph-name="glyph2086" 
 />
    <glyph glyph-name="glyph2087" 
 />
    <glyph glyph-name="glyph2088" 
 />
    <glyph glyph-name="glyph2089" 
 />
    <glyph glyph-name="glyph2090" 
 />
    <glyph glyph-name="glyph2091" 
 />
    <glyph glyph-name="glyph2092" 
 />
    <glyph glyph-name="glyph2093" 
 />
    <glyph glyph-name="glyph2094" 
 />
    <glyph glyph-name="glyph2095" 
 />
    <glyph glyph-name="glyph2096" 
 />
    <glyph glyph-name="glyph2097" 
 />
    <glyph glyph-name="glyph2098" 
 />
    <glyph glyph-name="glyph2099" 
 />
    <glyph glyph-name="glyph2100" 
 />
    <glyph glyph-name="glyph2101" 
 />
    <glyph glyph-name="glyph2102" 
 />
    <glyph glyph-name="glyph2103" 
 />
    <glyph glyph-name="glyph2104" 
 />
    <glyph glyph-name="glyph2105" 
 />
    <glyph glyph-name="glyph2106" 
 />
    <glyph glyph-name="glyph2107" 
 />
    <glyph glyph-name="glyph2108" 
 />
    <glyph glyph-name="glyph2109" 
 />
    <glyph glyph-name="glyph2110" 
 />
    <glyph glyph-name="glyph2111" 
 />
    <glyph glyph-name="glyph2112" 
 />
    <glyph glyph-name="glyph2113" 
 />
    <glyph glyph-name="glyph2114" 
 />
    <glyph glyph-name="glyph2115" 
 />
    <glyph glyph-name="glyph2116" 
 />
    <glyph glyph-name="glyph2117" 
 />
    <glyph glyph-name="glyph2118" 
 />
    <glyph glyph-name="glyph2119" 
 />
    <glyph glyph-name="glyph2120" 
 />
    <glyph glyph-name="glyph2121" 
 />
    <glyph glyph-name="glyph2122" 
 />
    <glyph glyph-name="glyph2123" 
 />
    <glyph glyph-name="glyph2124" 
 />
    <glyph glyph-name="glyph2125" 
 />
    <glyph glyph-name="glyph2126" 
 />
    <glyph glyph-name="glyph2127" 
 />
    <glyph glyph-name="glyph2128" 
 />
    <glyph glyph-name="glyph2129" 
 />
    <glyph glyph-name="glyph2130" 
 />
    <glyph glyph-name="glyph2131" 
 />
    <glyph glyph-name="glyph2132" 
 />
    <glyph glyph-name="glyph2133" 
 />
    <glyph glyph-name="glyph2134" 
 />
    <glyph glyph-name="glyph2135" 
 />
    <glyph glyph-name="glyph2136" 
 />
    <glyph glyph-name="glyph2137" 
 />
    <glyph glyph-name="glyph2138" 
 />
    <glyph glyph-name="glyph2139" 
 />
    <glyph glyph-name="glyph2140" 
 />
    <glyph glyph-name="glyph2141" 
 />
    <glyph glyph-name="glyph2142" 
 />
    <glyph glyph-name="glyph2143" 
 />
    <glyph glyph-name="glyph2144" 
 />
    <glyph glyph-name="glyph2145" 
 />
    <glyph glyph-name="glyph2146" 
 />
    <glyph glyph-name="glyph2147" 
 />
    <glyph glyph-name="glyph2148" 
 />
    <glyph glyph-name="glyph2149" 
 />
    <glyph glyph-name="glyph2150" 
 />
    <glyph glyph-name="glyph2151" 
 />
    <glyph glyph-name="glyph2152" 
 />
    <glyph glyph-name="glyph2153" 
 />
    <glyph glyph-name="glyph2154" 
 />
    <glyph glyph-name="glyph2155" 
 />
    <glyph glyph-name="glyph2156" 
 />
    <glyph glyph-name="glyph2157" 
 />
    <glyph glyph-name="glyph2158" 
 />
    <glyph glyph-name="glyph2159" 
 />
    <glyph glyph-name="glyph2160" 
 />
    <glyph glyph-name="glyph2161" 
 />
    <glyph glyph-name="glyph2162" 
 />
    <glyph glyph-name="glyph2163" 
 />
    <glyph glyph-name="glyph2164" 
 />
    <glyph glyph-name="glyph2165" 
 />
    <glyph glyph-name="glyph2166" 
 />
    <glyph glyph-name="glyph2167" 
 />
    <glyph glyph-name="glyph2168" 
 />
    <glyph glyph-name="glyph2169" 
 />
    <glyph glyph-name="glyph2170" 
 />
    <glyph glyph-name="glyph2171" 
 />
    <glyph glyph-name="glyph2172" 
 />
    <glyph glyph-name="glyph2173" 
 />
    <glyph glyph-name="glyph2174" 
 />
    <glyph glyph-name="glyph2175" 
 />
    <glyph glyph-name="glyph2176" 
 />
    <glyph glyph-name="glyph2177" 
 />
    <glyph glyph-name="glyph2178" 
 />
    <glyph glyph-name="glyph2179" 
 />
    <glyph glyph-name="glyph2180" 
 />
    <glyph glyph-name="glyph2181" 
 />
    <glyph glyph-name="glyph2182" 
 />
    <glyph glyph-name="glyph2183" 
 />
    <glyph glyph-name="glyph2184" 
 />
    <glyph glyph-name="glyph2185" 
 />
    <glyph glyph-name="glyph2186" 
 />
    <glyph glyph-name="glyph2187" 
 />
    <glyph glyph-name="glyph2188" 
 />
    <glyph glyph-name="zero.frac" 
 />
    <glyph glyph-name="six.frac" 
 />
    <glyph glyph-name="nine.frac" 
 />
    <glyph glyph-name="glyph2192" 
 />
    <glyph glyph-name="glyph2193" 
 />
    <glyph glyph-name="glyph2194" 
 />
    <glyph glyph-name="glyph2195" 
 />
    <glyph glyph-name="glyph2196" 
 />
    <glyph glyph-name="i.superior" 
 />
    <glyph glyph-name="two.superior" 
 />
    <glyph glyph-name="three.superior" 
 />
    <glyph glyph-name="one.superior" 
 />
    <glyph glyph-name="zero.superior" 
 />
    <glyph glyph-name="four.superior" 
 />
    <glyph glyph-name="five.superior" 
 />
    <glyph glyph-name="six.superior" 
 />
    <glyph glyph-name="seven.superior" 
 />
    <glyph glyph-name="eight.superior" 
 />
    <glyph glyph-name="nine.superior" 
 />
    <glyph glyph-name="glyph2208" 
 />
    <glyph glyph-name="glyph2209" 
 />
    <glyph glyph-name="glyph2210" 
 />
    <glyph glyph-name="glyph2211" 
 />
    <glyph glyph-name="glyph2212" 
 />
    <glyph glyph-name="zero.inferior" 
 />
    <glyph glyph-name="one.inferior" 
 />
    <glyph glyph-name="two.inferior" 
 />
    <glyph glyph-name="three.inferior" 
 />
    <glyph glyph-name="four.inferior" 
 />
    <glyph glyph-name="five.inferior" 
 />
    <glyph glyph-name="six.inferior" 
 />
    <glyph glyph-name="seven.inferior" 
 />
    <glyph glyph-name="eight.inferior" 
 />
    <glyph glyph-name="nine.inferior" 
 />
    <glyph glyph-name="glyph2223" 
 />
    <glyph glyph-name="glyph2224" 
 />
    <glyph glyph-name="glyph2225" 
 />
    <glyph glyph-name="glyph2226" 
 />
    <glyph glyph-name="glyph2227" 
 />
    <glyph glyph-name="glyph2228" 
 />
    <glyph glyph-name="glyph2229" 
 />
    <glyph glyph-name="glyph2230" 
 />
    <glyph glyph-name="glyph2231" 
 />
    <glyph glyph-name="glyph2232" 
 />
    <glyph glyph-name="glyph2233" 
 />
    <glyph glyph-name="glyph2234" 
 />
    <glyph glyph-name="glyph2235" 
 />
    <glyph glyph-name="glyph2236" 
 />
    <glyph glyph-name="glyph2237" 
 />
    <glyph glyph-name="glyph2238" 
 />
    <glyph glyph-name="glyph2239" 
 />
    <glyph glyph-name="glyph2240" 
 />
    <glyph glyph-name="glyph2241" 
 />
    <glyph glyph-name="glyph2242" 
 />
    <glyph glyph-name="glyph2243" 
 />
    <glyph glyph-name="glyph2244" 
 />
    <glyph glyph-name="glyph2245" 
 />
    <glyph glyph-name="glyph2246" 
 />
    <glyph glyph-name="glyph2247" 
 />
    <glyph glyph-name="glyph2248" 
 />
    <glyph glyph-name="glyph2249" 
 />
    <glyph glyph-name="glyph2250" 
 />
    <glyph glyph-name="glyph2251" 
 />
    <glyph glyph-name="glyph2252" 
 />
    <glyph glyph-name="glyph2253" 
 />
    <glyph glyph-name="glyph2254" 
 />
    <glyph glyph-name="glyph2255" 
 />
    <glyph glyph-name="glyph2256" 
 />
    <glyph glyph-name="glyph2257" 
 />
    <glyph glyph-name="glyph2258" 
 />
    <glyph glyph-name="glyph2259" 
 />
    <glyph glyph-name="glyph2260" 
 />
    <glyph glyph-name="glyph2261" 
 />
    <glyph glyph-name="glyph2262" 
 />
    <glyph glyph-name="glyph2263" 
 />
    <glyph glyph-name="glyph2264" 
 />
    <glyph glyph-name="glyph2265" 
 />
    <glyph glyph-name="glyph2266" 
 />
    <glyph glyph-name="glyph2267" 
 />
    <glyph glyph-name="glyph2268" 
 />
    <glyph glyph-name="glyph2269" 
 />
    <glyph glyph-name="glyph2270" 
 />
    <glyph glyph-name="glyph2271" 
 />
    <glyph glyph-name="glyph2272" 
 />
    <glyph glyph-name="glyph2273" 
 />
    <glyph glyph-name="glyph2274" 
 />
    <glyph glyph-name="glyph2275" 
 />
    <glyph glyph-name="glyph2276" 
 />
    <glyph glyph-name="glyph2277" 
 />
    <glyph glyph-name="glyph2278" 
 />
    <glyph glyph-name="glyph2279" 
 />
    <glyph glyph-name="glyph2280" 
 />
    <glyph glyph-name="glyph2281" 
 />
    <glyph glyph-name="glyph2282" 
 />
    <glyph glyph-name="glyph2283" 
 />
    <glyph glyph-name="glyph2284" 
 />
    <glyph glyph-name="glyph2285" 
 />
    <glyph glyph-name="glyph2286" 
 />
    <glyph glyph-name="glyph2287" 
 />
    <glyph glyph-name="glyph2288" 
 />
    <glyph glyph-name="glyph2289" 
 />
    <glyph glyph-name="glyph2290" 
 />
    <glyph glyph-name="glyph2291" 
 />
    <glyph glyph-name="glyph2292" 
 />
    <glyph glyph-name="glyph2293" 
 />
    <glyph glyph-name="glyph2294" 
 />
    <glyph glyph-name="glyph2295" 
 />
    <glyph glyph-name="glyph2296" 
 />
    <glyph glyph-name="glyph2297" 
 />
    <glyph glyph-name="glyph2298" 
 />
    <glyph glyph-name="glyph2299" 
 />
    <glyph glyph-name="glyph2300" 
 />
    <glyph glyph-name="glyph2301" 
 />
    <glyph glyph-name="glyph2302" 
 />
    <glyph glyph-name="glyph2303" 
 />
    <glyph glyph-name="glyph2304" 
 />
    <glyph glyph-name="glyph2305" 
 />
    <glyph glyph-name="glyph2306" 
 />
    <glyph glyph-name="glyph2307" 
 />
    <glyph glyph-name="glyph2308" 
 />
    <glyph glyph-name="glyph2309" 
 />
    <glyph glyph-name="glyph2310" 
 />
    <glyph glyph-name="glyph2311" 
 />
    <glyph glyph-name="glyph2312" 
 />
    <glyph glyph-name="glyph2313" 
 />
    <glyph glyph-name="glyph2314" 
 />
    <glyph glyph-name="glyph2315" 
 />
    <glyph glyph-name="glyph2316" 
 />
    <glyph glyph-name="glyph2317" 
 />
    <glyph glyph-name="glyph2318" 
 />
    <glyph glyph-name="glyph2319" 
 />
    <glyph glyph-name="glyph2320" 
 />
    <glyph glyph-name="glyph2321" 
 />
    <glyph glyph-name="glyph2322" 
 />
    <glyph glyph-name="glyph2323" 
 />
    <glyph glyph-name="glyph2324" 
 />
    <glyph glyph-name="glyph2325" 
 />
    <glyph glyph-name="glyph2326" 
 />
    <glyph glyph-name="glyph2327" 
 />
    <glyph glyph-name="glyph2328" 
 />
    <glyph glyph-name="glyph2329" 
 />
    <glyph glyph-name="glyph2330" 
 />
    <glyph glyph-name="glyph2331" 
 />
    <glyph glyph-name="glyph2332" 
 />
    <glyph glyph-name="glyph2333" 
 />
    <glyph glyph-name="glyph2334" 
 />
    <glyph glyph-name="glyph2335" 
 />
    <glyph glyph-name="glyph2336" 
 />
    <glyph glyph-name="glyph2337" 
 />
    <glyph glyph-name="glyph2338" 
 />
    <glyph glyph-name="glyph2339" 
 />
    <glyph glyph-name="glyph2340" 
 />
    <glyph glyph-name="glyph2341" 
 />
    <glyph glyph-name="glyph2342" 
 />
    <glyph glyph-name="glyph2343" 
 />
    <glyph glyph-name="glyph2344" 
 />
    <glyph glyph-name="glyph2345" 
 />
    <glyph glyph-name="glyph2346" 
 />
    <glyph glyph-name="glyph2347" 
 />
    <glyph glyph-name="glyph2348" 
 />
    <glyph glyph-name="glyph2349" 
 />
    <glyph glyph-name="glyph2350" 
 />
    <glyph glyph-name="glyph2351" 
 />
    <glyph glyph-name="glyph2352" 
 />
    <glyph glyph-name="glyph2353" 
 />
    <glyph glyph-name="glyph2354" 
 />
    <glyph glyph-name="glyph2355" 
 />
    <glyph glyph-name="glyph2356" 
 />
    <glyph glyph-name="glyph2357" 
 />
    <glyph glyph-name="glyph2358" 
 />
    <glyph glyph-name="glyph2359" 
 />
    <glyph glyph-name="glyph2360" 
 />
    <glyph glyph-name="glyph2361" 
 />
    <glyph glyph-name="glyph2362" 
 />
    <glyph glyph-name="glyph2363" 
 />
    <glyph glyph-name="glyph2364" 
 />
    <glyph glyph-name="glyph2365" 
 />
    <glyph glyph-name="glyph2366" 
 />
    <glyph glyph-name="glyph2367" 
 />
    <glyph glyph-name="glyph2368" 
 />
    <glyph glyph-name="glyph2369" 
 />
    <glyph glyph-name="glyph2370" 
 />
    <glyph glyph-name="glyph2371" 
 />
    <glyph glyph-name="glyph2372" 
 />
    <glyph glyph-name="glyph2373" 
 />
    <glyph glyph-name="glyph2374" 
 />
    <glyph glyph-name="glyph2375" 
 />
    <glyph glyph-name="glyph2376" 
 />
    <glyph glyph-name="glyph2377" 
 />
    <glyph glyph-name="glyph2378" 
 />
    <glyph glyph-name="glyph2379" 
 />
    <glyph glyph-name="glyph2380" 
 />
    <glyph glyph-name="glyph2381" 
 />
    <glyph glyph-name="glyph2382" 
 />
    <glyph glyph-name="zero.oldstyle" 
 />
    <glyph glyph-name="one.oldstyle" 
 />
    <glyph glyph-name="two.oldstyle" 
 />
    <glyph glyph-name="three.oldstyle" 
 />
    <glyph glyph-name="four.oldstyle" 
 />
    <glyph glyph-name="five.oldstyle" 
 />
    <glyph glyph-name="six.oldstyle" 
 />
    <glyph glyph-name="seven.oldstyle" 
 />
    <glyph glyph-name="eight.oldstyle" 
 />
    <glyph glyph-name="nine.oldstyle" 
 />
    <glyph glyph-name="zero.oldstyle.tnum" 
 />
    <glyph glyph-name="one.oldstyle.tnum" 
 />
    <glyph glyph-name="two.oldstyle.tnum" 
 />
    <glyph glyph-name="three.oldstyle.tnum" 
 />
    <glyph glyph-name="four.oldstyle.tnum" 
 />
    <glyph glyph-name="five.oldstyle.tnum" 
 />
    <glyph glyph-name="six.oldstyle.tnum" 
 />
    <glyph glyph-name="seven.oldstyle.tnum" 
 />
    <glyph glyph-name="eight.oldstyle.tnum" 
 />
    <glyph glyph-name="nine.oldstyle.tnum" 
 />
    <glyph glyph-name="zero.tnum" 
 />
    <glyph glyph-name="one.tnum" 
 />
    <glyph glyph-name="two.tnum" 
 />
    <glyph glyph-name="three.tnum" 
 />
    <glyph glyph-name="four.tnum" 
 />
    <glyph glyph-name="five.tnum" 
 />
    <glyph glyph-name="six.tnum" 
 />
    <glyph glyph-name="seven.tnum" 
 />
    <glyph glyph-name="eight.tnum" 
 />
    <glyph glyph-name="nine.tnum" 
 />
    <glyph glyph-name="zero.ss01" 
 />
    <glyph glyph-name="one.ss01" 
 />
    <glyph glyph-name="two.ss01" 
 />
    <glyph glyph-name="three.ss01" 
 />
    <glyph glyph-name="four.ss01" 
 />
    <glyph glyph-name="five.ss01" 
 />
    <glyph glyph-name="six.ss01" 
 />
    <glyph glyph-name="seven.ss01" 
 />
    <glyph glyph-name="eight.ss01" 
 />
    <glyph glyph-name="nine.ss01" 
 />
    <glyph glyph-name="glyph2423" 
 />
    <glyph glyph-name="glyph2424" 
 />
    <glyph glyph-name="glyph2425" 
 />
    <glyph glyph-name="glyph2426" 
 />
    <glyph glyph-name="glyph2427" 
 />
    <glyph glyph-name="glyph2428" 
 />
    <glyph glyph-name="glyph2429" 
 />
    <glyph glyph-name="glyph2430" 
 />
    <glyph glyph-name="glyph2431" 
 />
    <glyph glyph-name="glyph2432" 
 />
    <glyph glyph-name="A.c2sc" 
 />
    <glyph glyph-name="B.c2sc" 
 />
    <glyph glyph-name="C.c2sc" 
 />
    <glyph glyph-name="D.c2sc" 
 />
    <glyph glyph-name="E.c2sc" 
 />
    <glyph glyph-name="F.c2sc" 
 />
    <glyph glyph-name="G.c2sc" 
 />
    <glyph glyph-name="H.c2sc" 
 />
    <glyph glyph-name="I.c2sc" 
 />
    <glyph glyph-name="J.c2sc" 
 />
    <glyph glyph-name="K.c2sc" 
 />
    <glyph glyph-name="L.c2sc" 
 />
    <glyph glyph-name="M.c2sc" 
 />
    <glyph glyph-name="N.c2sc" 
 />
    <glyph glyph-name="O.c2sc" 
 />
    <glyph glyph-name="P.c2sc" 
 />
    <glyph glyph-name="Q.c2sc" 
 />
    <glyph glyph-name="R.c2sc" 
 />
    <glyph glyph-name="S.c2sc" 
 />
    <glyph glyph-name="T.c2sc" 
 />
    <glyph glyph-name="U.c2sc" 
 />
    <glyph glyph-name="V.c2sc" 
 />
    <glyph glyph-name="W.c2sc" 
 />
    <glyph glyph-name="X.c2sc" 
 />
    <glyph glyph-name="Y.c2sc" 
 />
    <glyph glyph-name="Z.c2sc" 
 />
    <glyph glyph-name="glyph2459" 
 />
    <glyph glyph-name="glyph2460" 
 />
    <glyph glyph-name="glyph2461" 
 />
    <glyph glyph-name="glyph2462" 
 />
    <glyph glyph-name="glyph2463" 
 />
    <glyph glyph-name="glyph2464" 
 />
    <glyph glyph-name="glyph2465" 
 />
    <glyph glyph-name="glyph2466" 
 />
    <glyph glyph-name="glyph2467" 
 />
    <glyph glyph-name="glyph2468" 
 />
    <glyph glyph-name="glyph2469" 
 />
    <glyph glyph-name="glyph2470" 
 />
    <glyph glyph-name="glyph2471" 
 />
    <glyph glyph-name="glyph2472" 
 />
    <glyph glyph-name="glyph2473" 
 />
    <glyph glyph-name="glyph2474" 
 />
    <glyph glyph-name="glyph2475" 
 />
    <glyph glyph-name="glyph2476" 
 />
    <glyph glyph-name="glyph2477" 
 />
    <glyph glyph-name="glyph2478" 
 />
    <glyph glyph-name="glyph2479" 
 />
    <glyph glyph-name="glyph2480" 
 />
    <glyph glyph-name="glyph2481" 
 />
    <glyph glyph-name="glyph2482" 
 />
    <glyph glyph-name="glyph2483" 
 />
    <glyph glyph-name="glyph2484" 
 />
    <glyph glyph-name="glyph2485" 
 />
    <glyph glyph-name="glyph2486" 
 />
    <glyph glyph-name="glyph2487" 
 />
    <glyph glyph-name="glyph2488" 
 />
    <glyph glyph-name="glyph2489" 
 />
    <glyph glyph-name="glyph2490" 
 />
    <glyph glyph-name="glyph2491" 
 />
    <glyph glyph-name="glyph2492" 
 />
    <glyph glyph-name="glyph2493" 
 />
    <glyph glyph-name="glyph2494" 
 />
    <glyph glyph-name="glyph2495" 
 />
    <glyph glyph-name="glyph2496" 
 />
    <glyph glyph-name="glyph2497" 
 />
    <glyph glyph-name="glyph2498" 
 />
    <glyph glyph-name="glyph2499" 
 />
    <glyph glyph-name="glyph2500" 
 />
    <glyph glyph-name="glyph2501" 
 />
    <glyph glyph-name="glyph2502" 
 />
    <glyph glyph-name="glyph2503" 
 />
    <glyph glyph-name="glyph2504" 
 />
    <glyph glyph-name="glyph2505" 
 />
    <glyph glyph-name="glyph2506" 
 />
    <glyph glyph-name="glyph2507" 
 />
    <glyph glyph-name="glyph2508" 
 />
    <glyph glyph-name="glyph2509" 
 />
    <glyph glyph-name="glyph2510" 
 />
    <glyph glyph-name="glyph2511" 
 />
    <glyph glyph-name="glyph2512" 
 />
    <glyph glyph-name="glyph2513" 
 />
    <glyph glyph-name="glyph2514" 
 />
    <glyph glyph-name="glyph2515" 
 />
    <glyph glyph-name="i.sc" 
 />
    <glyph glyph-name="glyph2517" 
 />
    <glyph glyph-name="glyph2518" 
 />
    <glyph glyph-name="glyph2519" 
 />
    <glyph glyph-name="glyph2520" 
 />
    <glyph glyph-name="glyph2521" 
 />
    <glyph glyph-name="glyph2522" 
 />
    <glyph glyph-name="glyph2523" 
 />
    <glyph glyph-name="glyph2524" 
 />
    <glyph glyph-name="glyph2525" 
 />
    <glyph glyph-name="glyph2526" 
 />
    <glyph glyph-name="glyph2527" 
 />
    <glyph glyph-name="glyph2528" 
 />
    <glyph glyph-name="glyph2529" 
 />
    <glyph glyph-name="glyph2530" 
 />
    <glyph glyph-name="glyph2531" 
 />
    <glyph glyph-name="glyph2532" 
 />
    <glyph glyph-name="glyph2533" 
 />
    <glyph glyph-name="glyph2534" 
 />
    <glyph glyph-name="glyph2535" 
 />
    <glyph glyph-name="glyph2536" 
 />
    <glyph glyph-name="glyph2537" 
 />
    <glyph glyph-name="glyph2538" 
 />
    <glyph glyph-name="glyph2539" 
 />
    <glyph glyph-name="glyph2540" 
 />
    <glyph glyph-name="glyph2541" 
 />
    <glyph glyph-name="glyph2542" 
 />
    <glyph glyph-name="glyph2543" 
 />
    <glyph glyph-name="glyph2544" 
 />
    <glyph glyph-name="glyph2545" 
 />
    <glyph glyph-name="glyph2546" 
 />
    <glyph glyph-name="glyph2547" 
 />
    <glyph glyph-name="glyph2548" 
 />
    <glyph glyph-name="glyph2549" 
 />
    <glyph glyph-name="glyph2550" 
 />
    <glyph glyph-name="glyph2551" 
 />
    <glyph glyph-name="glyph2552" 
 />
    <glyph glyph-name="glyph2553" 
 />
    <glyph glyph-name="glyph2554" 
 />
    <glyph glyph-name="glyph2555" 
 />
    <glyph glyph-name="glyph2556" 
 />
    <glyph glyph-name="glyph2557" 
 />
    <glyph glyph-name="glyph2558" 
 />
    <glyph glyph-name="glyph2559" 
 />
    <glyph glyph-name="glyph2560" 
 />
    <glyph glyph-name="glyph2561" 
 />
    <glyph glyph-name="glyph2562" 
 />
    <glyph glyph-name="glyph2563" 
 />
    <glyph glyph-name="glyph2564" 
 />
    <glyph glyph-name="glyph2565" 
 />
    <glyph glyph-name="glyph2566" 
 />
    <glyph glyph-name="glyph2567" 
 />
    <glyph glyph-name="glyph2568" 
 />
    <glyph glyph-name="glyph2569" 
 />
    <glyph glyph-name="glyph2570" 
 />
    <glyph glyph-name="glyph2571" 
 />
    <glyph glyph-name="glyph2572" 
 />
    <glyph glyph-name="glyph2573" 
 />
    <glyph glyph-name="glyph2574" 
 />
    <glyph glyph-name="glyph2575" 
 />
    <glyph glyph-name="glyph2576" 
 />
    <glyph glyph-name="glyph2577" 
 />
    <glyph glyph-name="glyph2578" 
 />
    <glyph glyph-name="glyph2579" 
 />
    <glyph glyph-name="glyph2580" 
 />
    <glyph glyph-name="glyph2581" 
 />
    <glyph glyph-name="glyph2582" 
 />
    <glyph glyph-name="glyph2583" 
 />
    <glyph glyph-name="glyph2584" 
 />
    <glyph glyph-name="glyph2585" 
 />
    <glyph glyph-name="glyph2586" 
 />
    <glyph glyph-name="glyph2587" 
 />
    <glyph glyph-name="glyph2588" 
 />
    <glyph glyph-name="glyph2589" 
 />
    <glyph glyph-name="glyph2590" 
 />
    <glyph glyph-name="glyph2591" 
 />
    <glyph glyph-name="glyph2592" 
 />
    <glyph glyph-name="glyph2593" 
 />
    <glyph glyph-name="glyph2594" 
 />
    <glyph glyph-name="afii10023.c2sc" 
 />
    <glyph glyph-name="afii10051.c2sc" 
 />
    <glyph glyph-name="afii10052.c2sc" 
 />
    <glyph glyph-name="afii10053.c2sc" 
 />
    <glyph glyph-name="afii10054.c2sc" 
 />
    <glyph glyph-name="afii10055.c2sc" 
 />
    <glyph glyph-name="afii10056.c2sc" 
 />
    <glyph glyph-name="afii10057.c2sc" 
 />
    <glyph glyph-name="afii10058.c2sc" 
 />
    <glyph glyph-name="afii10059.c2sc" 
 />
    <glyph glyph-name="afii10060.c2sc" 
 />
    <glyph glyph-name="afii10061.c2sc" 
 />
    <glyph glyph-name="afii10062.c2sc" 
 />
    <glyph glyph-name="afii10145.c2sc" 
 />
    <glyph glyph-name="afii10017.c2sc" 
 />
    <glyph glyph-name="afii10018.c2sc" 
 />
    <glyph glyph-name="afii10019.c2sc" 
 />
    <glyph glyph-name="afii10020.c2sc" 
 />
    <glyph glyph-name="afii10021.c2sc" 
 />
    <glyph glyph-name="afii10022.c2sc" 
 />
    <glyph glyph-name="afii10024.c2sc" 
 />
    <glyph glyph-name="afii10025.c2sc" 
 />
    <glyph glyph-name="afii10026.c2sc" 
 />
    <glyph glyph-name="afii10027.c2sc" 
 />
    <glyph glyph-name="afii10028.c2sc" 
 />
    <glyph glyph-name="afii10029.c2sc" 
 />
    <glyph glyph-name="afii10030.c2sc" 
 />
    <glyph glyph-name="afii10031.c2sc" 
 />
    <glyph glyph-name="afii10032.c2sc" 
 />
    <glyph glyph-name="afii10033.c2sc" 
 />
    <glyph glyph-name="afii10034.c2sc" 
 />
    <glyph glyph-name="afii10035.c2sc" 
 />
    <glyph glyph-name="afii10036.c2sc" 
 />
    <glyph glyph-name="afii10037.c2sc" 
 />
    <glyph glyph-name="afii10038.c2sc" 
 />
    <glyph glyph-name="afii10039.c2sc" 
 />
    <glyph glyph-name="afii10040.c2sc" 
 />
    <glyph glyph-name="afii10041.c2sc" 
 />
    <glyph glyph-name="afii10042.c2sc" 
 />
    <glyph glyph-name="afii10043.c2sc" 
 />
    <glyph glyph-name="afii10044.c2sc" 
 />
    <glyph glyph-name="afii10045.c2sc" 
 />
    <glyph glyph-name="afii10046.c2sc" 
 />
    <glyph glyph-name="afii10047.c2sc" 
 />
    <glyph glyph-name="afii10048.c2sc" 
 />
    <glyph glyph-name="afii10049.c2sc" 
 />
    <glyph glyph-name="afii10050.c2sc" 
 />
    <glyph glyph-name="f_i.dlig" 
 />
    <glyph glyph-name="f_l.dlig" 
 />
    <glyph glyph-name="f_f.dlig" 
 />
    <glyph glyph-name="f_f_i.dlig" 
 />
    <glyph glyph-name="f_f_l.dlig" 
 />
    <glyph glyph-name="ampersand.c2sc" 
 />
    <glyph glyph-name="glyph2648" 
 />
    <glyph glyph-name="glyph2649" 
 />
    <glyph glyph-name="glyph2650" 
 />
    <glyph glyph-name="glyph2651" 
 />
    <glyph glyph-name="glyph2652" 
 />
    <glyph glyph-name="glyph2653" 
 />
    <glyph glyph-name="glyph2654" 
 />
    <glyph glyph-name="glyph2655" 
 />
    <glyph glyph-name="glyph2656" 
 />
    <glyph glyph-name="glyph2657" 
 />
    <glyph glyph-name="glyph2658" 
 />
    <glyph glyph-name="glyph2659" 
 />
    <glyph glyph-name="glyph2660" 
 />
    <glyph glyph-name="glyph2661" 
 />
    <glyph glyph-name="glyph2662" 
 />
    <glyph glyph-name="glyph2663" 
 />
    <glyph glyph-name="glyph2664" 
 />
    <glyph glyph-name="glyph2665" 
 />
    <glyph glyph-name="glyph2666" 
 />
    <glyph glyph-name="glyph2667" 
 />
    <glyph glyph-name="glyph2668" 
 />
    <glyph glyph-name="glyph2669" 
 />
    <glyph glyph-name="glyph2670" 
 />
    <glyph glyph-name="glyph2671" 
 />
    <glyph glyph-name="glyph2672" 
 />
    <glyph glyph-name="glyph2673" 
 />
    <glyph glyph-name="glyph2674" 
 />
    <glyph glyph-name="glyph2675" 
 />
    <glyph glyph-name="glyph2676" 
 />
    <glyph glyph-name="glyph2677" 
 />
    <glyph glyph-name="glyph2678" 
 />
    <glyph glyph-name="glyph2679" 
 />
    <glyph glyph-name="glyph2680" 
 />
    <glyph glyph-name="glyph2681" 
 />
    <glyph glyph-name="glyph2682" 
 />
    <glyph glyph-name="glyph2683" 
 />
    <glyph glyph-name="glyph2684" 
 />
    <glyph glyph-name="glyph2685" 
 />
    <glyph glyph-name="glyph2686" 
 />
    <glyph glyph-name="glyph2687" 
 />
    <glyph glyph-name="glyph2688" 
 />
    <glyph glyph-name="glyph2689" 
 />
    <glyph glyph-name="glyph2690" 
 />
    <glyph glyph-name="glyph2691" 
 />
    <glyph glyph-name="glyph2692" 
 />
    <glyph glyph-name="glyph2693" 
 />
    <glyph glyph-name="glyph2694" 
 />
    <glyph glyph-name="glyph2695" 
 />
    <glyph glyph-name="I.ss01" 
 />
    <glyph glyph-name="Q.ss01" 
 />
    <glyph glyph-name="glyph2698" 
 />
    <glyph glyph-name="exclam.ss19" 
 />
    <glyph glyph-name="comma.ss19" 
 />
    <glyph glyph-name="semicolon.ss19" 
 />
    <glyph glyph-name="question.ss19" 
 />
    <glyph glyph-name="quotedblleft.ss19" 
 />
    <glyph glyph-name="quotedblright.ss19" 
 />
    <glyph glyph-name="quoteleft.ss19" 
 />
    <glyph glyph-name="quoteright.ss19" 
 />
    <glyph glyph-name="quotesinglbase.ss19" 
 />
    <glyph glyph-name="quotedblbase.ss19" 
 />
    <glyph glyph-name="glyph2709" 
 />
    <glyph glyph-name="glyph2710" 
 />
    <glyph glyph-name="glyph2711" 
 />
    <glyph glyph-name="glyph2712" 
 />
    <glyph glyph-name="glyph2713" 
 />
    <glyph glyph-name="glyph2714" 
 />
    <glyph glyph-name="glyph2715" 
 />
    <glyph glyph-name="glyph2716" 
 />
    <glyph glyph-name="glyph2717" 
 />
    <glyph glyph-name="glyph2718" 
 />
    <glyph glyph-name="glyph2719" 
 />
    <glyph glyph-name="glyph2720" 
 />
    <glyph glyph-name="glyph2721" 
 />
    <glyph glyph-name="glyph2722" 
 />
    <glyph glyph-name="glyph2723" 
 />
    <glyph glyph-name="glyph2724" 
 />
    <glyph glyph-name="glyph2725" 
 />
    <glyph glyph-name="glyph2726" 
 />
    <glyph glyph-name="glyph2727" 
 />
    <glyph glyph-name="glyph2728" 
 />
    <glyph glyph-name="glyph2729" 
 />
    <glyph glyph-name="glyph2730" 
 />
    <glyph glyph-name="glyph2731" 
 />
    <glyph glyph-name="glyph2732" 
 />
    <glyph glyph-name="glyph2733" 
 />
    <glyph glyph-name="glyph2734" 
 />
    <glyph glyph-name="glyph2735" 
 />
    <glyph glyph-name="glyph2736" 
 />
    <glyph glyph-name="glyph2737" 
 />
    <glyph glyph-name="glyph2738" 
 />
    <glyph glyph-name="glyph2739" 
 />
    <glyph glyph-name="glyph2740" 
 />
    <glyph glyph-name="glyph2741" 
 />
    <glyph glyph-name="glyph2742" 
 />
    <glyph glyph-name="glyph2743" 
 />
    <glyph glyph-name="glyph2744" 
 />
    <glyph glyph-name="glyph2745" 
 />
    <glyph glyph-name="glyph2746" 
 />
    <glyph glyph-name="glyph2747" 
 />
    <glyph glyph-name="glyph2748" 
 />
    <glyph glyph-name="glyph2749" 
 />
    <glyph glyph-name="glyph2750" 
 />
    <glyph glyph-name="glyph2751" 
 />
    <glyph glyph-name="glyph2752" 
 />
    <glyph glyph-name="glyph2753" 
 />
    <glyph glyph-name="glyph2754" 
 />
    <glyph glyph-name="glyph2755" 
 />
    <glyph glyph-name="glyph2756" 
 />
    <glyph glyph-name="glyph2757" 
 />
    <glyph glyph-name="glyph2758" 
 />
    <glyph glyph-name="glyph2759" 
 />
    <glyph glyph-name="glyph2760" 
 />
    <glyph glyph-name="glyph2761" 
 />
    <glyph glyph-name="glyph2762" 
 />
    <glyph glyph-name="glyph2763" 
 />
    <glyph glyph-name="glyph2764" 
 />
    <glyph glyph-name="glyph2765" 
 />
    <glyph glyph-name="glyph2766" 
 />
    <glyph glyph-name="glyph2767" 
 />
    <glyph glyph-name="glyph2768" 
 />
    <glyph glyph-name="glyph2769" 
 />
    <glyph glyph-name="glyph2770" 
 />
    <glyph glyph-name="glyph2771" 
 />
    <glyph glyph-name="glyph2772" 
 />
    <glyph glyph-name="glyph2773" 
 />
    <glyph glyph-name="glyph2774" 
 />
    <glyph glyph-name="glyph2775" 
 />
    <glyph glyph-name="glyph2776" 
 />
    <glyph glyph-name="glyph2777" 
 />
    <glyph glyph-name="glyph2778" 
 />
    <glyph glyph-name="glyph2779" 
 />
    <glyph glyph-name="glyph2780" 
 />
    <glyph glyph-name="glyph2781" 
 />
    <glyph glyph-name="glyph2782" 
 />
    <glyph glyph-name="glyph2783" 
 />
    <glyph glyph-name="glyph2784" 
 />
    <glyph glyph-name="glyph2785" 
 />
    <glyph glyph-name="glyph2786" 
 />
    <glyph glyph-name="glyph2787" 
 />
    <glyph glyph-name="glyph2788" 
 />
    <glyph glyph-name="glyph2789" 
 />
    <glyph glyph-name="glyph2790" 
 />
    <glyph glyph-name="glyph2791" 
 />
    <glyph glyph-name="glyph2792" 
 />
    <glyph glyph-name="glyph2793" 
 />
    <glyph glyph-name="glyph2794" 
 />
    <glyph glyph-name="glyph2795" 
 />
    <glyph glyph-name="glyph2796" 
 />
    <glyph glyph-name="glyph2797" 
 />
    <glyph glyph-name="glyph2798" 
 />
    <glyph glyph-name="glyph2799" 
 />
    <glyph glyph-name="glyph2800" 
 />
    <glyph glyph-name="glyph2801" 
 />
    <glyph glyph-name="glyph2802" 
 />
    <glyph glyph-name="glyph2803" 
 />
    <glyph glyph-name="glyph2804" 
 />
    <glyph glyph-name="glyph2805" 
 />
    <glyph glyph-name="glyph2806" 
 />
    <glyph glyph-name="glyph2807" 
 />
    <glyph glyph-name="glyph2808" 
 />
    <glyph glyph-name="glyph2809" 
 />
    <glyph glyph-name="glyph2810" 
 />
    <glyph glyph-name="glyph2811" 
 />
    <glyph glyph-name="glyph2812" 
 />
    <glyph glyph-name="glyph2813" 
 />
    <glyph glyph-name="glyph2814" 
 />
    <glyph glyph-name="glyph2815" 
 />
    <glyph glyph-name="glyph2816" 
 />
    <glyph glyph-name="glyph2817" 
 />
    <glyph glyph-name="glyph2818" 
 />
    <glyph glyph-name="glyph2819" 
 />
    <glyph glyph-name="glyph2820" 
 />
    <glyph glyph-name="glyph2821" 
 />
    <glyph glyph-name="glyph2822" 
 />
    <glyph glyph-name="glyph2823" 
 />
    <glyph glyph-name="glyph2824" 
 />
    <glyph glyph-name="glyph2825" 
 />
    <glyph glyph-name="glyph2826" 
 />
    <glyph glyph-name="glyph2827" 
 />
    <glyph glyph-name="glyph2828" 
 />
    <glyph glyph-name="glyph2829" 
 />
    <glyph glyph-name="glyph2830" 
 />
    <glyph glyph-name="glyph2831" 
 />
    </font>
</defs>
</svg>
