<svg xmlns="http://www.w3.org/2000/svg" viewBox="0 0 24 24">
	<path fill="rgb(0, 102, 204)" d="M24,4.556c-0.881,0.393-1.833,0.656-2.826,0.776c1.014-0.609,1.796-1.575,2.162-2.725c-0.949,0.563-2.003,0.974-3.125,1.195
	c-0.898-0.958-2.177-1.555-3.595-1.555c-2.72,0-4.925,2.204-4.925,4.923c0,0.387,0.045,0.762,0.128,1.123
	C7.729,8.088,4.099,6.127,1.67,3.147C1.248,3.875,1.004,4.721,1.004,5.624c0,1.709,0.869,3.217,2.19,4.098
	C2.387,9.697,1.628,9.475,0.965,9.106c0,0.02,0,0.04,0,0.063c0,2.384,1.697,4.373,3.95,4.828c-0.414,0.111-0.849,0.17-1.298,0.17
	c-0.317,0-0.625-0.027-0.926-0.088c0.627,1.959,2.446,3.381,4.6,3.418c-1.685,1.324-3.808,2.109-6.114,2.109
	c-0.397,0-0.791-0.023-1.175-0.07c2.179,1.4,4.767,2.215,7.548,2.215c9.058,0,14.009-7.504,14.009-14.011
	c0-0.212-0.006-0.424-0.013-0.635C22.506,6.411,23.339,5.544,24,4.556z" />
</svg>